<?xml version="1.0" encoding="utf-8"?>
<!-- Generator: Adobe Illustrator 24.3.0, SVG Export Plug-In . SVG Version: 6.00 Build 0)  -->
<svg version="1.1" id="Capa_1" xmlns="http://www.w3.org/2000/svg" xmlns:xlink="http://www.w3.org/1999/xlink" x="0px" y="0px"
	 width="1000px" height="136.99px" viewBox="0 0 1000 136.99" style="enable-background:new 0 0 1000 136.99;" xml:space="preserve"
	>
<style type="text/css">
	.st0{fill-rule:evenodd;clip-rule:evenodd;fill:#FFFFFF;}
	.st1{fill:#FFFFFF;}
</style>
<g>
	<path class="st0" d="M416.287,57.429v-2.105h0.478c4.735,0.212,9.322-1.671,12.543-5.148c3.096-3.344,4.547-7.979,4.547-13.781
		c0.006-2.536-0.394-5.056-1.185-7.466c-0.79-2.518-1.953-4.903-3.45-7.076c-2.819-4.461-7.691-7.206-12.967-7.306v-2.194
		c3.114-0.034,6.206,0.525,9.111,1.645c2.681,1.086,5.095,2.74,7.076,4.847c1.941,2.046,3.467,4.449,4.493,7.076
		c1.034,2.73,1.555,5.626,1.539,8.545c-0.005,2.873-0.49,5.725-1.433,8.439c-0.927,2.592-2.325,4.991-4.122,7.076
		c-2.056,2.394-4.602,4.319-7.466,5.643c-2.88,1.294-6.007,1.946-9.164,1.911L416.287,57.429z M416.287,12.353v2.158h-0.619
		c-4.676-0.204-9.205,1.659-12.384,5.095c-3.216,3.712-4.877,8.522-4.635,13.427c0.002,2.392,0.33,4.773,0.973,7.076
		c0.704,2.422,1.721,4.741,3.025,6.899c1.464,2.561,3.559,4.705,6.086,6.227c2.292,1.347,4.896,2.073,7.554,2.105v2.105
		c-5.979,0.211-11.782-2.047-16.046-6.245c-4.16-4.365-6.369-10.233-6.121-16.258c-0.028-2.981,0.531-5.939,1.645-8.704
		c1.132-2.74,2.777-5.238,4.847-7.359c1.997-2.085,4.407-3.73,7.076-4.83c2.726-1.136,5.645-1.737,8.598-1.769 M235.238,57.429
		v-2.105c0.159,0,0.301,0,0.46,0c4.722,0.201,9.295-1.681,12.507-5.148c3.232-3.842,4.889-8.767,4.635-13.781
		c-0.02-2.534-0.42-5.05-1.185-7.466c-0.805-2.512-1.967-4.895-3.45-7.076c-1.505-2.25-3.517-4.117-5.873-5.449
		c-2.191-1.139-4.609-1.774-7.076-1.858v-2.194c3.097-0.039,6.172,0.52,9.058,1.645c2.722,1.076,5.179,2.73,7.2,4.847
		c1.943,2.031,3.449,4.44,4.423,7.076c1.047,2.726,1.576,5.624,1.557,8.545c0.015,2.876-0.476,5.732-1.451,8.439
		c-0.916,2.586-2.295,4.984-4.069,7.076c-2.057,2.343-4.582,4.23-7.412,5.537c-2.882,1.287-6.008,1.939-9.164,1.911L235.238,57.429z
		 M266.586,48.071v-26.66c0.095-1.272-0.049-2.55-0.425-3.768c-0.3-0.699-0.775-1.308-1.38-1.769
		c-0.303-0.223-0.63-0.412-0.973-0.566c-0.385-0.15-0.791-0.239-1.203-0.265c-0.044-0.025-0.098-0.025-0.142,0
		c-0.619-0.159-0.938-0.46-0.938-0.814c-0.033-0.27,0.066-0.54,0.265-0.725c0.282-0.153,0.6-0.226,0.92-0.212
		c0.212,0,0.938,0,2.264,0.212c1.327,0.212,2.477,0.159,3.538,0.159c1.909,0,3.817-0.107,5.714-0.318
		c0.206-0.016,0.413-0.016,0.619,0c0.244-0.025,0.487,0.051,0.672,0.212c0.15,0.169,0.221,0.395,0.195,0.619
		c0,0.407-0.407,0.761-1.274,1.079l0,0c-0.134,0.071-0.277,0.125-0.425,0.159c-0.46,0.165-0.89,0.404-1.274,0.708
		c-0.522,0.474-0.896,1.088-1.079,1.769c-0.262,1.202-0.369,2.433-0.318,3.662v28.465c-0.145,1.109,0.211,2.224,0.973,3.043
		c1.154,0.672,2.493,0.957,3.821,0.814c2.459,0.023,4.912-0.25,7.306-0.814c1.954-0.367,3.832-1.061,5.555-2.052
		c0.864-0.629,1.633-1.38,2.282-2.229c0.725-0.92,1.185-1.327,1.433-1.327c0.169-0.024,0.328,0.083,0.372,0.248
		c0.105,0.245,0.154,0.512,0.142,0.778c-0.03,0.803-0.222,1.591-0.566,2.318c-0.35,0.964-0.851,1.866-1.486,2.671
		c-0.736,0.983-1.71,1.763-2.831,2.264c-1.266,0.544-2.639,0.792-4.016,0.725c-0.513,0-1.999,0-4.529-0.159
		c-2.53-0.159-4.83-0.195-6.846-0.195c-3.291,0-6.422,0-9.358,0.354h-0.725c-0.164,0.007-0.319-0.074-0.407-0.212
		c-0.116-0.099-0.192-0.238-0.212-0.389c0.005-0.223,0.079-0.44,0.212-0.619c0.277-0.272,0.609-0.483,0.973-0.619
		c0.052-0.016,0.107-0.016,0.159,0c0.552-0.26,1.054-0.613,1.486-1.044c0.522-0.553,0.91-1.219,1.132-1.946
		c0.299-1.124,0.424-2.288,0.372-3.45 M300.075,48.177V21.411c0.061-1.246-0.076-2.494-0.407-3.697
		c-0.268-0.741-0.748-1.387-1.38-1.858c-0.267-0.207-0.566-0.368-0.885-0.478c-0.413-0.155-0.84-0.273-1.274-0.354
		c-0.359-0.056-0.71-0.157-1.044-0.301c-0.161-0.144-0.251-0.35-0.248-0.566c0-0.372,0.088-0.619,0.248-0.725
		c0.287-0.156,0.611-0.229,0.938-0.212c0.271-0.017,0.543-0.017,0.814,0c3.338,0.212,6.84,0.318,10.508,0.318
		c4.476,0,8.845-0.159,13.374-0.478l1.486-0.088c0.349-0.037,0.7,0.051,0.991,0.248c0.16,0.304,0.227,0.649,0.195,0.991v0.407
		c0.012,0.034,0.012,0.072,0,0.106v0.442l-0.407,5.042c-0.037,0.348-0.108,0.692-0.212,1.026c-0.115,0.17-0.308,0.27-0.513,0.265
		c-0.234-0.001-0.457-0.097-0.619-0.265c-0.149-0.244-0.217-0.529-0.195-0.814v-0.354c0.019-0.123,0.019-0.248,0-0.372
		c0.126-1.265-0.495-2.488-1.592-3.131c-1.876-0.768-3.905-1.089-5.926-0.938h-4.281c-1.324-0.094-2.654,0.081-3.91,0.513
		c-0.614,0.457-0.943,1.202-0.867,1.964v12.649c0,1.132,0.159,1.769,0.407,2.017c0.531,0.32,1.156,0.445,1.769,0.354h5.042
		c1.39,0.072,2.782-0.083,4.122-0.46c0.834-0.246,1.558-0.771,2.052-1.486c0.297-0.559,0.522-1.154,0.672-1.769
		c0.265-0.778,0.566-1.132,0.938-1.132c0.228,0,0.432,0.141,0.513,0.354c0.152,0.301,0.219,0.637,0.195,0.973
		c0,0.106,0,0.778-0.088,2.017s-0.159,2.459-0.159,3.644c0.02,1.183,0.103,2.364,0.248,3.538c0.018,0.206,0.018,0.413,0,0.619
		c0.023,0.326-0.064,0.65-0.248,0.92c-0.108,0.217-0.324,0.359-0.566,0.372c-0.513,0-0.831-0.46-0.991-1.451
		c-0.071-0.518-0.172-1.032-0.301-1.539c-0.329-0.803-0.966-1.44-1.769-1.769c-1.333-0.412-2.729-0.585-4.122-0.513h-5.803
		c-0.528-0.068-1.062,0.057-1.504,0.354c-0.289,0.504-0.413,1.085-0.354,1.663v12.561c-0.138,1.133,0.239,2.269,1.026,3.096
		c1.237,0.636,2.632,0.9,4.016,0.761c2.413,0.023,4.819-0.25,7.165-0.814c1.95-0.409,3.824-1.119,5.555-2.105
		c0.841-0.594,1.571-1.331,2.158-2.176c0.708-0.867,1.185-1.274,1.38-1.274c0.175-0.014,0.339,0.086,0.407,0.248
		c0.111,0.244,0.166,0.51,0.159,0.778c-0.052,0.783-0.243,1.55-0.566,2.264c-0.353,0.881-0.817,1.713-1.38,2.477
		c-0.766,1.024-1.751,1.865-2.884,2.459c-1.202,0.51-2.499,0.757-3.804,0.725l-4.228-0.159c-2.424-0.142-4.582-0.195-6.581-0.195
		c-3.538,0-6.899,0-10.048,0.354c-0.289,0.017-0.578,0.017-0.867,0c-0.16-0.01-0.307-0.087-0.407-0.212
		c-0.161-0.122-0.259-0.311-0.265-0.513c-0.003-0.235,0.094-0.459,0.265-0.619c0.106-0.195,0.407-0.354,0.92-0.619h0.106
		c0.599-0.23,1.142-0.586,1.592-1.044c0.533-0.524,0.923-1.176,1.132-1.893c0.244-1.163,0.345-2.351,0.301-3.538 M363.285,46.373
		v-7.253c0.046-0.726-0.133-1.449-0.513-2.07c-0.386-0.591-0.941-1.053-1.592-1.327c-0.365-0.135-0.745-0.225-1.132-0.265l0,0
		c-0.397-0.043-0.782-0.163-1.132-0.354c-0.176-0.134-0.275-0.345-0.265-0.566c-0.036-0.261,0.041-0.525,0.212-0.725
		c0.325-0.132,0.676-0.186,1.026-0.159l2.318,0.159c1.333,0.148,2.674,0.219,4.016,0.212c1.135-0.001,2.27-0.072,3.397-0.212
		c0.195,0,0.407,0,0.513,0c0.063,0.02,0.131,0.02,0.195,0c0.123-0.017,0.248-0.017,0.372,0c0.169-0.014,0.336,0.044,0.46,0.159
		c0.107,0.149,0.163,0.329,0.159,0.513c0.011,0.218-0.045,0.434-0.159,0.619c-0.221,0.199-0.464,0.371-0.725,0.513
		c-0.151-0.002-0.297,0.055-0.407,0.159c-0.143,0.047-0.28,0.113-0.407,0.195c-0.416,0.311-0.725,0.744-0.885,1.238
		c-0.223,0.63-0.325,1.296-0.301,1.964v9.518c-0.018,0.188-0.018,0.378,0,0.566v0.725c0,0.725-0.46,1.274-1.504,1.769
		c-0.424,0.192-0.832,0.417-1.221,0.672l-0.619,0.354c-4.494,2.815-9.635,4.429-14.931,4.688
		c-5.596,0.253-11.032-1.905-14.931-5.926c-3.833-4.324-5.826-9.973-5.555-15.745c-0.045-3.196,0.494-6.374,1.592-9.376
		c1.066-2.85,2.697-5.456,4.794-7.66c1.837-1.958,4.085-3.487,6.581-4.476c2.695-1.017,5.559-1.509,8.439-1.451
		c1.887-0.002,3.767,0.206,5.608,0.619c1.862,0.397,3.676,0.99,5.413,1.769c0.513,0.212,1.185,0.566,2.052,1.026
		c0.521,0.384,1.128,0.634,1.769,0.725c0.257-0.039,0.504-0.129,0.725-0.265c0.199-0.139,0.431-0.224,0.672-0.248
		c0.174-0.008,0.335,0.09,0.407,0.248c0.118,0.3,0.189,0.616,0.212,0.938l0.619,6.422c0.026,0.194,0.026,0.39,0,0.584
		c0.022,0.235,0.022,0.472,0,0.708c0.024,0.267-0.025,0.536-0.142,0.778c-0.141,0.162-0.354,0.241-0.566,0.212
		c-0.425,0-0.885-0.672-1.451-1.964c-0.469-1.141-1.062-2.227-1.769-3.237c-1.621-2.077-3.697-3.753-6.068-4.9
		c-2.406-1.16-5.042-1.765-7.713-1.769c-4.487-0.103-8.776,1.852-11.641,5.307c-3.123,3.8-4.736,8.619-4.529,13.534
		c-0.245,5.704,1.465,11.321,4.847,15.922c2.817,3.953,7.389,6.278,12.242,6.227c1.645-0.003,3.28-0.26,4.847-0.761
		c1.542-0.492,2.998-1.22,4.317-2.158c0.782-0.568,1.393-1.339,1.769-2.229c0.406-1.134,0.598-2.334,0.566-3.538 M379.737,48.425
		V21.411c0.085-1.248-0.059-2.501-0.425-3.697c-0.27-0.716-0.751-1.333-1.38-1.769c-0.631-0.476-1.375-0.781-2.158-0.885l0,0
		c-0.382-0.032-0.752-0.153-1.079-0.354c-0.168-0.162-0.264-0.385-0.265-0.619c-0.018-0.264,0.102-0.519,0.318-0.672
		c0.287-0.134,0.605-0.189,0.92-0.159c0.159,0,0.92,0,2.264,0.212c1.345,0.212,2.671,0.159,3.91,0.159
		c2.062,0.003,4.123-0.104,6.174-0.318c0.206-0.016,0.413-0.016,0.619,0c0.259-0.019,0.517,0.056,0.725,0.212
		c0.157,0.168,0.245,0.389,0.248,0.619c0.021,0.219-0.073,0.433-0.248,0.566c-0.343,0.273-0.752,0.45-1.185,0.513
		c-0.444,0.113-0.876,0.267-1.291,0.46c-0.292,0.158-0.565,0.348-0.814,0.566c-0.506,0.415-0.881,0.968-1.079,1.592
		c-0.272,1.201-0.379,2.433-0.318,3.662v26.713c-0.045,1.281,0.092,2.561,0.407,3.804c0.28,0.793,0.807,1.475,1.504,1.946
		c0.636,0.458,1.379,0.744,2.158,0.831c0.034,0.012,0.072,0.012,0.106,0c0.375,0.034,0.741,0.136,1.079,0.301
		c0.164,0.164,0.253,0.388,0.248,0.619c0,0.318,0,0.513-0.248,0.672c-0.324,0.136-0.676,0.19-1.026,0.159
		c-0.619,0-1.645,0-3.149-0.159c-1.175-0.131-2.356-0.196-3.538-0.195c-1.915-0.004-3.828,0.096-5.732,0.301
		c-0.236,0.015-0.472,0.015-0.708,0c-0.277,0.027-0.554-0.048-0.778-0.212c-0.167-0.139-0.259-0.349-0.248-0.566
		c0-0.407,0.407-0.814,1.168-1.132h0.159c0.417-0.088,0.814-0.256,1.168-0.495c0.339-0.162,0.655-0.371,0.938-0.619
		c0.558-0.481,0.995-1.087,1.274-1.769c0.31-1.152,0.435-2.347,0.372-3.538 M92.065,48.071v-26.66
		c0.051-1.246-0.086-2.492-0.407-3.697c-0.275-0.742-0.761-1.387-1.398-1.858c-0.264-0.21-0.564-0.372-0.885-0.478
		c-0.413-0.155-0.84-0.273-1.274-0.354c-0.36-0.05-0.712-0.151-1.044-0.301c-0.155-0.148-0.245-0.352-0.248-0.566
		c0-0.372,0.106-0.619,0.248-0.725c0.287-0.156,0.611-0.229,0.938-0.212c0.271-0.015,0.543-0.015,0.814,0
		c3.308,0.212,6.793,0.318,10.508,0.318c4.476,0,8.845-0.159,13.374-0.478l1.451-0.088c0.344-0.044,0.692,0.044,0.973,0.248
		c0.197,0.291,0.29,0.64,0.265,0.991v0.407c-0.011,0.035-0.011,0.072,0,0.106c-0.011,0.1-0.011,0.201,0,0.301l-0.425,5.042
		c0.02,0.353-0.047,0.705-0.195,1.026c-0.112,0.173-0.307,0.274-0.513,0.265c-0.221,0.013-0.435-0.087-0.566-0.265
		c-0.164-0.238-0.239-0.526-0.212-0.814v-0.354c0.019-0.123,0.019-0.248,0-0.372c0.1-1.26-0.515-2.47-1.592-3.131
		c-1.876-0.77-3.905-1.091-5.926-0.938h-4.37c-1.311-0.075-2.623,0.117-3.857,0.566c-0.618,0.455-0.953,1.199-0.885,1.964v12.649
		c-0.078,0.694,0.051,1.396,0.372,2.017c0.531,0.318,1.156,0.443,1.769,0.354h5.042c1.384,0.069,2.77-0.087,4.104-0.46
		c0.818-0.24,1.522-0.768,1.981-1.486c0.31-0.559,0.554-1.153,0.725-1.769c0.195-0.778,0.513-1.132,0.92-1.132
		s0.354,0.106,0.513,0.354c0.142,0.305,0.215,0.637,0.212,0.973c0,0.106-0.053,0.778-0.159,2.017c0,1.238-0.106,2.459-0.106,3.644
		c0.018,1.184,0.106,2.365,0.265,3.538c0,0.318,0,0.513,0,0.619c-0.002,0.325-0.094,0.644-0.265,0.92
		c-0.105,0.219-0.323,0.362-0.566,0.372c-0.513,0-0.831-0.46-0.973-1.451c-0.063-0.526-0.188-1.042-0.372-1.539
		c-0.296-0.824-0.945-1.473-1.769-1.769c-1.308-0.416-2.681-0.589-4.051-0.513h-5.785c-0.778,0-1.291,0.106-1.486,0.354
		c-0.195,0.248-0.372,0.778-0.372,1.663v12.649c-0.13,1.133,0.245,2.265,1.026,3.096c1.237,0.636,2.632,0.9,4.016,0.761
		c2.412,0.021,4.819-0.252,7.165-0.814c1.951-0.406,3.825-1.116,5.555-2.105c0.863-0.585,1.613-1.322,2.211-2.176
		c0.672-0.867,1.132-1.274,1.398-1.274c0.172-0.004,0.331,0.093,0.407,0.248c0.105,0.245,0.154,0.512,0.142,0.778
		c-0.049,0.787-0.254,1.557-0.601,2.264c-0.328,0.885-0.781,1.719-1.345,2.477c-0.792,1.02-1.793,1.859-2.937,2.459
		c-1.181,0.515-2.462,0.763-3.75,0.725l-4.228-0.159c-2.424-0.142-4.582-0.195-6.581-0.195c-3.538,0-6.899,0-10.048,0.354
		c-0.289,0.017-0.578,0.017-0.867,0c-0.161-0.003-0.312-0.081-0.407-0.212c-0.161-0.122-0.259-0.311-0.265-0.513
		c0.005-0.223,0.079-0.44,0.212-0.619c0.273-0.252,0.583-0.461,0.92-0.619c0.052,0.016,0.107,0.016,0.159,0
		c0.602-0.226,1.145-0.582,1.592-1.044c0.52-0.534,0.908-1.182,1.132-1.893c0.261-1.16,0.368-2.35,0.318-3.538 M235.238,12.3v2.158
		h-0.672c-4.648-0.193-9.146,1.671-12.295,5.095c-3.234,3.705-4.913,8.515-4.688,13.427c0.012,2.395,0.357,4.777,1.026,7.076
		c0.645,2.447,1.64,4.789,2.954,6.953c1.438,2.557,3.51,4.701,6.015,6.227c2.315,1.354,4.943,2.08,7.625,2.105v2.105
		c-5.985,0.231-11.798-2.023-16.063-6.227c-4.197-4.345-6.429-10.222-6.174-16.258c-0.002-2.979,0.556-5.931,1.645-8.704
		c1.125-2.756,2.791-5.259,4.9-7.359c1.997-2.085,4.407-3.73,7.076-4.83c2.723-1.145,5.644-1.746,8.598-1.769 M127.005,48.071
		v-26.66c0.061-1.27-0.076-2.541-0.407-3.768c-0.313-0.696-0.793-1.303-1.398-1.769c-0.301-0.226-0.628-0.416-0.973-0.566
		c-0.381-0.144-0.78-0.233-1.185-0.265c-0.051-0.023-0.109-0.023-0.159,0c-0.619-0.159-0.92-0.46-0.92-0.814
		c0-0.354,0-0.619,0.195-0.725c0.302-0.166,0.647-0.24,0.991-0.212c0.195,0,0.92,0,2.211,0.212s2.53,0.159,3.538,0.159
		c1.903,0,3.805-0.107,5.696-0.318c0.206-0.015,0.413-0.015,0.619,0c0.243-0.019,0.484,0.057,0.672,0.212
		c0.156,0.166,0.234,0.392,0.212,0.619c0,0.407-0.407,0.761-1.291,1.079l0,0l-0.407,0.159c-0.469,0.157-0.906,0.397-1.291,0.708
		c-0.516,0.479-0.889,1.091-1.079,1.769c-0.254,1.203-0.355,2.434-0.301,3.662v28.465c-0.153,1.109,0.205,2.228,0.973,3.043
		c1.146,0.676,2.481,0.962,3.804,0.814c2.442,0.024,4.878-0.249,7.253-0.814c1.967-0.379,3.861-1.072,5.608-2.052
		c0.887-0.62,1.675-1.371,2.335-2.229c0.725-0.92,1.185-1.327,1.451-1.327s0.248,0,0.354,0.248c0.111,0.244,0.166,0.51,0.159,0.778
		c-0.065,0.798-0.256,1.58-0.566,2.318c-0.378,0.951-0.877,1.849-1.486,2.671c-0.724,1.025-1.698,1.847-2.831,2.388
		c-1.275,0.533-2.652,0.781-4.034,0.725l-4.564-0.23c-2.583-0.159-4.847-0.195-6.846-0.195c-3.344,0-6.493,0-9.376,0.354h-0.725
		c-0.163,0.003-0.316-0.077-0.407-0.212c-0.135-0.136-0.206-0.322-0.195-0.513c-0.018-0.224,0.052-0.446,0.195-0.619
		c0.275-0.284,0.615-0.497,0.991-0.619c0.046-0.018,0.096-0.018,0.142,0c0.545-0.28,1.051-0.631,1.504-1.044
		c0.516-0.558,0.902-1.222,1.132-1.946c0.283-1.127,0.402-2.289,0.354-3.45 M207.746,52.317c-2.181,1.655-4.636,2.913-7.253,3.715
		c-2.87,0.851-5.852,1.268-8.845,1.238c-5.702,0.292-11.265-1.819-15.338-5.82c-3.896-4.36-5.912-10.083-5.608-15.922
		c-0.028-3.194,0.529-6.366,1.645-9.358c1.018-2.835,2.607-5.43,4.67-7.625c1.833-1.91,4.044-3.416,6.493-4.423
		c2.691-1.034,5.556-1.545,8.439-1.504c1.784,0.005,3.562,0.195,5.307,0.566c1.727,0.395,3.414,0.946,5.042,1.645
		c0.863,0.417,1.691,0.902,2.477,1.451c0.51,0.452,1.114,0.785,1.769,0.973c0.312-0.028,0.611-0.137,0.867-0.318
		c0.205-0.131,0.433-0.221,0.672-0.265c0.186,0.017,0.345,0.142,0.407,0.318c0.127,0.291,0.199,0.603,0.212,0.92l0.566,6.386
		c0.025,0.17,0.025,0.343,0,0.513c0.031,0.235,0.031,0.473,0,0.708c0.028,0.287-0.028,0.575-0.159,0.831
		c-0.12,0.158-0.316,0.24-0.513,0.212c-0.46,0-0.973-0.619-1.504-1.769c-0.261-0.686-0.569-1.354-0.92-1.999
		c-1.568-2.56-3.721-4.712-6.28-6.28c-2.359-1.474-5.091-2.241-7.872-2.211c-4.475-0.126-8.768,1.779-11.676,5.183
		c-3.107,3.806-4.701,8.625-4.476,13.534c-0.275,5.689,1.391,11.303,4.723,15.922c2.732,3.948,7.247,6.281,12.048,6.227
		c2.224-0.021,4.425-0.453,6.493-1.274c2.11-0.855,4.042-2.097,5.696-3.662c0.85-0.86,1.582-1.83,2.176-2.884
		c0.708-1.238,1.221-1.769,1.592-1.769c0.16-0.007,0.306,0.094,0.354,0.248c0.114,0.186,0.17,0.401,0.159,0.619
		c0.02,0.117,0.02,0.237,0,0.354c-0.008,0.21-0.044,0.418-0.106,0.619L207.746,52.317z"/>
	<path class="st0" d="M414.801,122.125v-2.105h0.513c4.975,0.25,9.827-1.598,13.374-5.095c3.404-3.807,5.165-8.805,4.9-13.905
		c-0.013-2.543-0.449-5.066-1.291-7.466c-0.838-2.538-2.074-4.927-3.662-7.076c-1.592-2.309-3.732-4.187-6.227-5.466
		c-2.368-1.162-4.97-1.767-7.607-1.769v-2.158c3.31-0.027,6.601,0.511,9.73,1.592c2.839,1.099,5.426,2.76,7.607,4.883
		c2.073,2,3.706,4.41,4.794,7.076c2.157,5.449,2.195,11.508,0.106,16.983c-0.987,2.622-2.477,5.026-4.387,7.076
		c-2.232,2.414-4.952,4.325-7.979,5.608c-3.072,1.3-6.376,1.962-9.712,1.946L414.801,122.125z M110.747,118.587
		c3.595-0.37,6.972-1.897,9.624-4.352c3.184-3.096,4.777-7.519,4.777-13.233c0.277-5.836-1.927-11.517-6.068-15.639
		c-2.345-2.242-5.207-3.871-8.332-4.741v-2.3c4.579,0.549,8.919,2.348,12.543,5.201c4.52,3.776,7.002,9.456,6.705,15.338
		c0.268,6.146-2.247,12.085-6.846,16.169c-3.515,3.002-7.809,4.947-12.384,5.608L110.747,118.587z M414.801,77.084v2.123h-0.672
		c-4.897-0.219-9.66,1.629-13.127,5.095c-3.419,3.612-5.22,8.46-4.989,13.427c-0.006,2.441,0.358,4.868,1.079,7.2
		c0.746,2.399,1.817,4.685,3.184,6.793c1.588,2.585,3.803,4.727,6.439,6.227c2.476,1.37,5.255,2.1,8.085,2.123v2.105
		c-6.291,0.237-12.425-1.999-17.089-6.227c-4.449-4.23-6.849-10.178-6.581-16.311c-0.009-2.974,0.593-5.919,1.769-8.651
		c1.216-2.781,2.986-5.285,5.201-7.359c2.174-2.115,4.748-3.775,7.572-4.883c2.93-1.097,6.035-1.655,9.164-1.645 M139.406,112.713
		V86.177c0.05-1.252-0.087-2.504-0.407-3.715c-0.329-0.711-0.842-1.322-1.486-1.769c-0.317-0.196-0.648-0.367-0.991-0.513
		c-0.354,0-0.814-0.248-1.38-0.354c-0.388,0-0.769-0.111-1.097-0.318c-0.167-0.132-0.259-0.336-0.248-0.548
		c0-0.318,0.106-0.566,0.301-0.672c0.282-0.174,0.606-0.266,0.938-0.265l0.92,0.106c3.538,0.212,7.253,0.301,11.163,0.301
		c4.794,0,9.535-0.142,14.259-0.46c0.528-0.068,1.06-0.103,1.592-0.106c0.369-0.04,0.739,0.054,1.044,0.265
		c0.187,0.289,0.273,0.63,0.248,0.973v0.372c0.019,0.051,0.019,0.108,0,0.159v0.301l-0.46,5.042
		c-0.009,0.335-0.081,0.665-0.212,0.973c0,0.212-0.301,0.265-0.566,0.318c-0.257,0.006-0.501-0.113-0.655-0.318
		c-0.147-0.246-0.22-0.528-0.212-0.814c-0.019-0.123-0.019-0.248,0-0.372v-0.301c0.105-1.312-0.594-2.556-1.769-3.149
		c-2.001-0.764-4.145-1.078-6.28-0.92h-4.511c-1.412-0.118-2.833,0.057-4.175,0.513c-0.649,0.431-1.004,1.189-0.92,1.964v12.649
		c-0.083,0.698,0.059,1.405,0.407,2.017c0.546,0.279,1.158,0.401,1.769,0.354h5.307c1.477,0.068,2.956-0.087,4.387-0.46
		c0.866-0.268,1.622-0.808,2.158-1.539c0.314-0.514,0.558-1.067,0.725-1.645c0.248-0.778,0.566-1.185,0.973-1.185
		c0.238,0.009,0.453,0.144,0.566,0.354c0.162,0.297,0.236,0.635,0.212,0.973c0,0.106,0,0.778-0.106,2.07
		c-0.106,1.291-0.159,2.459-0.159,3.644c0.014,1.184,0.102,2.366,0.265,3.538c0.018,0.224,0.018,0.449,0,0.672
		c0.027,0.329-0.067,0.656-0.265,0.92c-0.126,0.225-0.361,0.367-0.619,0.372c-0.513,0-0.867-0.531-1.026-1.451
		c-0.052-0.526-0.171-1.043-0.354-1.539c-0.361-0.831-1.054-1.473-1.911-1.769c-1.335-0.454-2.73-0.71-4.14-0.761h-6.227
		c-0.559-0.037-1.118,0.086-1.61,0.354c-0.272,0.504-0.395,1.074-0.354,1.645v12.561c-0.181,1.158,0.223,2.331,1.079,3.131
		c1.341,0.648,2.834,0.917,4.317,0.778c2.562,0.006,5.117-0.255,7.625-0.778c2.08-0.392,4.081-1.121,5.926-2.158
		c0.895-0.574,1.69-1.291,2.353-2.123c0.725-0.867,1.238-1.327,1.504-1.327c0.182,0.014,0.34,0.131,0.407,0.301
		c0.126,0.239,0.182,0.509,0.159,0.778c-0.066,0.786-0.275,1.554-0.619,2.264c-0.376,0.879-0.864,1.705-1.451,2.459
		c-0.865,1.007-1.909,1.847-3.078,2.477c-1.294,0.513-2.678,0.76-4.069,0.725c-0.407,0-1.893-0.106-4.476-0.212
		s-4.883-0.159-7.076-0.159c-3.75,0-7.359,0.106-10.615,0.372c-0.513,0-0.814,0-0.92,0c-0.184-0.02-0.351-0.116-0.46-0.265
		c-0.133-0.116-0.21-0.283-0.212-0.46c-0.011-0.242,0.064-0.48,0.212-0.672c0.284-0.251,0.614-0.444,0.973-0.566
		c0,0,0.106,0,0.159,0c0.673-0.202,1.282-0.573,1.769-1.079c0.548-0.472,0.957-1.083,1.185-1.769
		c0.266-1.16,0.385-2.349,0.354-3.538 M197.202,91.237c-0.115-0.203-0.252-0.392-0.407-0.566c-0.095-0.109-0.228-0.178-0.372-0.195
		c-0.248,0-0.407,0.566-0.566,1.769c-0.159,1.203-0.248,3.397-0.354,6.74l-0.354,8.173c0,0.672,0,1.451,0,2.176v3.131
		c-0.067,1.44,0.107,2.881,0.513,4.264c0.419,0.861,1.1,1.567,1.946,2.017c0.545,0.317,1.145,0.527,1.769,0.619h0.159
		c0.973,0.195,1.433,0.566,1.433,1.026c-0.002,0.24-0.138,0.459-0.354,0.566c-0.305,0.142-0.637,0.215-0.973,0.212
		c-0.212,0-0.566,0-1.185-0.106c-2.105-0.159-4.122-0.265-5.962-0.265c-0.899,0.002-1.796,0.055-2.689,0.159
		c-0.92,0.159-1.38,0.212-1.433,0.212c-0.277,0.009-0.544-0.108-0.725-0.318c-0.221-0.128-0.356-0.364-0.354-0.619
		c0-0.181,0.049-0.358,0.142-0.513c0.083-0.142,0.215-0.249,0.372-0.301c0.063,0.02,0.131,0.02,0.195,0
		c0.088,0.005,0.177,0.005,0.265,0c0.833-0.213,1.619-0.579,2.318-1.079c0.397-0.422,0.677-0.94,0.814-1.504
		c0.77-3.149,1.22-6.367,1.345-9.606c0.46-5.095,0.672-10.615,0.672-16.576c0.081-2.213-0.199-4.424-0.831-6.546
		c-0.405-1.433-1.293-2.683-2.512-3.538c-0.453-0.309-0.965-0.519-1.504-0.619l0,0c-0.034,0.012-0.072,0.012-0.106,0
		c-0.778-0.212-1.132-0.513-1.132-0.973c-0.021-0.246,0.094-0.484,0.301-0.619c0.297-0.162,0.635-0.236,0.973-0.212
		c0.521,0,1.041,0.036,1.557,0.106c0.814,0,1.592,0.106,2.211,0.106h0.513c0.099-0.024,0.202-0.024,0.301,0h0.619
		c1.209-0.18,2.403,0.413,2.99,1.486l0,0l16.01,31.844l0.407,0.566c0.135,0.102,0.293,0.169,0.46,0.195
		c0.179-0.021,0.344-0.109,0.46-0.248c0.169-0.213,0.323-0.438,0.46-0.672l17.001-32.162c0.053-0.066,0.101-0.137,0.142-0.212
		c0.291-0.55,0.884-0.871,1.504-0.814h1.38c0.705-0.005,1.408-0.059,2.105-0.159c0.498-0.068,1.001-0.104,1.504-0.106
		c0.355-0.023,0.71,0.05,1.026,0.212c0.232,0.087,0.378,0.319,0.354,0.566c0,0.46-0.407,0.761-1.238,1.026
		c-0.329,0.02-0.655,0.073-0.973,0.159c-0.241,0.082-0.468,0.202-0.672,0.354c-0.628,0.35-1.129,0.888-1.433,1.539
		c-0.342,0.853-0.481,1.773-0.407,2.689v0.761l0.655,27.527v0.425c0,3.025,0.831,4.936,2.318,5.608
		c0.434,0.192,0.884,0.345,1.344,0.46c0.106,0,0.159,0,0.212,0l0,0c0.778,0.195,1.203,0.46,1.203,0.831
		c0.002,0.284-0.165,0.541-0.425,0.655c-0.334,0.168-0.707,0.241-1.079,0.212c-0.513,0-1.539,0-3.025-0.106
		c-1.486-0.106-2.848-0.106-3.821-0.106s-1.999,0-3.078,0.159c-1.079,0.159-1.592,0.212-1.769,0.212
		c-0.252,0.016-0.503-0.039-0.725-0.159c-0.173-0.112-0.274-0.307-0.265-0.513c-0.037-0.255,0.064-0.511,0.265-0.672
		c0.339-0.246,0.724-0.421,1.132-0.513c0.094-0.021,0.183-0.057,0.265-0.106c0.178-0.046,0.35-0.111,0.513-0.195
		c0.636-0.27,1.147-0.769,1.433-1.398c0.375-0.913,0.532-1.9,0.46-2.884c0-0.195,0-0.566,0-1.185v-1.345l-0.407-19.46
		c-0.002-0.761-0.085-1.521-0.248-2.264c-0.106-0.46-0.318-0.672-0.531-0.672s-0.46,0.159-0.761,0.513
		c-0.403,0.459-0.732,0.978-0.973,1.539l-13.958,26.536c-0.181,0.397-0.426,0.761-0.725,1.079c-0.188,0.188-0.442,0.296-0.708,0.301
		c-0.296-0.01-0.576-0.137-0.778-0.354c-0.28-0.302-0.507-0.649-0.672-1.026L197.202,91.237z M250.116,112.66V86.124
		c0.056-1.253-0.087-2.507-0.425-3.715c-0.317-0.719-0.833-1.332-1.486-1.769c-0.307-0.203-0.632-0.375-0.973-0.513
		c-0.372,0-0.778-0.248-1.345-0.354c-0.384,0.007-0.76-0.104-1.079-0.318c-0.212-0.088-0.265-0.301-0.265-0.548
		c-0.024-0.254,0.074-0.504,0.265-0.672c0.159-0.159,0.46-0.212,0.973-0.265l0.885,0.106c3.538,0.212,7.253,0.301,11.216,0.301
		c4.741,0,9.518-0.142,14.259-0.46c0.51-0.068,1.024-0.103,1.539-0.106c0.379-0.03,0.757,0.063,1.079,0.265
		c0.181,0.29,0.256,0.634,0.212,0.973v0.531c0,0,0,0.142,0,0.301l-0.46,5.042c-0.009,0.335-0.081,0.665-0.212,0.973
		c-0.106,0.212-0.301,0.265-0.566,0.318c-0.246,0.003-0.478-0.116-0.619-0.318c-0.165-0.237-0.234-0.528-0.195-0.814v-0.372
		c0.012-0.1,0.012-0.201,0-0.301c0.1-1.311-0.598-2.553-1.769-3.149c-2.02-0.759-4.181-1.073-6.333-0.92h-4.511
		c-1.395-0.127-2.801,0.048-4.122,0.513c-0.659,0.424-1.022,1.184-0.938,1.964v12.649c0,1.097,0.106,1.769,0.425,2.017
		c0.543,0.288,1.158,0.411,1.769,0.354h5.307c1.471,0.069,2.945-0.086,4.37-0.46c0.868-0.264,1.626-0.804,2.158-1.539
		c0.342-0.505,0.605-1.06,0.778-1.645c0.212-0.778,0.566-1.185,0.973-1.185c0.235,0.019,0.446,0.151,0.566,0.354
		c0.136,0.307,0.208,0.638,0.212,0.973c0,0.106,0,0.778-0.142,2.07c-0.142,1.291-0.124,2.459-0.124,3.644
		c-0.012,1.185,0.076,2.368,0.265,3.538c0,0.354,0,0.566,0,0.672c-0.002,0.325-0.094,0.644-0.265,0.92
		c-0.121,0.117-0.276,0.191-0.442,0.212c-0.531,0-0.885-0.531-1.044-1.451c-0.05-0.522-0.15-1.037-0.301-1.539
		c-0.373-0.842-1.087-1.486-1.964-1.769c-1.421-0.398-2.895-0.571-4.37-0.513h-6.174c-0.554-0.046-1.11,0.077-1.592,0.354
		c-0.314,0.487-0.446,1.07-0.372,1.645v12.561c-0.165,1.149,0.245,2.306,1.097,3.096c1.321,0.651,2.798,0.921,4.264,0.778
		c2.562,0.008,5.117-0.253,7.625-0.778c2.077-0.381,4.075-1.111,5.909-2.158c0.918-0.571,1.736-1.288,2.424-2.123
		c0.725-0.867,1.238-1.327,1.433-1.327c0.193-0.031,0.375,0.1,0.406,0.293c0,0.003,0.001,0.005,0.001,0.008
		c0.17,0.221,0.247,0.501,0.212,0.778c-0.066,0.786-0.275,1.554-0.619,2.264c-0.388,0.88-0.887,1.706-1.486,2.459
		c-0.842,1.031-1.891,1.875-3.078,2.477c-1.281,0.513-2.654,0.76-4.034,0.725c-0.407,0-1.893-0.106-4.511-0.212
		c-2.618-0.106-4.9-0.159-7.076-0.159c-3.804,0-7.359,0.106-10.756,0.372c-0.46,0-0.778,0-0.885,0
		c-0.181-0.029-0.345-0.123-0.46-0.265c-0.155-0.102-0.248-0.275-0.248-0.46c-0.009-0.239,0.059-0.475,0.195-0.672
		c0.314-0.246,0.666-0.438,1.044-0.566c0.028-0.011,0.06-0.011,0.088,0c0.669-0.211,1.276-0.581,1.769-1.079
		c0.537-0.47,0.93-1.084,1.132-1.769c0.31-1.152,0.435-2.347,0.372-3.538 M255.653,73.9l9.252-8.845
		c0.537-0.54,1.13-1.02,1.769-1.433c0.399-0.214,0.84-0.34,1.291-0.372c0.637-0.02,1.262,0.18,1.769,0.566
		c0.408,0.414,0.631,0.976,0.619,1.557c-0.018,0.467-0.179,0.918-0.46,1.291c-0.438,0.479-0.945,0.89-1.504,1.221l-10.615,6.086
		L255.653,73.9z M289.266,113.368l9.164-12.561c0.116-0.155,0.206-0.329,0.265-0.513c0.028-0.241,0.028-0.484,0-0.725
		c0.026-0.188,0.026-0.378,0-0.566c-0.087-0.182-0.193-0.354-0.318-0.513l-8.12-11.835c-0.924-1.496-1.959-2.922-3.096-4.263
		c-0.722-0.764-1.55-1.419-2.459-1.946c-0.334-0.173-0.684-0.315-1.044-0.425c-0.43-0.161-0.874-0.279-1.327-0.354h-0.159
		c-0.867-0.248-1.291-0.566-1.291-0.92c0.008-0.229,0.127-0.44,0.318-0.566c0.249-0.139,0.529-0.212,0.814-0.212
		c0,0,0.778,0,2.318,0.212s2.99,0.159,4.476,0.159c0.973,0,2.176,0,3.538-0.159s2.158-0.212,2.477-0.212
		c0.318,0.009,0.63,0.081,0.92,0.212c0.212,0.106,0.265,0.301,0.265,0.566s-0.212,0.619-0.672,0.708
		c-0.46,0.088-0.301,0.124-0.46,0.159c-0.403,0.12-0.772,0.332-1.079,0.619c-0.257,0.282-0.408,0.645-0.425,1.026
		c0.021,0.487,0.148,0.964,0.372,1.398c0.256,0.586,0.583,1.139,0.973,1.645l6.899,9.836l0,0c0.354,0.566,0.619,0.814,0.761,0.814
		c0.176-0.025,0.341-0.098,0.478-0.212c0.192-0.182,0.364-0.383,0.513-0.601l7.306-9.535c0.413-0.566,0.791-1.157,1.132-1.769
		c0.179-0.402,0.281-0.834,0.301-1.274c0.005-0.405-0.119-0.802-0.354-1.132c-0.192-0.324-0.514-0.55-0.885-0.619
		c-0.266-0.104-0.538-0.193-0.814-0.265c-0.938-0.159-1.398-0.513-1.398-0.92c-0.013-0.221,0.087-0.435,0.265-0.566
		c0.23-0.137,0.493-0.211,0.761-0.212c0.372,0,1.15,0.106,2.318,0.265c0.99,0.147,1.989,0.23,2.99,0.248
		c0.513,0,1.238,0,2.211-0.142c0.973-0.142,1.645-0.159,2.07-0.159c0.431-0.034,0.864,0.02,1.274,0.159
		c0.21,0.079,0.341,0.29,0.318,0.513c0,0.407-0.372,0.708-1.132,0.92l-0.513,0.159c-0.212,0-0.425,0.159-0.566,0.195
		c-0.812,0.41-1.572,0.914-2.264,1.504c-0.846,0.786-1.621,1.644-2.318,2.565l-9.358,12.472c-0.143,0.135-0.247,0.306-0.301,0.495
		c-0.055,0.185-0.09,0.374-0.106,0.566c0.013,0.175,0.049,0.347,0.106,0.513c0.077,0.189,0.179,0.367,0.301,0.531l11.588,17.355
		c0.468,0.765,1.066,1.442,1.769,1.999c0.635,0.558,1.366,0.996,2.158,1.291l0.761,0.159l0,0c0.725,0.142,1.079,0.46,1.079,0.867
		c0.029,0.235-0.064,0.469-0.248,0.619c-0.282,0.153-0.6,0.226-0.92,0.212l-2.034-0.212c-1.291,0-2.459-0.106-3.644-0.106
		c-1.964,0-3.857,0.106-5.767,0.265c-0.206,0.018-0.413,0.018-0.619,0c-0.243,0.018-0.483-0.058-0.672-0.212
		c-0.153-0.124-0.233-0.317-0.212-0.513c0-0.407,0.531-0.778,1.504-1.185c0.973-0.407,1.486-0.92,1.486-1.539
		c-0.034-0.358-0.136-0.706-0.301-1.026c-0.267-0.573-0.581-1.123-0.938-1.645l-7.872-11.747l-0.619-0.867
		c-0.098-0.09-0.222-0.145-0.354-0.159c-0.217,0.005-0.423,0.102-0.566,0.265c-0.257,0.208-0.468,0.467-0.619,0.761l-8.598,11.694
		c-0.295,0.411-0.539,0.856-0.725,1.327c-0.149,0.415-0.232,0.851-0.248,1.291c0.028,0.438,0.232,0.847,0.566,1.132
		c0.392,0.375,0.873,0.643,1.398,0.778l0.92,0.142c0.619,0,0.92,0.318,0.92,0.778c0.009,0.215-0.108,0.416-0.301,0.513
		c-0.282,0.169-0.61,0.243-0.938,0.212l-2.406-0.159c-1.451-0.106-2.724-0.159-3.963-0.159c-0.938,0-1.964,0-3.096,0.159
		c-1.132,0.159-1.769,0.212-1.893,0.212c-0.124,0-0.478,0-0.566-0.212c-0.123-0.161-0.18-0.364-0.159-0.566
		c-0.014-0.223,0.055-0.444,0.195-0.619c0.343-0.189,0.713-0.326,1.097-0.407c0.193-0.006,0.384-0.042,0.566-0.106l0.708-0.248
		c1.064-0.437,2.027-1.087,2.831-1.911c1.245-1.205,2.365-2.533,3.344-3.963 M331.016,112.66V86.124
		c0.068-1.256-0.088-2.514-0.46-3.715c-0.313-0.727-0.837-1.343-1.504-1.769c-0.708-0.438-1.496-0.733-2.318-0.867l0,0
		c-0.637-0.106-0.991-0.195-1.132-0.354c-0.187-0.148-0.287-0.381-0.265-0.619c-0.025-0.238,0.075-0.473,0.265-0.619
		c0.315-0.147,0.66-0.22,1.008-0.212c0.159,0,0.991,0.106,2.424,0.212c1.387,0.141,2.781,0.206,4.175,0.195
		c2.264,0,4.423-0.088,6.581-0.301l0.672-0.106c0.282-0.001,0.556,0.092,0.778,0.265c0.152,0.15,0.241,0.353,0.248,0.566
		c0.02,0.234-0.072,0.464-0.248,0.619c-0.4,0.24-0.836,0.413-1.291,0.513c-0.463,0.106-0.913,0.261-1.344,0.46
		c-0.309,0.134-0.601,0.306-0.867,0.513c-0.528,0.373-0.939,0.888-1.185,1.486c-0.263,1.202-0.364,2.433-0.301,3.662v26.713
		c-0.053,1.299,0.084,2.598,0.407,3.857c0.315,0.789,0.873,1.458,1.592,1.911c0.696,0.462,1.489,0.758,2.318,0.867h0.106
		c0.414,0.041,0.816,0.161,1.185,0.354c0.165,0.141,0.256,0.349,0.248,0.566c0.032,0.251-0.061,0.502-0.248,0.672
		c-0.347,0.183-0.742,0.257-1.132,0.212c-0.672,0-1.769,0-3.308-0.212c-1.539-0.212-2.813-0.159-3.75-0.159
		c-2.044,0.002-4.087,0.108-6.121,0.318c-0.407,0-0.672,0-0.778,0c-0.269,0.007-0.534-0.067-0.761-0.212
		c-0.192-0.126-0.31-0.337-0.318-0.566c0-0.46,0.407-0.831,1.291-1.132c0.034-0.012,0.072-0.012,0.106,0
		c0.46-0.159,0.867-0.301,1.221-0.46c0.333-0.193,0.647-0.419,0.938-0.672c0.623-0.446,1.108-1.06,1.398-1.769
		c0.325-1.15,0.462-2.345,0.407-3.538 M385.557,117.065c-2.379,1.634-5.008,2.871-7.784,3.662c-3.065,0.843-6.233,1.254-9.412,1.221
		c-6.899,0-12.384-1.893-16.311-5.803c-3.927-3.91-6.033-9.164-6.033-15.922c-0.005-3.209,0.595-6.39,1.769-9.376
		c1.153-2.833,2.868-5.402,5.042-7.554c1.964-1.98,4.337-3.508,6.953-4.476c2.872-1.019,5.905-1.511,8.952-1.451
		c1.899-0.012,3.795,0.16,5.661,0.513c1.825,0.406,3.603,0.999,5.307,1.769c0.935,0.397,1.829,0.883,2.671,1.451
		c0.57,0.43,1.219,0.742,1.911,0.92c0.291-0.012,0.572-0.103,0.814-0.265c0.219-0.148,0.466-0.25,0.725-0.301
		c0.189-0.007,0.358,0.118,0.407,0.301c0.163,0.286,0.254,0.608,0.265,0.938l0.619,6.386c0.025,0.17,0.025,0.343,0,0.513
		c0.028,0.235,0.028,0.473,0,0.708c0.014,0.309-0.06,0.616-0.212,0.885c-0.124,0.153-0.317,0.233-0.513,0.212
		c-0.513,0-1.026-0.619-1.592-1.769c-0.425-0.831-0.725-1.504-1.026-1.964c-1.702-2.599-4.001-4.752-6.705-6.28
		c-2.567-1.472-5.479-2.235-8.439-2.211c-4.676-0.146-9.189,1.73-12.384,5.148c-3.282,3.724-4.994,8.574-4.777,13.534
		c-0.242,5.735,1.543,11.372,5.042,15.922c3.074,3.971,7.84,6.259,12.861,6.174c2.378,0.01,4.737-0.428,6.953-1.291
		c2.222-0.798,4.279-1.997,6.068-3.538c0.904-0.881,1.7-1.867,2.371-2.937c0.778-1.185,1.345-1.769,1.769-1.769
		c0.172,0.015,0.324,0.114,0.407,0.265c0.108,0.169,0.164,0.366,0.159,0.566c0.021,0.135,0.021,0.272,0,0.407
		c-0.009,0.215-0.063,0.426-0.159,0.619L385.557,117.065z M96.329,114.359c-0.026,0.594,0.028,1.189,0.159,1.769
		c0.06,0.313,0.245,0.588,0.513,0.761c1.215,0.746,2.559,1.256,3.963,1.504c1.912,0.415,3.864,0.623,5.82,0.619
		c1.328,0.005,2.653-0.101,3.963-0.318v2.017c-1.978,0.311-3.977,0.465-5.98,0.46c-2.105,0-4.423-0.106-6.953-0.212l-4.317-0.159
		c-1.312-0.008-2.622,0.116-3.91,0.372l-1.999,0.354c-0.278-0.006-0.548-0.092-0.778-0.248c-0.265-0.212-0.407-0.372-0.407-0.566
		c-0.01-0.259,0.101-0.507,0.301-0.672c0.395-0.262,0.832-0.453,1.291-0.566c0.123-0.015,0.243-0.051,0.354-0.106
		c0.459-0.164,0.894-0.39,1.291-0.672c0.532-0.485,0.939-1.092,1.185-1.769c0.269-1.021,0.388-2.076,0.354-3.131V84.974
		c0.052-1.093-0.129-2.184-0.531-3.202c-0.386-0.677-0.956-1.229-1.645-1.592c-0.557-0.279-1.154-0.47-1.769-0.566h-0.159
		c-0.391-0.04-0.773-0.142-1.132-0.301c-0.175-0.133-0.268-0.347-0.248-0.566c0.005-0.226,0.144-0.428,0.354-0.513
		c0.322-0.185,0.69-0.277,1.061-0.265c0,0,0.725,0,2.176,0.106s2.866,0.159,4.264,0.159c1.079,0,2.884,0,5.307-0.159
		s4.529-0.106,5.944-0.106c1.999-0.012,3.996,0.106,5.98,0.354v2.3c-2.629-0.745-5.352-1.108-8.085-1.079
		c-1.753-0.151-3.518,0.116-5.148,0.778c-0.912,0.79-1.359,1.99-1.185,3.184L96.329,114.359z"/>
	<path class="st0" d="M6.99,7.559v57.549h60.662V1.172H0.426v134.646h67.225v-2.777H3.434V4.021H67.51v3.538H6.99z M55.834,25.48
		c-0.134,0.149-0.332,0.222-0.531,0.195c-0.46,0-0.973-0.619-1.486-1.769c-0.286-0.684-0.611-1.352-0.973-1.999
		c-1.578-2.552-3.728-4.702-6.28-6.28c-6.366-3.788-14.524-2.535-19.46,2.99c-3.114,3.804-4.714,8.623-4.493,13.534
		c-0.267,5.691,1.405,11.304,4.741,15.922c2.747,3.89,7.233,6.179,11.994,6.121c2.221-0.017,4.418-0.455,6.475-1.291
		c2.117-0.845,4.055-2.081,5.714-3.644c0.867-0.854,1.612-1.824,2.211-2.884c0.725-1.238,1.238-1.769,1.592-1.769
		c0.157-0.021,0.309,0.066,0.372,0.212c0.115,0.179,0.171,0.389,0.159,0.601c0.019,0.123,0.019,0.248,0,0.372
		c-0.01,0.21-0.045,0.418-0.106,0.619l-1.238,5.042c-2.203,1.647-4.675,2.898-7.306,3.697c-2.869,0.859-5.851,1.276-8.845,1.238
		c-5.717,0.3-11.296-1.819-15.373-5.838c-3.891-4.363-5.906-10.083-5.608-15.922c-0.028-3.194,0.529-6.366,1.645-9.358
		c1.022-2.833,2.611-5.427,4.67-7.625c1.833-1.91,4.044-3.416,6.493-4.423c2.695-1.02,5.557-1.524,8.439-1.486
		c1.784-0.004,3.564,0.186,5.307,0.566c1.731,0.379,3.42,0.93,5.042,1.645c0.854,0.417,1.675,0.896,2.459,1.433
		c0.514,0.45,1.117,0.787,1.769,0.991c0.281-0.042,0.548-0.151,0.778-0.318c0.207-0.123,0.435-0.207,0.672-0.248
		c0.179,0.022,0.334,0.136,0.407,0.301c0.121,0.298,0.187,0.616,0.195,0.938l0.566,6.369c0.025,0.17,0.025,0.343,0,0.513
		c0.03,0.241,0.03,0.484,0,0.725c0.021,0.285-0.028,0.57-0.142,0.831"/>
	<path class="st0" d="M6.777,68.451v60.874H67.51l0.159,3.715v-64.59H6.777z M63.548,117.897c-0.312,0.179-0.666,0.271-1.026,0.265
		l-2.884-0.106c-1.398-0.106-2.565-0.159-3.538-0.159c-0.965-0.005-1.929,0.066-2.884,0.212l-1.592,0.159
		c-0.235,0.015-0.469-0.041-0.672-0.159c-0.172-0.111-0.267-0.309-0.248-0.513c-0.007-0.232,0.082-0.456,0.248-0.619
		c0.279-0.275,0.638-0.455,1.026-0.513c0.106,0,0.212,0,0.318-0.106l0.407-0.195c0.626-0.272,1.126-0.771,1.398-1.398
		c0.338-0.922,0.476-1.904,0.407-2.884v-1.185c0-0.566,0-1.026,0-1.327l-0.354-19.46c-0.014-0.777-0.085-1.551-0.212-2.318
		c-0.159-0.46-0.301-0.672-0.513-0.672s-0.46,0.159-0.778,0.513c-0.329,0.489-0.619,1.004-0.867,1.539l-13.074,26.536
		c-0.169,0.408-0.395,0.789-0.672,1.132c-0.18,0.179-0.419,0.285-0.672,0.301c-0.278-0.003-0.539-0.133-0.708-0.354
		c-0.296-0.3-0.509-0.672-0.619-1.079L23.248,88.406c-0.105-0.208-0.223-0.409-0.354-0.601c-0.159-0.159-0.265-0.212-0.354-0.212
		s-0.425,0.566-0.531,1.769c-0.106,1.203-0.248,3.538-0.354,6.74l-0.318,8.191c0,0.708,0,1.433,0,2.211v3.131
		c-0.078,1.425,0.077,2.853,0.46,4.228c0.357,0.841,0.978,1.542,1.769,1.999c0.545,0.316,1.146,0.526,1.769,0.619l0,0h0.088
		c0.885,0.212,1.345,0.566,1.345,0.973c0.007,0.243-0.132,0.466-0.354,0.566c-0.282,0.169-0.61,0.243-0.938,0.212
		c-0.38,0-0.759-0.035-1.132-0.106c-1.946-0.159-3.804-0.265-5.555-0.265c-0.848-0.006-1.695,0.065-2.53,0.212l-1.38,0.159
		c-0.246-0.017-0.481-0.11-0.672-0.265c-0.197-0.167-0.308-0.414-0.301-0.672c0.009-0.163,0.057-0.321,0.142-0.46
		c0.082-0.123,0.191-0.226,0.318-0.301c0.106,0,0.159,0,0.195,0c0.087-0.02,0.178-0.02,0.265,0c0.783-0.24,1.515-0.624,2.158-1.132
		c0.404-0.405,0.675-0.923,0.778-1.486c0.724-3.144,1.156-6.348,1.291-9.571c0.407-5.095,0.619-10.615,0.619-16.629
		c0.061-2.208-0.201-4.413-0.778-6.546c-0.402-1.411-1.253-2.653-2.424-3.538c-0.401-0.285-0.86-0.479-1.345-0.566
		c-0.028-0.013-0.06-0.013-0.088,0h-0.106c-0.725-0.212-1.079-0.566-1.079-0.973c-0.016-0.26,0.097-0.511,0.301-0.672
		c0.282-0.169,0.61-0.243,0.938-0.212l1.433,0.106c0.778,0,1.486,0.106,2.052,0.106h0.531c0.1-0.011,0.201-0.011,0.301,0h0.478
		c1.161-0.141,2.288,0.451,2.831,1.486l0,0l15.09,31.844c0.094,0.215,0.233,0.408,0.407,0.566c0.097,0.126,0.248,0.199,0.407,0.195
		c0.162,0.018,0.32-0.057,0.407-0.195c0.179-0.209,0.339-0.434,0.478-0.672l15.922-32.215c0.066-0.06,0.12-0.132,0.159-0.212
		c0.241-0.58,0.824-0.943,1.451-0.902h1.274c0.619,0,1.291,0,2.017-0.106c0.725-0.106,1.238-0.159,1.38-0.159
		c0.344-0.027,0.688,0.046,0.991,0.212c0.193,0.147,0.305,0.377,0.301,0.619c0,0.407-0.354,0.761-1.132,0.973
		c-0.314,0.034-0.623,0.105-0.92,0.212c-0.232,0.067-0.444,0.188-0.619,0.354c-0.59,0.346-1.059,0.865-1.345,1.486
		c-0.332,0.856-0.47,1.774-0.407,2.689v0.796l0.619,27.58v0.425c0,3.025,0.814,4.883,2.211,5.608
		c0.405,0.16,0.818,0.295,1.238,0.407c0,0,0.142,0,0.195,0.106c0.778,0.212,1.132,0.46,1.132,0.831
		c0.028,0.257-0.116,0.501-0.354,0.601"/>
	<path class="st1" d="M686.444,66.806h-0.407c-1.138-1.734-3.041-2.814-5.113-2.901c-2.866,0-4.812,2.724-4.812,7.218
		c0,6.015,3.237,9.588,8.279,9.588c1.381-0.048,2.747-0.304,4.051-0.761l0.407,1.061c-2.333,1.625-5.14,2.428-7.979,2.282
		c-3.123,0.03-6.114-1.254-8.244-3.538c-1.466-1.748-2.257-3.964-2.229-6.245c-0.076-2.752,0.841-5.44,2.583-7.572
		c2.312-2.657,5.659-4.185,9.182-4.193c2.111-0.177,4.223,0.338,6.015,1.468C687.988,64.563,687.382,65.818,686.444,66.806z"/>
	<path class="st1" d="M710.292,79.861c-4.383,4.044-10.967,4.556-15.922,1.238c-0.834-0.619-1.553-1.379-2.123-2.247
		c-1.154-1.835-1.733-3.972-1.663-6.139c-0.04-2.238,0.575-4.44,1.769-6.333c2.178-3.102,5.784-4.881,9.571-4.723
		c6.457,0,11.092,3.75,11.092,10.385C713.148,74.902,712.172,77.703,710.292,79.861z M706.223,78.747
		c0.761-1.819,1.129-3.778,1.079-5.75c0.094-2.299-0.348-4.588-1.291-6.687c-0.788-1.828-2.61-2.991-4.6-2.937
		c-1.908,0.041-3.582,1.282-4.175,3.096c-0.656,1.691-0.974,3.494-0.938,5.307c-0.042,2.072,0.319,4.133,1.061,6.068
		c0.659,2.132,2.583,3.624,4.812,3.733c1.835,0.024,3.486-1.11,4.122-2.831H706.223z"/>
	<path class="st1" d="M724.639,64.258c1.947-1.725,4.476-2.648,7.076-2.583c4.777,0,6.723,2.848,6.723,7.855v9.323
		c0,1.203,0.177,1.769,0.495,2.088c0.318,0.318,0.796,0.46,2.282,0.548v1.15h-10.88v-1.15c1.769,0,1.999-0.265,2.318-0.584
		c0.4-0.689,0.556-1.493,0.442-2.282v-7.607c0-3.786-0.796-6.776-4.635-6.74c-1.433,0.014-2.787,0.662-3.697,1.769v12.808
		c0,1.221,0.177,1.769,0.495,2.052c0.318,0.283,0.885,0.46,2.264,0.548v1.15h-10.774v-1.15c1.38,0,1.964-0.23,2.229-0.548
		c0.381-0.709,0.536-1.518,0.442-2.318V67.513c0-2.318-0.407-3.202-1.344-3.202c-0.483,0.015-0.96,0.104-1.415,0.265v-1.291
		c2.583-0.909,5.28-1.451,8.014-1.61L724.639,64.258z"/>
	<path class="st1" d="M763.948,79.861c-2.304,2.285-5.443,3.525-8.686,3.432c-2.597,0.076-5.149-0.694-7.271-2.194
		c-0.818-0.625-1.524-1.385-2.087-2.247c-1.148-1.836-1.721-3.974-1.645-6.139c-0.04-2.238,0.575-4.44,1.769-6.333
		c2.188-3.099,5.798-4.878,9.589-4.723c6.457,0,11.092,3.75,11.092,10.385C766.828,74.906,765.84,77.707,763.948,79.861z
		 M759.897,78.747c0.754-1.821,1.116-3.78,1.061-5.75c0.094-2.299-0.348-4.588-1.291-6.687c-0.782-1.825-2.597-2.988-4.582-2.937
		c-1.913,0.039-3.593,1.279-4.193,3.096c-0.656,1.691-0.974,3.494-0.938,5.307c-0.045,2.074,0.321,4.137,1.079,6.068
		c0.619,2.156,2.553,3.669,4.794,3.75C757.645,81.584,759.265,80.45,759.897,78.747z"/>
	<path class="st1" d="M786.327,66.806h-0.425c-1.138-1.734-3.041-2.814-5.113-2.901c-2.866,0-4.812,2.724-4.812,7.218
		c0,6.015,3.237,9.588,8.279,9.588c1.381-0.048,2.747-0.304,4.051-0.761l0.407,1.061c-2.333,1.625-5.14,2.428-7.979,2.282
		c-3.123,0.03-6.114-1.254-8.244-3.538c-1.466-1.748-2.257-3.964-2.229-6.245c-0.076-2.752,0.841-5.44,2.583-7.572
		c2.312-2.657,5.66-4.185,9.182-4.193c2.111-0.177,4.223,0.338,6.015,1.468C787.858,64.56,787.258,65.816,786.327,66.806z"/>
	<path class="st1" d="M798.41,78.853c-0.103,0.742,0.067,1.496,0.478,2.123c0.318,0.318,0.938,0.46,2.282,0.548v1.15h-10.88v-1.15
		c1.433,0,2.017-0.265,2.318-0.584c0.4-0.689,0.556-1.493,0.442-2.282V67.566c0-2.318-0.389-3.255-1.327-3.255
		c-0.491-0.009-0.978,0.081-1.433,0.265v-1.291c2.618-0.915,5.351-1.457,8.12-1.61V78.853z M795.42,57.978
		c-1.724-0.13-3.017-1.633-2.887-3.358c0.116-1.544,1.343-2.771,2.887-2.887c1.702,0.009,3.085,1.376,3.114,3.078
		c0.049,1.699-1.289,3.117-2.988,3.166C795.504,57.978,795.462,57.978,795.42,57.978z"/>
	<path class="st1" d="M812.227,64.311c1.732-1.646,4.016-2.586,6.404-2.636c2.302-0.259,4.551,0.811,5.803,2.76
		c1.822-1.754,4.247-2.742,6.776-2.76c1.974-0.171,3.92,0.55,5.307,1.964c1.203,1.291,1.769,3.538,1.769,7.572v7.855
		c0,2.406,0.938,2.176,2.76,2.406v1.15h-10.88v-1.15c1.521,0,2.017-0.265,2.318-0.584c0.4-0.689,0.556-1.493,0.442-2.282v-7.395
		c0-3.963-0.743-6.899-4.228-6.953c-1.422-0.043-2.786,0.57-3.697,1.663c0.156,0.686,0.245,1.385,0.265,2.088v10.845
		c0,1.185,0.177,1.769,0.495,2.123c0.318,0.354,0.938,0.46,2.264,0.548v1.15h-10.809v-1.15c1.468,0,1.999-0.265,2.318-0.584
		c0.388-0.694,0.543-1.494,0.442-2.282v-9.005c0.077-1.31-0.198-2.617-0.796-3.786c-0.727-1.053-1.942-1.66-3.22-1.61
		c-1.414,0.032-2.744,0.678-3.644,1.769v12.826c-0.103,0.742,0.067,1.496,0.478,2.123c0.318,0.318,0.938,0.46,2.282,0.548v1.15
		h-10.791v-1.15c2.371-0.177,2.671-0.372,2.671-2.866V67.566c0-2.318-0.389-3.255-1.327-3.255c-0.488,0.015-0.972,0.104-1.433,0.265
		v-1.291c2.588-0.911,5.292-1.453,8.032-1.61V64.311z"/>
	<path class="st1" d="M852.067,78.853c0,1.185,0.177,1.769,0.495,2.123s0.938,0.46,2.264,0.548v1.15h-10.862v-1.15
		c1.415,0,1.999-0.265,2.318-0.584c0.388-0.694,0.543-1.494,0.442-2.282V67.566c0-2.318-0.407-3.255-1.344-3.255
		c-0.485-0.009-0.967,0.081-1.415,0.265v-1.291c2.611-0.917,5.339-1.459,8.102-1.61L852.067,78.853z M849.077,57.978
		c-1.724-0.13-3.017-1.633-2.887-3.358c0.116-1.544,1.343-2.771,2.887-2.887c1.709,0,3.102,1.37,3.131,3.078
		c0.039,1.709-1.315,3.127-3.024,3.166C849.148,57.978,849.113,57.978,849.077,57.978z"/>
	<path class="st1" d="M863.601,73.227c0.849,5.024,3.627,7.483,7.943,7.483c1.715-0.019,3.399-0.463,4.9-1.291l0.442,1.026
		c-2.404,1.9-5.393,2.906-8.456,2.848c-2.774,0.055-5.463-0.965-7.501-2.848c-1.995-2.045-3.058-4.823-2.937-7.678
		c-0.081-2.942,0.992-5.8,2.99-7.961c1.876-2.008,4.505-3.143,7.253-3.131c5.007,0,7.979,2.318,8.845,7.271
		C872.737,70.805,868.222,72.238,863.601,73.227z M871.668,69.212c-0.389-3.839-1.999-5.838-4.44-5.838
		c-1.478,0.102-2.721,1.145-3.078,2.583c-0.57,1.661-0.846,3.41-0.814,5.166C866.157,70.692,868.942,70.054,871.668,69.212z"/>
	<path class="st1" d="M887.236,64.258c1.947-1.725,4.476-2.648,7.076-2.583c4.759,0,6.723,2.848,6.723,7.855v9.323
		c0,1.203,0.177,1.769,0.495,2.088c0.319,0.318,0.796,0.46,2.265,0.548v1.15h-10.862v-1.15c1.681,0,1.999-0.265,2.318-0.584
		c0.388-0.694,0.543-1.494,0.442-2.282v-7.607c0-3.786-0.814-6.776-4.635-6.74c-1.433,0.014-2.787,0.662-3.697,1.769v12.808
		c0,1.221,0.177,1.769,0.495,2.052c0.319,0.283,0.885,0.46,2.265,0.548v1.15h-10.792v-1.15c1.38,0,1.964-0.23,2.229-0.548
		c0.39-0.706,0.545-1.518,0.442-2.318V67.513c0-2.318-0.389-3.202-1.327-3.202c-0.488,0.015-0.972,0.104-1.433,0.265v-1.291
		c2.588-0.911,5.292-1.453,8.032-1.61L887.236,64.258z"/>
	<path class="st1" d="M914.463,56.916c-0.212,1.291-0.531,4.67-0.531,5.431l4.847,0.442v1.168c-1.592,0.177-3.025,0.354-4.847,0.389
		v9.093c-0.187,1.92,0.073,3.858,0.761,5.661c0.604,1.102,1.81,1.736,3.061,1.61c0.776,0.021,1.549-0.099,2.282-0.354l0.318,1.15
		c-2.016,1.134-4.285,1.743-6.599,1.769c-1.716,0.148-3.37-0.679-4.281-2.141c-0.699-1.522-1.003-3.195-0.885-4.865V64.347
		c-1.026-0.124-2.494-0.212-3.397-0.389V62.79c0.849-0.177,2.318-0.265,3.397-0.442v-1.911c1.621-1.473,3.401-2.761,5.307-3.839
		L914.463,56.916z"/>
	<path class="st1" d="M941.388,79.861c-4.383,4.044-10.967,4.556-15.922,1.238c-0.834-0.619-1.553-1.379-2.123-2.247
		c-1.154-1.835-1.734-3.972-1.663-6.139c-0.04-2.238,0.575-4.44,1.769-6.333c2.178-3.102,5.784-4.881,9.571-4.723
		c6.457,0,11.092,3.75,11.092,10.385C944.244,74.902,943.268,77.703,941.388,79.861z M937.319,78.747
		c0.761-1.819,1.128-3.778,1.079-5.75c0.094-2.299-0.348-4.588-1.291-6.687c-0.788-1.828-2.61-2.991-4.6-2.937
		c-1.908,0.041-3.582,1.282-4.175,3.096c-0.656,1.691-0.974,3.494-0.938,5.307c-0.042,2.072,0.319,4.133,1.061,6.068
		c0.66,2.132,2.583,3.624,4.812,3.733C935.077,81.572,936.692,80.443,937.319,78.747z"/>
	<path class="st1" d="M686.444,14.9c0.268,1.298,0.405,2.62,0.407,3.945c0,0.902,0,1.079,0,1.486l-0.885,0.159
		c-0.495-2.583-0.831-3.202-1.274-3.662c-0.442-0.46-1.557-0.885-4.281-0.885h-3.68v10.243h3.945c1.663,0,2.371-0.159,2.671-0.46
		s0.407-0.442,0.672-2.371h0.973v6.687h-0.973c-0.177-1.362-0.265-2.07-0.672-2.371s-0.637-0.442-2.937-0.442h-3.68v10.721
		c1.343,0.297,2.712,0.457,4.087,0.478c1.299,0.042,2.596-0.131,3.839-0.513c2.388-0.902,2.636-2.689,3.167-4.777l0.92,0.159
		c-0.126,2.104-0.537,4.181-1.221,6.174H670.47v-0.814c0.757,0.013,1.51-0.101,2.229-0.336c0.531-0.301,0.566-1.574,0.566-3.167
		V19.925c0-2.724-0.106-3.237-0.301-3.538c-0.195-0.301-0.442-0.478-2.494-0.637v-0.814L686.444,14.9z"/>
	<path class="st1" d="M696.458,36.165c0,1.327,0.195,1.893,0.531,2.123c0.646,0.216,1.319,0.341,1.999,0.372v0.814h-8.297v-0.814
		c0.655-0.023,1.304-0.136,1.928-0.336c0.46-0.23,0.602-0.938,0.602-2.282V18.35c0.019-0.915-0.016-1.831-0.106-2.742
		c-0.124-0.938-0.46-1.574-1.238-1.574c-0.372,0-0.708,0.088-1.079,0.124l-0.106-0.831c0.336,0,1.15-0.212,2.53-0.372
		s2.459-0.212,3.237-0.212L696.458,36.165z"/>
	<path class="st1" d="M733.98,21.375l-1.008,0.23c-0.584-3.361-2.264-6.033-7.218-6.033c-6.033,0-9.942,3.945-9.942,10.986
		c-0.075,2.762,0.61,5.491,1.981,7.89c1.61,2.794,4.633,4.468,7.855,4.352c1.561,0.067,3.111-0.281,4.494-1.008
		c2.088-1.256,2.689-2.866,3.768-5.732l1.008,0.23c-0.175,2.174-0.694,4.305-1.539,6.316c-2.438,0.963-5.039,1.444-7.66,1.415
		c-4.126,0.274-8.166-1.271-11.057-4.228c-1.921-2.415-2.902-5.444-2.76-8.527c-0.102-2.904,0.79-5.757,2.53-8.085
		c2.855-3.234,7.012-5.013,11.322-4.847c2.605-0.104,5.197,0.425,7.554,1.539C733.716,17.68,733.941,19.523,733.98,21.375z"/>
	<path class="st1" d="M753.67,36.236c-3.227,4.224-9.266,5.032-13.49,1.805c-0.54-0.413-1.035-0.881-1.477-1.398
		c-1.058-1.564-1.603-3.419-1.557-5.307c-0.055-2.143,0.612-4.243,1.893-5.962c1.761-2.193,4.442-3.442,7.253-3.379
		c4.569-0.355,8.56,3.062,8.914,7.63c0.024,0.31,0.031,0.621,0.02,0.932C755.281,32.562,754.739,34.538,753.67,36.236z
		 M751.901,31.548c0.097-2.014-0.381-4.015-1.38-5.767c-0.975-1.647-2.776-2.626-4.688-2.547c-1.765-0.037-3.389,0.958-4.157,2.547
		c-0.837,1.639-1.233,3.468-1.15,5.307c-0.053,1.963,0.51,3.893,1.61,5.52c1.037,1.459,2.74,2.297,4.529,2.229
		c3.167-0.106,5.148-2.972,5.148-7.289H751.901z"/>
	<path class="st1" d="M763.984,36.165c0,1.327,0.177,1.893,0.513,2.123c0.653,0.214,1.331,0.339,2.017,0.372v0.814h-8.297v-0.814
		c0.655-0.025,1.304-0.138,1.928-0.336c0.442-0.23,0.601-0.938,0.601-2.282V18.35c0.022-0.916-0.019-1.832-0.124-2.742
		c-0.106-0.938-0.442-1.574-1.221-1.574c-0.372,0-0.708,0.088-1.079,0.124l-0.106-0.831c0.318,0,1.15-0.212,2.53-0.372
		c1.38-0.159,2.459-0.212,3.237-0.212V36.165z"/>
	<path class="st1" d="M772.794,31.583c0.176,2.066,1.17,3.976,2.76,5.307c1.206,0.925,2.691,1.412,4.21,1.38
		c1.487-0.011,2.943-0.426,4.21-1.203l0.442,0.867c-1.897,1.361-4.176,2.086-6.51,2.07c-4.458,0.247-8.273-3.166-8.52-7.625
		c-0.014-0.247-0.016-0.495-0.007-0.743c-0.055-2.017,0.474-4.007,1.521-5.732c1.525-2.443,4.197-3.932,7.076-3.945
		c3.538,0,5.696,1.769,6.546,5.626C780.775,29.351,776.84,30.692,772.794,31.583z M781.215,27.815
		c-0.708-3.273-2.088-4.547-4.317-4.547s-4.034,2.547-4.104,6.669C775.648,29.433,778.462,28.723,781.215,27.815z"/>
	<path class="st1" d="M803.399,23.427v0.584c-0.902,0.177-2.601,0.336-3.538,0.442c0.667,0.873,1.021,1.944,1.008,3.043
		c0,3.839-2.99,5.997-7.306,5.997c-0.5-0.002-0.999-0.061-1.486-0.177c-1.521,0.584-1.928,1.079-1.928,1.769
		c0,1.486,2.194,1.592,4.087,1.592h2.353c3.538,0,6.44,1.557,6.44,4.847c0,4.051-3.945,6.687-9.872,6.687
		c-4.21,0-7.076-2.123-7.076-5.095c0-1.769,1.38-3.237,4.21-4.175l0,0c-1.769-0.548-3.008-1.557-3.008-2.866
		c0-1.309,2.565-2.424,3.344-3.007c-2.335-0.406-4.007-2.48-3.91-4.847c0-3.98,3.096-6.174,7.589-6.174
		c1.565,0.066,3.122,0.267,4.653,0.601L803.399,23.427z M800.162,42.516c0-2.229-2.087-3.379-5.997-3.379
		c-2.459,0-4.847,0.566-4.847,3.131c-0.004,1.279,0.544,2.498,1.504,3.344c1.073,0.966,2.485,1.469,3.927,1.398
		c2.712,0.274,5.133-1.703,5.406-4.416C800.157,42.568,800.159,42.542,800.162,42.516L800.162,42.516z M797.667,28.045
		c0-2.972-1.345-4.777-3.804-4.777c-2.459,0-3.715,1.769-3.715,4.547c-0.285,2.19,1.26,4.196,3.449,4.48
		c0.123,0.016,0.248,0.026,0.372,0.031c2.119-0.064,3.785-1.834,3.721-3.953C797.688,28.263,797.68,28.154,797.667,28.045
		L797.667,28.045z"/>
	<path class="st1" d="M810.352,36.041c0,1.946,0.23,2.318,1.309,2.459l1.221,0.159v0.814h-8.297v-0.814
		c0.708-0.124,1.274-0.124,1.645-0.23c0.743-0.23,0.885-0.814,0.885-2.494v-8.598c0-3.061-0.301-3.432-1.044-3.432
		c-0.451,0.037-0.896,0.126-1.327,0.265l-0.159-0.902c1.864-0.66,3.8-1.094,5.767-1.291V36.041z M808.353,17.731
		c-1.153,0-2.088-0.935-2.088-2.088c0-1.153,0.935-2.088,2.088-2.088c1.153,0,2.088,0.935,2.088,2.088
		C810.44,16.796,809.505,17.731,808.353,17.731L808.353,17.731z"/>
	<path class="st1" d="M832.2,36.236c-1.72,2.472-4.58,3.898-7.589,3.786c-2.861,0.134-5.61-1.125-7.377-3.379
		c-1.051-1.568-1.595-3.42-1.557-5.307c-0.055-2.143,0.612-4.243,1.893-5.962c1.759-2.198,4.439-3.453,7.253-3.397
		c4.579-0.344,8.57,3.089,8.915,7.668c0.022,0.298,0.029,0.596,0.019,0.895C833.815,32.55,833.273,34.533,832.2,36.236z
		 M830.342,31.548c0.101-1.999-0.365-3.986-1.345-5.732c-0.972-1.65-2.775-2.63-4.688-2.547c-1.721-0.011-3.296,0.965-4.051,2.512
		c-0.837,1.639-1.233,3.468-1.15,5.307c-0.059,1.961,0.498,3.891,1.592,5.52c1.041,1.465,2.751,2.304,4.547,2.229
		C828.361,38.73,830.342,35.864,830.342,31.548L830.342,31.548z"/>
	<path class="st1" d="M849.962,31.583c0.163,2.07,1.159,3.985,2.76,5.307c1.2,0.923,2.679,1.409,4.193,1.38
		c1.487-0.008,2.944-0.424,4.21-1.203l0.442,0.867c-1.896,1.363-4.175,2.088-6.51,2.07c-4.458,0.247-8.273-3.166-8.52-7.625
		c-0.014-0.247-0.016-0.495-0.007-0.743c-0.048-2.019,0.486-4.009,1.539-5.732c1.523-2.445,4.196-3.936,7.076-3.945
		c3.538,0,5.696,1.769,6.563,5.626C857.954,29.352,854.014,30.693,849.962,31.583z M858.435,27.815
		c-0.708-3.273-2.07-4.547-4.317-4.547c-2.247,0-4.016,2.547-4.087,6.669C852.881,29.433,855.689,28.724,858.435,27.815z"/>
	<path class="st1" d="M873.738,27.549h-1.15c0.15-2.156-1.397-4.059-3.538-4.352c-1.309-0.019-2.386,1.027-2.405,2.336
		c-0.002,0.106,0.004,0.212,0.017,0.318c0,1.999,1.769,2.742,4.281,3.91s3.998,2.707,3.998,5.06c0,3.237-2.494,5.201-6.493,5.201
		c-1.628,0.032-3.238-0.339-4.688-1.079c-0.493-1.616-0.731-3.299-0.708-4.989h1.008c1.008,3.291,2.565,4.847,4.989,4.847
		c1.488-0.039,2.666-1.272,2.636-2.76c0-1.893-0.991-2.972-4.087-4.281c-0.951-0.369-1.84-0.882-2.636-1.521
		c-1.025-0.883-1.592-2.186-1.539-3.538c0-2.831,2.424-4.723,5.962-4.723c1.393-0.036,2.765,0.339,3.945,1.079
		C873.68,24.527,873.817,26.04,873.738,27.549z"/>
	<path class="st1" d="M686.692,105.053h-0.407c-1.158-1.761-3.095-2.855-5.201-2.937c-2.901,0-4.883,2.76-4.883,7.324
		c0,6.103,3.29,9.73,8.403,9.73c1.404-0.048,2.793-0.304,4.122-0.761l0.407,1.079c-2.376,1.633-5.223,2.441-8.102,2.3
		c-3.174,0.004-6.203-1.325-8.35-3.662c-1.489-1.772-2.293-4.019-2.264-6.333c-0.076-2.796,0.853-5.526,2.618-7.696
		c2.349-2.695,5.748-4.243,9.323-4.246c2.147-0.175,4.293,0.346,6.121,1.486C688.288,102.733,687.663,104.033,686.692,105.053z"/>
	<path class="st1" d="M698.952,117.225c-0.1,0.761,0.076,1.533,0.495,2.176c0.318,0.318,0.955,0.442,2.318,0.531v1.185h-11.039
		v-1.185c1.451,0,2.034-0.265,2.353-0.584s0.442-1.079,0.442-2.3v-11.234c0-2.353-0.407-3.291-1.345-3.291
		c-0.497-0.011-0.99,0.079-1.451,0.265v-1.309c2.651-0.93,5.421-1.478,8.226-1.628L698.952,117.225z M695.927,95.996
		c-1.749,0-3.167-1.418-3.167-3.167s1.418-3.167,3.167-3.167c1.735,0,3.147,1.396,3.167,3.131c0.098,1.717-1.214,3.188-2.931,3.286
		c-0.078,0.004-0.157,0.006-0.236,0.005V95.996z"/>
	<path class="st1" d="M710.681,111.564c0.867,5.113,3.662,7.607,8.049,7.607c1.745-0.02,3.459-0.469,4.989-1.309l0.442,1.044
		c-2.443,1.932-5.484,2.952-8.598,2.884c-2.778,0.039-5.464-0.994-7.501-2.884c-2.037-2.065-3.12-4.886-2.99-7.784
		c-0.096-2.987,0.977-5.894,2.99-8.102c1.916-2.029,4.586-3.176,7.377-3.167c5.06,0,8.102,2.353,8.845,7.377
		C719.901,109.109,715.345,110.561,710.681,111.564z M718.872,107.495c-0.407-3.892-2.034-5.926-4.529-5.926
		c-1.486,0.129-2.731,1.176-3.114,2.618c-0.593,1.705-0.869,3.503-0.814,5.307C713.281,109.041,716.107,108.373,718.872,107.495
		L718.872,107.495z"/>
	<path class="st1" d="M734.599,102.47c1.946-1.731,4.472-2.665,7.076-2.618c4.847,0,6.829,2.901,6.829,7.961v9.465
		c0,1.221,0.177,1.769,0.495,2.123c0.318,0.354,0.814,0.442,2.318,0.531v1.185h-11.039v-1.185c1.769,0,2.034-0.265,2.353-0.584
		c0.318-0.318,0.442-1.079,0.442-2.3v-7.749c0-3.839-0.814-6.864-4.706-6.829c-1.45,0.008-2.822,0.655-3.75,1.769v13.127
		c0,1.221,0.177,1.769,0.495,2.088s0.902,0.442,2.318,0.531v1.185h-10.968v-1.185c1.415,0,1.999-0.212,2.264-0.531
		c0.397-0.716,0.558-1.54,0.46-2.353v-11.322c0-2.353-0.407-3.255-1.362-3.255c-0.494,0.014-0.983,0.104-1.451,0.265v-1.309
		c2.628-0.924,5.374-1.472,8.156-1.628L734.599,102.47z"/>
	<path class="st1" d="M770.476,105.053h-0.495c-1.156-1.763-3.094-2.858-5.201-2.937c-2.884,0-4.883,2.76-4.883,7.324
		c0,6.103,3.308,9.73,8.421,9.73c1.404-0.048,2.793-0.304,4.122-0.761l0.407,1.079c-2.377,1.631-5.223,2.439-8.102,2.3
		c-3.182,0.017-6.222-1.313-8.368-3.662c-1.496-1.768-2.301-4.018-2.264-6.333c-0.083-2.797,0.846-5.53,2.618-7.696
		c2.349-2.695,5.748-4.243,9.323-4.246c2.141-0.176,4.282,0.345,6.103,1.486C771.998,102.722,771.411,104.021,770.476,105.053z"/>
	<path class="st1" d="M782.736,117.225c0,1.221,0.177,1.769,0.495,2.176s0.955,0.442,2.3,0.531v1.185h-11.039v-1.185
		c1.451,0,2.034-0.265,2.353-0.584c0.41-0.692,0.573-1.503,0.46-2.3v-11.234c0-2.353-0.407-3.291-1.362-3.291
		c-0.496-0.008-0.989,0.082-1.451,0.265v-1.309c2.658-0.928,5.433-1.476,8.244-1.628V117.225z M779.693,95.996
		c-1.749,0-3.167-1.418-3.167-3.167s1.418-3.167,3.167-3.167c1.738,0,3.155,1.393,3.184,3.131c0.088,1.727-1.24,3.199-2.967,3.287
		c-0.072,0.004-0.145,0.005-0.217,0.004V95.996z"/>
	<path class="st1" d="M805.911,114.872c0,3.75,0.938,5.201,2.795,5.307c0.152,0.026,0.308,0.026,0.46,0l0.141,0.584
		c-1.17,0.726-2.516,1.117-3.892,1.132c-1.811,0.214-3.57-0.697-4.44-2.3c-1.76,1.49-3.992,2.305-6.298,2.3
		c-3.538,0-5.927-2.034-5.927-4.918c0-3.184,2.353-5.573,8.156-7.289c1.026-0.318,2.3-0.637,3.538-0.955v-0.991
		c0-3.804-1.451-5.166-3.945-5.166s-4.122,1.362-5.307,4.476h-0.46c-0.554-0.679-0.969-1.46-1.221-2.3
		c2.376-2.956,5.938-4.711,9.73-4.794c4.759,0,6.705,1.769,6.705,7.784L805.911,114.872z M800.604,118.092
		c-0.177-1.769-0.177-2.176-0.177-2.264v-5.13h-0.584c-2.654-0.264-5.02,1.673-5.285,4.327c-0.013,0.126-0.02,0.252-0.023,0.379
		c-0.206,1.884,1.155,3.578,3.04,3.784c0.101,0.011,0.202,0.018,0.304,0.02c1.033-0.007,2.026-0.405,2.777-1.115H800.604z"/>
	<path class="st1" d="M833.155,100.524v1.185c-2.3,0.407-3.255,0.584-3.255,1.132c0.068,0.708,0.266,1.398,0.584,2.034l4.264,10.809
		l4.016-11.181c0.217-0.535,0.371-1.093,0.46-1.663c0-0.23-0.177-0.407-0.601-0.548c-0.868-0.262-1.755-0.458-2.654-0.584v-1.185
		h8.845v1.185c-1.504,0.318-1.769,0.619-2.264,1.221c-0.871,1.264-1.584,2.631-2.123,4.069l-6.528,15.303
		c-0.495,1.168-0.991,2.353-1.521,3.538c-1.681,3.662-4.034,6.21-7.66,6.21c-0.414-0.009-0.825-0.074-1.221-0.195
		c0.076-0.967,0.322-1.913,0.725-2.795c1.249-1.179,2.707-2.115,4.299-2.76c2.087-1.132,3.131-2.406,3.131-3.892
		c-0.022-0.506-0.087-1.009-0.195-1.504c-0.245-0.956-0.595-1.881-1.044-2.76l-6.51-14.701c-0.442-1.044-1.398-1.274-2.848-1.769
		v-1.185L833.155,100.524z"/>
	<path class="st1" d="M874.357,105.053h-0.407c-1.184-1.787-3.165-2.883-5.307-2.937c-2.884,0-4.883,2.76-4.883,7.324
		c0,6.103,3.308,9.73,8.421,9.73c1.404-0.048,2.793-0.304,4.122-0.761l0.407,1.079c-2.376,1.633-5.223,2.441-8.102,2.3
		c-3.181,0.013-6.219-1.317-8.368-3.662c-1.496-1.768-2.301-4.018-2.264-6.333c-0.076-2.796,0.853-5.526,2.618-7.696
		c2.349-2.695,5.748-4.243,9.323-4.246c2.142-0.176,4.282,0.345,6.103,1.486C875.874,102.722,875.291,104.022,874.357,105.053z"/>
	<path class="st1" d="M885.432,112.784c0,4.529,1.539,6.386,5.113,6.386c1.218-0.04,2.398-0.433,3.397-1.132v-12.26
		c0-2.353-0.407-3.255-1.362-3.255c-0.496-0.008-0.989,0.082-1.451,0.265v-1.309c2.658-0.928,5.433-1.476,8.244-1.628v14.843
		c-0.116,1.195,0.023,2.401,0.407,3.538c0.212,0.445,0.676,0.713,1.168,0.672c0.195,0,1.044,0,1.221,0v1.168
		c-2.234,0.742-4.516,1.333-6.829,1.769l-1.221-2.3c-2.004,1.454-4.406,2.256-6.882,2.3c-1.986,0.184-3.966-0.413-5.52-1.663
		c-1.221-1.185-1.769-3.131-1.769-6.74v-8.049c0-1.911-0.46-2.848-1.362-2.848c-0.494,0.014-0.983,0.104-1.451,0.265v-1.309
		c2.658-0.928,5.433-1.476,8.244-1.628L885.432,112.784z"/>
	<path class="st1" d="M913.277,117.225c0,1.221,0.177,1.769,0.495,2.176c0.318,0.407,0.955,0.442,2.3,0.531v1.185h-11.039v-1.185
		c1.504,0,2.034-0.265,2.353-0.584c0.41-0.692,0.573-1.503,0.46-2.3V95.5c0.063-1.256-0.026-2.516-0.265-3.75
		c-0.091-0.652-0.67-1.123-1.327-1.079c-0.495,0-1.079,0-1.221,0v-1.185c2.141-0.407,3.273-0.637,4.706-0.814
		c1.173-0.156,2.355-0.233,3.538-0.23V117.225z"/>
	<path class="st1" d="M927.43,95.005c-0.23,1.309-0.531,4.759-0.531,5.52l4.918,0.46v1.168c-1.628,0.177-3.078,0.372-4.918,0.407
		v9.235c-0.188,1.949,0.072,3.916,0.761,5.75c0.621,1.114,1.844,1.754,3.114,1.628c0.788,0.03,1.574-0.09,2.318-0.354l0.318,1.168
		c-2.05,1.145-4.357,1.754-6.705,1.769c-1.736,0.152-3.41-0.681-4.334-2.158c-0.713-1.542-1.024-3.241-0.902-4.936v-12.101
		c-1.044-0.124-2.548-0.23-3.538-0.407v-1.168c0.867-0.195,2.353-0.283,3.538-0.46v-1.946c1.666-1.462,3.487-2.738,5.431-3.804
		L927.43,95.005z"/>
	<path class="st1" d="M941.583,112.784c0,4.529,1.539,6.386,5.113,6.386c1.218-0.04,2.398-0.433,3.397-1.132v-12.26
		c0-2.353-0.407-3.255-1.362-3.255c-0.496-0.008-0.989,0.082-1.451,0.265v-1.309c2.658-0.928,5.433-1.476,8.244-1.628v14.843
		c-0.116,1.195,0.023,2.401,0.407,3.538c0.212,0.445,0.676,0.713,1.168,0.672c0.195,0,1.044,0,1.221,0l0.106,1.168
		c-2.241,0.739-4.528,1.33-6.846,1.769l-1.15-2.3c-2.004,1.454-4.406,2.256-6.882,2.3c-1.986,0.184-3.966-0.413-5.52-1.663
		c-1.221-1.185-1.769-3.131-1.769-6.74v-8.049c0-1.911-0.46-2.848-1.362-2.848c-0.494,0.014-0.983,0.104-1.451,0.265v-1.309
		c2.658-0.928,5.433-1.476,8.244-1.628L941.583,112.784z"/>
	<path class="st1" d="M969.128,102.966c1.198-1.702,3.05-2.83,5.113-3.114c1.464,0.065,2.816,0.803,3.662,1.999
		c-0.538,1.329-1.486,2.451-2.707,3.202c-0.177,0-0.495-0.142-1.574-0.548c-0.774-0.326-1.581-0.569-2.406-0.725
		c-0.703-0.011-1.365,0.327-1.769,0.902v12.189c0,1.769,0.318,2.264,0.637,2.477s0.849,0.372,3.078,0.584v1.185h-11.959v-1.185
		c1.415,0,2.034-0.212,2.353-0.531c0.404-0.714,0.566-1.539,0.46-2.353v-11.004c0-2.353-0.354-3.344-1.398-3.344
		c-0.484,0.002-0.964,0.092-1.415,0.265v-1.115c1.857-0.637,3.308-1.097,4.263-1.309c0.955-0.212,2.034-0.407,3.344-0.637
		C969.02,100.912,969.127,101.937,969.128,102.966z"/>
	<path class="st1" d="M996.177,114.872c0,3.75,0.955,5.201,2.813,5.307c0.152,0.025,0.308,0.025,0.46,0l0.124,0.584
		c-1.167,0.731-2.515,1.123-3.892,1.132c-1.806,0.211-3.558-0.7-4.423-2.3c-1.763,1.485-3.993,2.299-6.298,2.3
		c-3.538,0-5.926-2.034-5.926-4.918c0-3.184,2.353-5.573,8.138-7.289c1.044-0.318,2.318-0.637,3.538-0.955v-0.991
		c0-3.804-1.433-5.166-3.927-5.166c-2.494,0-4.122,1.362-5.307,4.476h-0.46c-0.561-0.675-0.976-1.458-1.221-2.3
		c2.372-2.962,5.936-4.719,9.73-4.794c4.741,0,6.687,1.769,6.687,7.784L996.177,114.872z M990.87,118.092
		c-0.195-1.769-0.195-2.176-0.195-2.264v-5.13h-0.584c-2.654-0.264-5.02,1.673-5.284,4.327c-0.013,0.126-0.02,0.252-0.023,0.379
		c-0.149,1.948,1.31,3.648,3.259,3.797c0.034,0.003,0.068,0.005,0.103,0.006c1.039-0.006,2.037-0.404,2.795-1.115H990.87z"/>
	<path class="st1" d="M583.041,12.548h18.77c-3.179,2.402-5.92,5.335-8.102,8.669c-1.551,2.685-2.334,5.745-2.264,8.845
		c-0.124,5.009,1.913,9.83,5.59,13.233c3.777,3.554,8.81,5.463,13.994,5.307c5.198,0.212,10.275-1.609,14.153-5.077
		c3.654-3.37,5.668-8.158,5.52-13.127c0.052-3.141-0.723-6.24-2.247-8.987c-2.237-3.398-5.037-6.389-8.279-8.845h18.646
		c2.857,5.292,4.387,11.199,4.458,17.213c0.247,8.82-3.061,17.368-9.182,23.724c-5.939,6.285-14.265,9.756-22.91,9.553
		c-8.721,0.173-17.11-3.341-23.104-9.677c-6.224-6.305-9.62-14.867-9.412-23.724C578.659,23.675,580.162,17.789,583.041,12.548z"/>
	<path class="st1" d="M534.073,95.872V77.084c2.397,3.173,5.323,5.908,8.651,8.085c2.685,1.551,5.745,2.334,8.845,2.264
		c4.994,0.118,9.799-1.911,13.197-5.573c3.549-3.78,5.457-8.811,5.307-13.994c0.203-5.2-1.624-10.275-5.095-14.153
		c-3.364-3.651-8.146-5.665-13.109-5.52c-3.136-0.067-6.235,0.689-8.987,2.194c-3.401,2.24-6.393,5.046-8.845,8.297V40.057
		c5.287-2.855,11.188-4.384,17.196-4.458c8.818-0.256,17.368,3.046,23.724,9.164c6.304,5.963,9.777,14.324,9.553,22.998
		c0.173,8.721-3.341,17.11-9.677,23.104c-6.305,6.224-14.867,9.62-23.724,9.412C545.15,100.267,539.29,98.751,534.073,95.872z"/>
	<path class="st1" d="M639.068,121.683H620.21c3.175-2.402,5.91-5.334,8.085-8.669c1.552-2.685,2.335-5.745,2.264-8.845
		c0.122-5.025-1.936-9.857-5.643-13.25c-3.771-3.564-8.808-5.474-13.993-5.307c-5.197-0.206-10.272,1.614-14.153,5.077
		c-3.644,3.387-5.639,8.19-5.466,13.162c-0.067,3.13,0.689,6.223,2.194,8.969c2.245,3.397,5.05,6.388,8.297,8.845h-18.629
		c-2.857-5.292-4.387-11.199-4.458-17.213c-0.256-8.818,3.046-17.368,9.164-23.724c5.941-6.27,14.257-9.734,22.892-9.535
		c8.719-0.164,17.105,3.348,23.104,9.677c6.23,6.302,9.633,14.864,9.429,23.724C643.342,110.554,641.888,116.431,639.068,121.683z"
		/>
</g>
</svg>
