<?xml version="1.0" encoding="utf-8"?>
<!-- Generator: Adobe Illustrator 23.1.1, SVG Export Plug-In . SVG Version: 6.00 Build 0)  -->
<svg version="1.1" id="Capa_1" xmlns="http://www.w3.org/2000/svg" xmlns:xlink="http://www.w3.org/1999/xlink" x="0px" y="0px"
	 viewBox="0 0 480 97.7" style="enable-background:new 0 0 480 97.7;" xml:space="preserve">
<style type="text/css">
	.st0{fill:#6A1D3F;}
	.st1{fill:#FFFFFF;stroke:#000000;stroke-width:0.5;stroke-miterlimit:10;}
</style>
<g>
	<g>
		<path class="st0" d="M65.78,95.62H8.62c-4.7-2.47-6.51-6.04-6.24-10.39h60.27L65.78,95.62z"/>
		<path class="st0" d="M89.77,1.05h-2.42c-3.06,0-5.54,2.48-5.54,5.54l-1.04,3.81h14.55V6.59C95.32,3.53,92.84,1.05,89.77,1.05z"/>
		<g>
			<path d="M72.98,97.7h-62.9c-1.94,0-5.02-0.94-7.35-3.57c-1.52-1.72-3.2-4.78-2.6-9.61c0.1-0.78,0.76-1.36,1.55-1.36h62.02
				c0.45,0,0.87,0.19,1.17,0.53c0.3,0.34,0.43,0.78,0.38,1.22c-0.35,2.83,0.24,5.15,1.77,6.88c1.96,2.22,4.76,2.8,5.97,2.8
				c3.85,0,7.59-3.45,8.89-8.21c1.55-5.65,0.96-12.14,0.27-19.67c-0.11-1.16-0.21-2.33-0.31-3.52c0-0.04-0.01-0.09-0.01-0.13
				c0-0.86,0.7-1.6,1.56-1.6c0.86,0,1.56,0.66,1.56,1.52c0.1,1.18,0.2,2.33,0.31,3.46c0.69,7.5,1.34,14.58-0.36,20.77
				C83.18,93.38,78.29,97.7,72.98,97.7z M3.12,86.26c-0.05,2.33,0.6,4.28,1.94,5.79c1.53,1.73,3.67,2.52,5.02,2.52h55.32
				c-0.25-0.23-0.49-0.48-0.72-0.74c-1.78-2.01-2.68-4.61-2.65-7.58H3.12z"/>
		</g>
		<g>
			<path d="M79.21,60.28c-0.23,0-0.47-0.05-0.69-0.16c-0.77-0.38-1.09-1.32-0.71-2.09l2.77-5.6l-1.81-15.77l-5.76-4.8
				c-0.34-0.29-0.55-0.7-0.56-1.15c-0.01-0.45,0.16-0.88,0.49-1.18l5.21-4.9c-0.28-6.47-0.13-11,0.43-13.84
				c1.53-7.65,4.42-10.78,9.97-10.78c2.82,0,5.44,1.18,7.19,3.25c1.76,2.08,2.45,4.89,1.95,7.92c-0.12,0.75-0.78,1.3-1.54,1.3H81.47
				c-0.37,2.76-0.43,7.03-0.17,12.72c0.02,0.45-0.16,0.9-0.49,1.21l-4.45,4.19l4.88,4.07c0.31,0.26,0.51,0.62,0.55,1.02l1.93,16.85
				c0.03,0.3-0.02,0.6-0.15,0.87l-2.97,6.01C80.34,59.97,79.78,60.28,79.21,60.28z M82.12,9.36h12.62c0.02-1.6-0.44-2.99-1.37-4.09
				c-1.14-1.34-2.93-2.15-4.81-2.15C85.97,3.13,83.67,3.64,82.12,9.36z"/>
		</g>
		<g>
			<path d="M14.83,80.54c-0.22,0-0.43-0.04-0.64-0.14c-0.78-0.36-1.13-1.28-0.77-2.06c2.68-5.9,0.76-28.35-0.4-41.76
				c-0.4-4.62-0.74-8.61-0.83-11.04C11.74,13.94,13.35,6.47,17.13,2.7c1.88-1.89,4.25-2.79,7.07-2.69l63.33,0
				c0.86,0,1.56,0.7,1.56,1.56s-0.7,1.56-1.56,1.56H24.13c-1.97-0.08-3.54,0.51-4.8,1.77c-2.12,2.12-4.54,7.4-4.03,20.51
				c0.09,2.36,0.43,6.31,0.82,10.9c1.66,19.33,2.92,37.18,0.13,43.32C15.99,80.2,15.42,80.54,14.83,80.54z"/>
		</g>
		<g>
			<path d="M67.71,13H26.15c-0.86,0-1.56-0.7-1.56-1.56c0-0.86,0.7-1.56,1.56-1.56h41.57c0.86,0,1.56,0.7,1.56,1.56
				C69.27,12.3,68.58,13,67.71,13z"/>
		</g>
		<g>
			<path d="M67.71,30.82H26.15c-0.86,0-1.56-0.7-1.56-1.56c0-0.86,0.7-1.56,1.56-1.56h41.57c0.86,0,1.56,0.7,1.56,1.56
				C69.27,30.12,68.58,30.82,67.71,30.82z"/>
		</g>
		<g>
			<path d="M65.64,39.72H24.07c-0.86,0-1.56-0.7-1.56-1.56s0.7-1.56,1.56-1.56h41.57c0.86,0,1.56,0.7,1.56,1.56
				S66.5,39.72,65.64,39.72z"/>
		</g>
		<g>
			<path d="M67.71,48.63H26.15c-0.86,0-1.56-0.7-1.56-1.56s0.7-1.56,1.56-1.56h41.57c0.86,0,1.56,0.7,1.56,1.56
				S68.58,48.63,67.71,48.63z"/>
		</g>
		<g>
			<path d="M67.71,75.35H26.15c-0.86,0-1.56-0.7-1.56-1.56s0.7-1.56,1.56-1.56h41.57c0.86,0,1.56,0.7,1.56,1.56
				S68.58,75.35,67.71,75.35z"/>
		</g>
	</g>
	<g>
		<g>
			<path d="M117.12,72.67v-10.6h3.05c0.6,0,1.13,0.06,1.57,0.18c0.44,0.12,0.81,0.3,1.1,0.53c0.29,0.23,0.51,0.52,0.65,0.85
				c0.14,0.33,0.21,0.71,0.21,1.14c0,0.28-0.05,0.55-0.15,0.81c-0.1,0.26-0.24,0.5-0.42,0.72c-0.19,0.22-0.41,0.41-0.68,0.57
				c-0.27,0.16-0.57,0.29-0.92,0.37c0.83,0.12,1.48,0.4,1.93,0.83c0.45,0.43,0.67,1,0.67,1.7c0,0.45-0.08,0.85-0.24,1.21
				c-0.16,0.36-0.39,0.66-0.7,0.91c-0.3,0.25-0.68,0.44-1.12,0.57c-0.44,0.13-0.95,0.2-1.51,0.2H117.12z M117.89,67.03h2.3
				c0.49,0,0.91-0.06,1.25-0.19c0.35-0.12,0.63-0.29,0.85-0.49c0.22-0.2,0.39-0.44,0.49-0.7c0.1-0.26,0.16-0.53,0.16-0.8
				c0-0.71-0.23-1.25-0.68-1.62c-0.45-0.37-1.15-0.55-2.09-0.55h-2.29V67.03z M117.89,67.59v4.46h2.66c0.93,0,1.64-0.2,2.11-0.6
				c0.47-0.4,0.71-0.97,0.71-1.7c0-0.33-0.06-0.64-0.19-0.9c-0.13-0.27-0.31-0.49-0.55-0.68c-0.24-0.19-0.53-0.33-0.88-0.43
				c-0.35-0.1-0.75-0.15-1.19-0.15H117.89z"/>
			<path d="M134.66,72.67h-0.59c-0.07,0-0.13-0.02-0.17-0.06c-0.05-0.04-0.08-0.09-0.1-0.15l-1.25-3.08h-5.21l-1.24,3.08
				c-0.02,0.05-0.05,0.1-0.1,0.14c-0.05,0.04-0.11,0.06-0.18,0.06h-0.58l4.34-10.6h0.76L134.66,72.67z M127.56,68.82h4.75
				l-2.17-5.36c-0.04-0.08-0.07-0.18-0.1-0.29c-0.04-0.11-0.07-0.22-0.1-0.34c-0.04,0.12-0.07,0.23-0.1,0.34
				c-0.04,0.11-0.07,0.21-0.1,0.3L127.56,68.82z"/>
			<path d="M141.79,63.36c-0.05,0.08-0.11,0.13-0.2,0.13c-0.06,0-0.15-0.05-0.25-0.14c-0.1-0.09-0.24-0.2-0.42-0.31
				c-0.17-0.11-0.39-0.22-0.66-0.31s-0.59-0.14-0.97-0.14c-0.39,0-0.73,0.06-1.02,0.17c-0.29,0.11-0.54,0.26-0.74,0.45
				c-0.2,0.19-0.35,0.41-0.45,0.66c-0.1,0.25-0.15,0.51-0.15,0.79c0,0.36,0.08,0.66,0.23,0.89c0.15,0.23,0.35,0.43,0.6,0.6
				c0.25,0.16,0.53,0.3,0.85,0.42c0.32,0.11,0.64,0.22,0.98,0.33s0.66,0.23,0.98,0.36c0.32,0.13,0.6,0.3,0.85,0.5
				c0.25,0.2,0.45,0.45,0.6,0.74c0.15,0.29,0.23,0.66,0.23,1.09c0,0.44-0.08,0.86-0.23,1.25c-0.15,0.39-0.37,0.73-0.66,1.02
				c-0.29,0.29-0.65,0.52-1.06,0.69c-0.42,0.17-0.9,0.25-1.44,0.25c-0.7,0-1.3-0.12-1.81-0.37c-0.5-0.25-0.95-0.59-1.33-1.02
				l0.21-0.33c0.06-0.07,0.13-0.11,0.21-0.11c0.04,0,0.1,0.03,0.17,0.09c0.07,0.06,0.15,0.13,0.25,0.22
				c0.1,0.09,0.22,0.18,0.36,0.28c0.14,0.1,0.3,0.2,0.49,0.28c0.18,0.09,0.4,0.16,0.64,0.22c0.24,0.06,0.51,0.09,0.82,0.09
				c0.42,0,0.8-0.06,1.13-0.19c0.33-0.13,0.61-0.3,0.84-0.52c0.23-0.22,0.4-0.48,0.52-0.78c0.12-0.3,0.18-0.63,0.18-0.97
				c0-0.37-0.08-0.68-0.23-0.92c-0.15-0.24-0.35-0.44-0.6-0.61c-0.25-0.16-0.53-0.3-0.85-0.41c-0.32-0.11-0.64-0.22-0.98-0.32
				c-0.34-0.1-0.66-0.22-0.98-0.35c-0.32-0.13-0.6-0.3-0.85-0.5c-0.25-0.2-0.45-0.45-0.6-0.76c-0.15-0.3-0.23-0.68-0.23-1.14
				c0-0.35,0.07-0.7,0.2-1.03c0.14-0.33,0.33-0.62,0.59-0.87s0.58-0.45,0.96-0.61c0.38-0.15,0.82-0.23,1.31-0.23
				c0.55,0,1.04,0.09,1.48,0.26c0.44,0.17,0.84,0.44,1.2,0.8L141.79,63.36z"/>
			<path d="M150.8,62.07v0.64h-5.58v4.29h4.64v0.62h-4.64v4.42h5.58v0.64h-6.35v-10.6H150.8z"/>
			<path d="M165.12,67.37c0,0.82-0.12,1.56-0.37,2.21c-0.25,0.65-0.59,1.21-1.03,1.67c-0.45,0.46-0.98,0.81-1.6,1.06
				c-0.62,0.24-1.31,0.37-2.06,0.37h-3.87v-10.6h3.87c0.75,0,1.44,0.12,2.06,0.37c0.62,0.24,1.15,0.6,1.6,1.06
				c0.44,0.46,0.79,1.02,1.03,1.67C165,65.82,165.12,66.55,165.12,67.37z M164.33,67.37c0-0.74-0.1-1.4-0.31-1.98
				c-0.2-0.58-0.49-1.07-0.87-1.47c-0.37-0.4-0.82-0.7-1.35-0.91c-0.52-0.21-1.11-0.31-1.75-0.31h-3.09v9.36h3.09
				c0.64,0,1.22-0.1,1.75-0.31c0.52-0.21,0.97-0.51,1.35-0.91c0.37-0.4,0.66-0.89,0.87-1.47C164.22,68.77,164.33,68.11,164.33,67.37
				z"/>
			<path d="M173.94,62.07v0.64h-5.58v4.29H173v0.62h-4.64v4.42h5.58v0.64h-6.35v-10.6H173.94z"/>
			<path d="M188.26,67.37c0,0.82-0.12,1.56-0.37,2.21c-0.25,0.65-0.59,1.21-1.03,1.67c-0.45,0.46-0.98,0.81-1.6,1.06
				c-0.62,0.24-1.31,0.37-2.06,0.37h-3.87v-10.6h3.87c0.75,0,1.44,0.12,2.06,0.37c0.62,0.24,1.15,0.6,1.6,1.06
				c0.44,0.46,0.79,1.02,1.03,1.67C188.13,65.82,188.26,66.55,188.26,67.37z M187.46,67.37c0-0.74-0.1-1.4-0.31-1.98
				c-0.2-0.58-0.49-1.07-0.87-1.47c-0.37-0.4-0.82-0.7-1.35-0.91c-0.52-0.21-1.11-0.31-1.75-0.31h-3.09v9.36h3.09
				c0.64,0,1.22-0.1,1.75-0.31c0.52-0.21,0.97-0.51,1.35-0.91c0.37-0.4,0.66-0.89,0.87-1.47C187.36,68.77,187.46,68.11,187.46,67.37
				z"/>
			<path d="M198.36,72.67h-0.59c-0.07,0-0.13-0.02-0.17-0.06c-0.05-0.04-0.08-0.09-0.1-0.15l-1.25-3.08h-5.21l-1.24,3.08
				c-0.02,0.05-0.05,0.1-0.1,0.14c-0.05,0.04-0.11,0.06-0.18,0.06h-0.58l4.34-10.6h0.76L198.36,72.67z M191.27,68.82h4.75
				l-2.17-5.36c-0.04-0.08-0.07-0.18-0.1-0.29c-0.04-0.11-0.07-0.22-0.1-0.34c-0.04,0.12-0.07,0.23-0.1,0.34
				c-0.04,0.11-0.07,0.21-0.1,0.3L191.27,68.82z"/>
			<path d="M205.82,62.07v0.65h-3.72v9.95h-0.76v-9.95h-3.75v-0.65H205.82z"/>
			<path d="M216.51,67.37c0,0.82-0.12,1.56-0.37,2.23c-0.25,0.67-0.59,1.24-1.03,1.71c-0.45,0.47-0.98,0.84-1.6,1.09
				c-0.62,0.26-1.31,0.39-2.06,0.39c-0.75,0-1.43-0.13-2.05-0.39c-0.62-0.26-1.15-0.62-1.6-1.09c-0.45-0.47-0.79-1.04-1.04-1.71
				c-0.25-0.67-0.37-1.41-0.37-2.23c0-0.81,0.12-1.55,0.37-2.22c0.25-0.67,0.59-1.24,1.04-1.71c0.44-0.47,0.98-0.84,1.6-1.1
				c0.62-0.26,1.3-0.39,2.05-0.39c0.75,0,1.44,0.13,2.06,0.39s1.15,0.62,1.6,1.1s0.79,1.05,1.03,1.71
				C216.39,65.81,216.51,66.55,216.51,67.37z M215.72,67.37c0-0.74-0.1-1.4-0.31-1.99c-0.2-0.59-0.49-1.09-0.87-1.5
				c-0.37-0.41-0.82-0.72-1.35-0.94c-0.52-0.22-1.11-0.33-1.75-0.33c-0.63,0-1.2,0.11-1.73,0.33c-0.52,0.22-0.97,0.53-1.35,0.94
				c-0.38,0.41-0.67,0.91-0.88,1.5c-0.21,0.59-0.31,1.25-0.31,1.99c0,0.74,0.1,1.41,0.31,2c0.21,0.59,0.5,1.09,0.88,1.49
				c0.38,0.41,0.83,0.72,1.35,0.94c0.52,0.22,1.1,0.32,1.73,0.32c0.64,0,1.22-0.11,1.75-0.32c0.52-0.21,0.97-0.53,1.35-0.94
				c0.37-0.41,0.66-0.91,0.87-1.49C215.62,68.78,215.72,68.11,215.72,67.37z"/>
			<path d="M223.94,63.36c-0.05,0.08-0.11,0.13-0.2,0.13c-0.06,0-0.15-0.05-0.25-0.14c-0.1-0.09-0.24-0.2-0.42-0.31
				c-0.17-0.11-0.39-0.22-0.66-0.31s-0.59-0.14-0.97-0.14s-0.73,0.06-1.02,0.17c-0.29,0.11-0.54,0.26-0.74,0.45
				c-0.2,0.19-0.35,0.41-0.45,0.66c-0.1,0.25-0.15,0.51-0.15,0.79c0,0.36,0.08,0.66,0.23,0.89c0.15,0.23,0.35,0.43,0.6,0.6
				c0.25,0.16,0.53,0.3,0.85,0.42c0.32,0.11,0.64,0.22,0.98,0.33s0.66,0.23,0.98,0.36c0.32,0.13,0.6,0.3,0.85,0.5
				c0.25,0.2,0.45,0.45,0.6,0.74c0.15,0.29,0.23,0.66,0.23,1.09c0,0.44-0.08,0.86-0.23,1.25c-0.15,0.39-0.37,0.73-0.66,1.02
				c-0.29,0.29-0.65,0.52-1.06,0.69c-0.42,0.17-0.9,0.25-1.44,0.25c-0.7,0-1.3-0.12-1.81-0.37c-0.5-0.25-0.95-0.59-1.33-1.02
				l0.21-0.33c0.06-0.07,0.13-0.11,0.21-0.11c0.04,0,0.1,0.03,0.17,0.09c0.07,0.06,0.15,0.13,0.25,0.22
				c0.1,0.09,0.22,0.18,0.36,0.28c0.14,0.1,0.3,0.2,0.49,0.28c0.18,0.09,0.4,0.16,0.64,0.22c0.24,0.06,0.51,0.09,0.82,0.09
				c0.42,0,0.8-0.06,1.13-0.19c0.33-0.13,0.61-0.3,0.84-0.52c0.23-0.22,0.4-0.48,0.52-0.78c0.12-0.3,0.18-0.63,0.18-0.97
				c0-0.37-0.08-0.68-0.23-0.92c-0.15-0.24-0.35-0.44-0.6-0.61c-0.25-0.16-0.53-0.3-0.85-0.41c-0.32-0.11-0.64-0.22-0.98-0.32
				c-0.34-0.1-0.66-0.22-0.98-0.35c-0.32-0.13-0.6-0.3-0.85-0.5c-0.25-0.2-0.45-0.45-0.6-0.76c-0.15-0.3-0.23-0.68-0.23-1.14
				c0-0.35,0.07-0.7,0.2-1.03c0.14-0.33,0.33-0.62,0.59-0.87c0.26-0.25,0.58-0.45,0.96-0.61c0.38-0.15,0.82-0.23,1.31-0.23
				c0.55,0,1.04,0.09,1.48,0.26c0.44,0.17,0.84,0.44,1.2,0.8L223.94,63.36z"/>
			<path d="M238.46,67.37c0,0.82-0.12,1.56-0.37,2.21c-0.25,0.65-0.59,1.21-1.03,1.67c-0.45,0.46-0.98,0.81-1.6,1.06
				c-0.62,0.24-1.31,0.37-2.06,0.37h-3.87v-10.6h3.87c0.75,0,1.44,0.12,2.06,0.37c0.62,0.24,1.15,0.6,1.6,1.06
				c0.44,0.46,0.79,1.02,1.03,1.67C238.33,65.82,238.46,66.55,238.46,67.37z M237.66,67.37c0-0.74-0.1-1.4-0.31-1.98
				c-0.2-0.58-0.49-1.07-0.87-1.47c-0.37-0.4-0.82-0.7-1.35-0.91c-0.52-0.21-1.11-0.31-1.74-0.31h-3.09v9.36h3.09
				c0.64,0,1.22-0.1,1.74-0.31c0.52-0.21,0.97-0.51,1.35-0.91c0.37-0.4,0.66-0.89,0.87-1.47C237.56,68.77,237.66,68.11,237.66,67.37
				z"/>
			<path d="M247.27,62.07v0.64h-5.58v4.29h4.64v0.62h-4.64v4.42h5.58v0.64h-6.35v-10.6H247.27z"/>
			<path d="M260.37,70.89c0.05,0,0.09,0.02,0.13,0.05l0.3,0.32c-0.22,0.23-0.46,0.45-0.72,0.63c-0.26,0.19-0.54,0.35-0.85,0.48
				c-0.31,0.13-0.64,0.23-1.01,0.31c-0.37,0.07-0.77,0.11-1.21,0.11c-0.73,0-1.41-0.13-2.02-0.39s-1.14-0.62-1.57-1.09
				c-0.44-0.47-0.78-1.04-1.02-1.71c-0.25-0.67-0.37-1.41-0.37-2.23c0-0.8,0.13-1.54,0.38-2.2c0.25-0.66,0.61-1.23,1.06-1.71
				c0.46-0.48,1-0.85,1.64-1.11c0.64-0.26,1.34-0.39,2.11-0.39c0.38,0,0.74,0.03,1.06,0.09c0.32,0.06,0.62,0.14,0.9,0.25
				c0.28,0.11,0.54,0.24,0.78,0.4c0.25,0.16,0.48,0.34,0.72,0.55l-0.23,0.34c-0.04,0.06-0.1,0.09-0.19,0.09
				c-0.05,0-0.1-0.03-0.17-0.08c-0.07-0.05-0.16-0.12-0.27-0.2c-0.11-0.08-0.24-0.16-0.39-0.25c-0.15-0.09-0.33-0.18-0.54-0.25
				c-0.21-0.08-0.45-0.14-0.73-0.2c-0.28-0.05-0.59-0.08-0.94-0.08c-0.65,0-1.24,0.11-1.78,0.33c-0.54,0.22-1,0.54-1.39,0.95
				c-0.39,0.41-0.69,0.91-0.91,1.5c-0.22,0.59-0.33,1.25-0.33,1.97c0,0.75,0.11,1.42,0.32,2.01c0.21,0.59,0.51,1.09,0.89,1.5
				c0.38,0.41,0.83,0.72,1.35,0.94c0.52,0.22,1.08,0.33,1.68,0.33c0.38,0,0.72-0.02,1.02-0.07c0.3-0.05,0.57-0.12,0.82-0.22
				c0.25-0.1,0.48-0.22,0.7-0.37c0.21-0.15,0.43-0.31,0.64-0.51c0.03-0.02,0.05-0.04,0.07-0.05
				C260.31,70.89,260.34,70.89,260.37,70.89z"/>
			<path d="M271.38,72.67h-0.59c-0.07,0-0.13-0.02-0.17-0.06c-0.05-0.04-0.08-0.09-0.1-0.15l-1.25-3.08h-5.21l-1.24,3.08
				c-0.02,0.05-0.05,0.1-0.1,0.14c-0.05,0.04-0.11,0.06-0.18,0.06h-0.58l4.34-10.6h0.76L271.38,72.67z M264.29,68.82h4.75
				l-2.17-5.36c-0.04-0.08-0.07-0.18-0.1-0.29c-0.04-0.11-0.07-0.22-0.1-0.34c-0.04,0.12-0.07,0.23-0.1,0.34
				c-0.04,0.11-0.07,0.21-0.1,0.3L264.29,68.82z"/>
			<path d="M274.01,67.88v4.79h-0.76v-10.6h2.7c1.22,0,2.14,0.24,2.74,0.71c0.6,0.47,0.91,1.16,0.91,2.08c0,0.4-0.07,0.77-0.21,1.11
				c-0.14,0.33-0.34,0.63-0.6,0.88c-0.26,0.25-0.58,0.46-0.95,0.62c-0.37,0.16-0.79,0.27-1.25,0.32c0.12,0.07,0.23,0.17,0.32,0.3
				l3.65,4.59h-0.67c-0.08,0-0.15-0.02-0.21-0.05s-0.11-0.08-0.17-0.15l-3.39-4.3c-0.09-0.11-0.18-0.19-0.27-0.23
				c-0.1-0.04-0.25-0.07-0.45-0.07H274.01z M274.01,67.31h1.84c0.47,0,0.89-0.06,1.26-0.17c0.37-0.11,0.69-0.27,0.94-0.48
				c0.26-0.21,0.45-0.46,0.59-0.76c0.14-0.3,0.2-0.63,0.2-1c0-0.75-0.25-1.31-0.74-1.68c-0.49-0.36-1.21-0.55-2.16-0.55h-1.94V67.31
				z"/>
			<path d="M289.17,62.07v0.65h-3.72v9.95h-0.76v-9.95h-3.75v-0.65H289.17z"/>
			<path d="M291.92,72.67h-0.77v-10.6h0.77V72.67z"/>
			<path d="M295.91,72.02h5.03v0.65h-5.79v-10.6h0.76V72.02z"/>
			<path d="M303.55,72.02h5.03v0.65h-5.79v-10.6h0.76V72.02z"/>
			<path d="M319.14,72.67h-0.59c-0.07,0-0.13-0.02-0.17-0.06c-0.05-0.04-0.08-0.09-0.1-0.15l-1.25-3.08h-5.21l-1.24,3.08
				c-0.02,0.05-0.05,0.1-0.1,0.14c-0.05,0.04-0.11,0.06-0.18,0.06h-0.58l4.34-10.6h0.76L319.14,72.67z M312.05,68.82h4.75
				l-2.17-5.36c-0.04-0.08-0.07-0.18-0.1-0.29c-0.04-0.11-0.07-0.22-0.1-0.34c-0.04,0.12-0.07,0.23-0.1,0.34
				c-0.04,0.11-0.07,0.21-0.1,0.3L312.05,68.82z"/>
			<path d="M326.28,63.36c-0.05,0.08-0.11,0.13-0.2,0.13c-0.06,0-0.15-0.05-0.25-0.14c-0.1-0.09-0.24-0.2-0.42-0.31
				c-0.17-0.11-0.39-0.22-0.66-0.31s-0.59-0.14-0.97-0.14c-0.39,0-0.73,0.06-1.02,0.17c-0.29,0.11-0.54,0.26-0.74,0.45
				c-0.2,0.19-0.35,0.41-0.45,0.66c-0.1,0.25-0.15,0.51-0.15,0.79c0,0.36,0.08,0.66,0.23,0.89s0.35,0.43,0.6,0.6
				c0.25,0.16,0.53,0.3,0.85,0.42c0.32,0.11,0.64,0.22,0.98,0.33s0.66,0.23,0.98,0.36c0.32,0.13,0.6,0.3,0.85,0.5
				c0.25,0.2,0.45,0.45,0.6,0.74c0.15,0.29,0.23,0.66,0.23,1.09c0,0.44-0.08,0.86-0.23,1.25c-0.15,0.39-0.37,0.73-0.66,1.02
				c-0.29,0.29-0.65,0.52-1.06,0.69c-0.42,0.17-0.9,0.25-1.44,0.25c-0.7,0-1.3-0.12-1.81-0.37c-0.5-0.25-0.95-0.59-1.33-1.02
				l0.21-0.33c0.06-0.07,0.13-0.11,0.21-0.11c0.04,0,0.1,0.03,0.17,0.09c0.07,0.06,0.15,0.13,0.25,0.22
				c0.1,0.09,0.22,0.18,0.36,0.28c0.14,0.1,0.3,0.2,0.49,0.28c0.18,0.09,0.4,0.16,0.64,0.22c0.24,0.06,0.51,0.09,0.82,0.09
				c0.42,0,0.8-0.06,1.13-0.19c0.33-0.13,0.61-0.3,0.84-0.52c0.23-0.22,0.4-0.48,0.52-0.78c0.12-0.3,0.18-0.63,0.18-0.97
				c0-0.37-0.08-0.68-0.23-0.92c-0.15-0.24-0.35-0.44-0.6-0.61c-0.25-0.16-0.53-0.3-0.85-0.41c-0.32-0.11-0.64-0.22-0.98-0.32
				c-0.34-0.1-0.66-0.22-0.98-0.35c-0.32-0.13-0.6-0.3-0.85-0.5c-0.25-0.2-0.45-0.45-0.6-0.76c-0.15-0.3-0.23-0.68-0.23-1.14
				c0-0.35,0.07-0.7,0.2-1.03c0.14-0.33,0.33-0.62,0.59-0.87s0.58-0.45,0.96-0.61c0.38-0.15,0.82-0.23,1.31-0.23
				c0.55,0,1.04,0.09,1.48,0.26c0.44,0.17,0.84,0.44,1.2,0.8L326.28,63.36z"/>
			<path d="M340.79,67.37c0,0.82-0.12,1.56-0.37,2.21c-0.25,0.65-0.59,1.21-1.03,1.67c-0.45,0.46-0.98,0.81-1.6,1.06
				c-0.62,0.24-1.31,0.37-2.06,0.37h-3.87v-10.6h3.87c0.75,0,1.44,0.12,2.06,0.37c0.62,0.24,1.15,0.6,1.6,1.06
				c0.44,0.46,0.79,1.02,1.03,1.67C340.67,65.82,340.79,66.55,340.79,67.37z M339.99,67.37c0-0.74-0.1-1.4-0.31-1.98
				c-0.2-0.58-0.49-1.07-0.87-1.47c-0.37-0.4-0.82-0.7-1.35-0.91c-0.52-0.21-1.11-0.31-1.75-0.31h-3.09v9.36h3.09
				c0.64,0,1.22-0.1,1.75-0.31c0.52-0.21,0.97-0.51,1.35-0.91c0.37-0.4,0.66-0.89,0.87-1.47C339.89,68.77,339.99,68.11,339.99,67.37
				z"/>
			<path d="M349.6,62.07v0.64h-5.58v4.29h4.64v0.62h-4.64v4.42h5.58v0.64h-6.35v-10.6H349.6z"/>
			<path d="M355.76,72.02h5.03v0.65H355v-10.6h0.76V72.02z"/>
			<path d="M369,62.07v0.64h-5.58v4.29h4.64v0.62h-4.64v4.42H369v0.64h-6.35v-10.6H369z"/>
			<path d="M378.72,70.89c0.05,0,0.09,0.02,0.13,0.05l0.3,0.32c-0.22,0.23-0.46,0.45-0.72,0.63c-0.26,0.19-0.54,0.35-0.85,0.48
				c-0.31,0.13-0.64,0.23-1.01,0.31c-0.37,0.07-0.77,0.11-1.21,0.11c-0.73,0-1.41-0.13-2.02-0.39s-1.14-0.62-1.57-1.09
				c-0.44-0.47-0.78-1.04-1.02-1.71c-0.25-0.67-0.37-1.41-0.37-2.23c0-0.8,0.13-1.54,0.38-2.2c0.25-0.66,0.61-1.23,1.06-1.71
				c0.46-0.48,1-0.85,1.64-1.11c0.64-0.26,1.34-0.39,2.11-0.39c0.38,0,0.74,0.03,1.06,0.09c0.32,0.06,0.62,0.14,0.9,0.25
				c0.28,0.11,0.54,0.24,0.78,0.4c0.25,0.16,0.48,0.34,0.72,0.55l-0.23,0.34c-0.04,0.06-0.1,0.09-0.19,0.09
				c-0.05,0-0.1-0.03-0.17-0.08c-0.07-0.05-0.16-0.12-0.27-0.2c-0.11-0.08-0.24-0.16-0.39-0.25c-0.15-0.09-0.33-0.18-0.54-0.25
				c-0.21-0.08-0.45-0.14-0.73-0.2c-0.28-0.05-0.59-0.08-0.94-0.08c-0.65,0-1.24,0.11-1.78,0.33c-0.54,0.22-1,0.54-1.39,0.95
				c-0.39,0.41-0.69,0.91-0.91,1.5c-0.22,0.59-0.33,1.25-0.33,1.97c0,0.75,0.11,1.42,0.32,2.01c0.21,0.59,0.51,1.09,0.89,1.5
				c0.38,0.41,0.83,0.72,1.35,0.94c0.52,0.22,1.08,0.33,1.68,0.33c0.38,0,0.72-0.02,1.02-0.07c0.3-0.05,0.57-0.12,0.82-0.22
				c0.25-0.1,0.48-0.22,0.7-0.37c0.21-0.15,0.43-0.31,0.64-0.51c0.03-0.02,0.05-0.04,0.07-0.05
				C378.66,70.89,378.69,70.89,378.72,70.89z"/>
			<path d="M388.64,62.07v0.65h-3.72v9.95h-0.76v-9.95h-3.75v-0.65H388.64z"/>
			<path d="M399.34,67.37c0,0.82-0.12,1.56-0.37,2.23c-0.25,0.67-0.59,1.24-1.03,1.71c-0.45,0.47-0.98,0.84-1.6,1.09
				c-0.62,0.26-1.31,0.39-2.06,0.39c-0.75,0-1.43-0.13-2.05-0.39c-0.62-0.26-1.15-0.62-1.6-1.09c-0.45-0.47-0.79-1.04-1.04-1.71
				c-0.25-0.67-0.37-1.41-0.37-2.23c0-0.81,0.12-1.55,0.37-2.22c0.25-0.67,0.59-1.24,1.04-1.71c0.44-0.47,0.98-0.84,1.6-1.1
				c0.62-0.26,1.3-0.39,2.05-0.39c0.75,0,1.44,0.13,2.06,0.39s1.15,0.62,1.6,1.1c0.45,0.47,0.79,1.05,1.03,1.71
				C399.21,65.81,399.34,66.55,399.34,67.37z M398.54,67.37c0-0.74-0.1-1.4-0.31-1.99c-0.2-0.59-0.49-1.09-0.87-1.5
				c-0.37-0.41-0.82-0.72-1.35-0.94c-0.52-0.22-1.11-0.33-1.75-0.33c-0.63,0-1.2,0.11-1.73,0.33c-0.52,0.22-0.97,0.53-1.35,0.94
				c-0.38,0.41-0.67,0.91-0.88,1.5c-0.21,0.59-0.31,1.25-0.31,1.99c0,0.74,0.1,1.41,0.31,2c0.21,0.59,0.5,1.09,0.88,1.49
				c0.38,0.41,0.83,0.72,1.35,0.94c0.52,0.22,1.1,0.32,1.73,0.32c0.64,0,1.22-0.11,1.75-0.32c0.52-0.21,0.97-0.53,1.35-0.94
				c0.37-0.41,0.66-0.91,0.87-1.49C398.44,68.78,398.54,68.11,398.54,67.37z"/>
			<path d="M408.14,62.07v0.64h-5.58v4.29h4.64v0.62h-4.64v4.42h5.58v0.64h-6.35v-10.6H408.14z"/>
			<path d="M415.74,63.36c-0.05,0.08-0.11,0.13-0.2,0.13c-0.06,0-0.15-0.05-0.25-0.14c-0.1-0.09-0.24-0.2-0.42-0.31
				c-0.17-0.11-0.39-0.22-0.66-0.31s-0.59-0.14-0.97-0.14s-0.73,0.06-1.02,0.17c-0.29,0.11-0.54,0.26-0.74,0.45
				c-0.2,0.19-0.35,0.41-0.45,0.66c-0.1,0.25-0.15,0.51-0.15,0.79c0,0.36,0.08,0.66,0.23,0.89s0.35,0.43,0.6,0.6
				c0.25,0.16,0.53,0.3,0.85,0.42c0.32,0.11,0.64,0.22,0.98,0.33c0.34,0.11,0.66,0.23,0.98,0.36c0.32,0.13,0.6,0.3,0.85,0.5
				c0.25,0.2,0.45,0.45,0.6,0.74c0.15,0.29,0.23,0.66,0.23,1.09c0,0.44-0.08,0.86-0.23,1.25c-0.15,0.39-0.37,0.73-0.66,1.02
				c-0.29,0.29-0.65,0.52-1.06,0.69c-0.42,0.17-0.9,0.25-1.44,0.25c-0.7,0-1.3-0.12-1.81-0.37c-0.5-0.25-0.95-0.59-1.33-1.02
				l0.21-0.33c0.06-0.07,0.13-0.11,0.21-0.11c0.04,0,0.1,0.03,0.17,0.09c0.07,0.06,0.15,0.13,0.25,0.22
				c0.1,0.09,0.22,0.18,0.36,0.28c0.14,0.1,0.3,0.2,0.49,0.28c0.18,0.09,0.4,0.16,0.64,0.22c0.24,0.06,0.51,0.09,0.82,0.09
				c0.42,0,0.8-0.06,1.13-0.19c0.33-0.13,0.61-0.3,0.84-0.52c0.23-0.22,0.4-0.48,0.52-0.78c0.12-0.3,0.18-0.63,0.18-0.97
				c0-0.37-0.08-0.68-0.23-0.92c-0.15-0.24-0.35-0.44-0.6-0.61c-0.25-0.16-0.53-0.3-0.85-0.41c-0.32-0.11-0.64-0.22-0.98-0.32
				c-0.34-0.1-0.66-0.22-0.98-0.35c-0.32-0.13-0.6-0.3-0.85-0.5c-0.25-0.2-0.45-0.45-0.6-0.76c-0.15-0.3-0.23-0.68-0.23-1.14
				c0-0.35,0.07-0.7,0.2-1.03c0.14-0.33,0.33-0.62,0.59-0.87s0.58-0.45,0.96-0.61c0.38-0.15,0.82-0.23,1.31-0.23
				c0.55,0,1.04,0.09,1.48,0.26c0.44,0.17,0.84,0.44,1.2,0.8L415.74,63.36z"/>
			<path d="M426.18,70.89c0.05,0,0.09,0.02,0.13,0.05l0.3,0.32c-0.22,0.23-0.46,0.45-0.72,0.63c-0.26,0.19-0.54,0.35-0.85,0.48
				c-0.31,0.13-0.64,0.23-1.01,0.31c-0.37,0.07-0.77,0.11-1.21,0.11c-0.73,0-1.41-0.13-2.02-0.39s-1.14-0.62-1.57-1.09
				c-0.44-0.47-0.78-1.04-1.02-1.71c-0.25-0.67-0.37-1.41-0.37-2.23c0-0.8,0.13-1.54,0.38-2.2c0.25-0.66,0.61-1.23,1.06-1.71
				c0.46-0.48,1-0.85,1.64-1.11c0.64-0.26,1.34-0.39,2.11-0.39c0.38,0,0.74,0.03,1.06,0.09c0.32,0.06,0.62,0.14,0.9,0.25
				c0.28,0.11,0.54,0.24,0.78,0.4c0.25,0.16,0.48,0.34,0.72,0.55l-0.23,0.34c-0.04,0.06-0.1,0.09-0.19,0.09
				c-0.05,0-0.1-0.03-0.17-0.08c-0.07-0.05-0.16-0.12-0.27-0.2c-0.11-0.08-0.24-0.16-0.39-0.25c-0.15-0.09-0.33-0.18-0.54-0.25
				c-0.21-0.08-0.45-0.14-0.73-0.2c-0.28-0.05-0.59-0.08-0.94-0.08c-0.65,0-1.24,0.11-1.78,0.33c-0.54,0.22-1,0.54-1.39,0.95
				c-0.39,0.41-0.69,0.91-0.91,1.5c-0.22,0.59-0.33,1.25-0.33,1.97c0,0.75,0.11,1.42,0.32,2.01c0.21,0.59,0.51,1.09,0.89,1.5
				c0.38,0.41,0.83,0.72,1.35,0.94c0.52,0.22,1.08,0.33,1.68,0.33c0.38,0,0.72-0.02,1.02-0.07c0.3-0.05,0.57-0.12,0.82-0.22
				c0.25-0.1,0.48-0.22,0.7-0.37c0.21-0.15,0.43-0.31,0.64-0.51c0.03-0.02,0.05-0.04,0.07-0.05
				C426.12,70.89,426.15,70.89,426.18,70.89z"/>
			<path d="M429.6,67.88v4.79h-0.76v-10.6h2.7c1.22,0,2.14,0.24,2.74,0.71c0.6,0.47,0.91,1.16,0.91,2.08c0,0.4-0.07,0.77-0.21,1.11
				c-0.14,0.33-0.34,0.63-0.6,0.88c-0.26,0.25-0.58,0.46-0.95,0.62c-0.37,0.16-0.79,0.27-1.25,0.32c0.12,0.07,0.23,0.17,0.32,0.3
				l3.65,4.59h-0.67c-0.08,0-0.15-0.02-0.21-0.05s-0.11-0.08-0.17-0.15l-3.39-4.3c-0.09-0.11-0.18-0.19-0.27-0.23
				c-0.1-0.04-0.25-0.07-0.45-0.07H429.6z M429.6,67.31h1.84c0.47,0,0.89-0.06,1.26-0.17c0.37-0.11,0.69-0.27,0.94-0.48
				c0.26-0.21,0.45-0.46,0.59-0.76c0.14-0.3,0.2-0.63,0.2-1c0-0.75-0.25-1.31-0.74-1.68c-0.49-0.36-1.21-0.55-2.16-0.55h-1.94V67.31
				z"/>
			<path d="M438.94,72.67h-0.77v-10.6h0.77V72.67z"/>
			<path d="M449.16,62.07v0.65h-3.72v9.95h-0.76v-9.95h-3.75v-0.65H449.16z"/>
			<path d="M454.97,72.12c0.51,0,0.96-0.09,1.37-0.27c0.4-0.18,0.74-0.42,1.02-0.74c0.28-0.31,0.49-0.69,0.64-1.11
				c0.15-0.43,0.22-0.89,0.22-1.38v-6.56h0.76v6.56c0,0.58-0.09,1.13-0.28,1.64c-0.18,0.51-0.45,0.95-0.8,1.33
				c-0.35,0.38-0.77,0.67-1.27,0.89c-0.5,0.21-1.06,0.32-1.67,0.32c-0.62,0-1.18-0.11-1.68-0.32c-0.5-0.22-0.92-0.51-1.27-0.89
				c-0.35-0.38-0.61-0.82-0.8-1.33c-0.19-0.51-0.28-1.05-0.28-1.64v-6.56h0.77v6.55c0,0.49,0.07,0.96,0.22,1.38
				c0.15,0.43,0.36,0.8,0.64,1.11c0.28,0.31,0.62,0.56,1.02,0.74C454,72.03,454.46,72.12,454.97,72.12z"/>
			<path d="M462.86,67.88v4.79h-0.76v-10.6h2.7c1.22,0,2.14,0.24,2.74,0.71c0.6,0.47,0.91,1.16,0.91,2.08c0,0.4-0.07,0.77-0.21,1.11
				c-0.14,0.33-0.34,0.63-0.6,0.88c-0.26,0.25-0.58,0.46-0.95,0.62c-0.37,0.16-0.79,0.27-1.25,0.32c0.12,0.07,0.23,0.17,0.32,0.3
				l3.65,4.59h-0.67c-0.08,0-0.15-0.02-0.21-0.05s-0.11-0.08-0.17-0.15l-3.39-4.3c-0.09-0.11-0.18-0.19-0.27-0.23
				c-0.1-0.04-0.25-0.07-0.45-0.07H462.86z M462.86,67.31h1.84c0.47,0,0.89-0.06,1.26-0.17c0.37-0.11,0.69-0.27,0.94-0.48
				c0.26-0.21,0.45-0.46,0.59-0.76c0.14-0.3,0.2-0.63,0.2-1c0-0.75-0.25-1.31-0.74-1.68c-0.49-0.36-1.21-0.55-2.16-0.55h-1.94V67.31
				z"/>
			<path d="M480,72.67h-0.59c-0.07,0-0.13-0.02-0.17-0.06c-0.05-0.04-0.08-0.09-0.1-0.15l-1.25-3.08h-5.21l-1.24,3.08
				c-0.02,0.05-0.05,0.1-0.1,0.14c-0.05,0.04-0.11,0.06-0.18,0.06h-0.58l4.34-10.6h0.76L480,72.67z M472.9,68.82h4.75l-2.17-5.36
				c-0.04-0.08-0.07-0.18-0.1-0.29c-0.04-0.11-0.07-0.22-0.1-0.34c-0.04,0.12-0.07,0.23-0.1,0.34c-0.04,0.11-0.07,0.21-0.1,0.3
				L472.9,68.82z"/>
		</g>
		<g>
			<path d="M133.59,41.88c0.12,0,0.25,0.02,0.37,0.07c0.12,0.05,0.24,0.13,0.36,0.24l2.08,2.18c-0.91,1.19-2.05,2.08-3.41,2.69
				c-1.37,0.6-2.99,0.91-4.86,0.91c-1.71,0-3.25-0.29-4.61-0.88c-1.36-0.58-2.51-1.39-3.46-2.42c-0.94-1.03-1.67-2.25-2.18-3.66
				c-0.5-1.41-0.76-2.94-0.76-4.59c0-1.68,0.29-3.23,0.87-4.64c0.58-1.41,1.39-2.63,2.43-3.65c1.04-1.02,2.28-1.82,3.72-2.39
				c1.45-0.57,3.04-0.85,4.79-0.85c0.85,0,1.64,0.07,2.39,0.22c0.75,0.15,1.45,0.36,2.1,0.62c0.65,0.26,1.25,0.58,1.8,0.95
				s1.03,0.77,1.46,1.22l-1.77,2.37c-0.11,0.14-0.25,0.28-0.4,0.39c-0.16,0.12-0.37,0.18-0.65,0.18c-0.19,0-0.36-0.04-0.53-0.12
				c-0.17-0.08-0.34-0.18-0.53-0.3c-0.19-0.12-0.39-0.25-0.61-0.39c-0.22-0.14-0.48-0.27-0.79-0.39c-0.31-0.12-0.66-0.22-1.07-0.3
				c-0.41-0.08-0.89-0.12-1.43-0.12c-0.95,0-1.82,0.17-2.6,0.5c-0.78,0.34-1.46,0.82-2.02,1.44c-0.56,0.63-1,1.38-1.32,2.27
				c-0.32,0.89-0.47,1.89-0.47,2.99c0,1.16,0.16,2.18,0.47,3.08c0.32,0.9,0.74,1.66,1.29,2.27c0.54,0.61,1.18,1.08,1.9,1.4
				c0.72,0.32,1.5,0.48,2.32,0.48c0.47,0,0.91-0.02,1.3-0.07c0.39-0.05,0.76-0.13,1.09-0.24c0.34-0.11,0.66-0.26,0.96-0.44
				c0.31-0.18,0.61-0.41,0.92-0.67c0.12-0.1,0.26-0.19,0.4-0.26C133.29,41.91,133.44,41.88,133.59,41.88z"/>
			<path d="M161.2,47.72h-4.06c-0.45,0-0.83-0.11-1.12-0.32c-0.29-0.21-0.5-0.48-0.61-0.81l-1.33-3.93h-8.58l-1.33,3.93
				c-0.1,0.29-0.31,0.55-0.6,0.78c-0.3,0.23-0.67,0.35-1.1,0.35h-4.09l8.74-22.57h5.36L161.2,47.72z M146.7,39.09h6.17l-2.08-6.18
				c-0.14-0.39-0.29-0.85-0.47-1.39c-0.18-0.53-0.36-1.11-0.53-1.73c-0.16,0.63-0.34,1.21-0.51,1.75c-0.18,0.54-0.34,1-0.5,1.39
				L146.7,39.09z"/>
			<path d="M169.57,39.37v8.35h-5.24V25.15h7.35c1.63,0,3.02,0.17,4.17,0.5c1.15,0.34,2.09,0.8,2.82,1.4
				c0.73,0.6,1.26,1.31,1.59,2.12c0.33,0.82,0.5,1.7,0.5,2.67c0,0.73-0.1,1.42-0.3,2.08c-0.2,0.65-0.49,1.25-0.87,1.81
				s-0.86,1.05-1.42,1.48c-0.56,0.43-1.21,0.79-1.94,1.07c0.35,0.18,0.68,0.39,0.98,0.65c0.31,0.26,0.57,0.57,0.8,0.95l4.8,7.85
				h-4.74c-0.88,0-1.51-0.33-1.89-0.99l-3.75-6.55c-0.16-0.29-0.36-0.5-0.58-0.62c-0.22-0.12-0.53-0.19-0.94-0.19H169.57z
				 M169.57,35.76h2.11c0.71,0,1.32-0.09,1.82-0.27c0.5-0.18,0.91-0.43,1.23-0.75c0.32-0.32,0.55-0.69,0.7-1.12
				c0.15-0.43,0.22-0.89,0.22-1.39c0-0.99-0.32-1.77-0.97-2.32c-0.65-0.56-1.64-0.84-3-0.84h-2.11V35.76z"/>
			<path d="M202.07,25.15v4.15h-6.35v18.42h-5.24V29.3h-6.35v-4.15H202.07z"/>
			<path d="M210.87,47.72h-5.27V25.15h5.27V47.72z"/>
			<path d="M221.69,43.54h8.37v4.18h-13.6V25.15h5.24V43.54z"/>
			<path d="M238.73,43.54h8.37v4.18h-13.6V25.15h5.24V43.54z"/>
			<path d="M272.46,47.72h-4.06c-0.45,0-0.83-0.11-1.12-0.32c-0.29-0.21-0.5-0.48-0.61-0.81l-1.33-3.93h-8.58l-1.33,3.93
				c-0.1,0.29-0.31,0.55-0.6,0.78c-0.3,0.23-0.67,0.35-1.1,0.35h-4.09l8.74-22.57h5.36L272.46,47.72z M257.96,39.09h6.17l-2.08-6.18
				c-0.14-0.39-0.29-0.85-0.47-1.39c-0.18-0.53-0.36-1.11-0.53-1.73c-0.16,0.63-0.34,1.21-0.51,1.75c-0.18,0.54-0.34,1-0.5,1.39
				L257.96,39.09z"/>
			<path d="M288.56,29.74c-0.15,0.25-0.32,0.43-0.49,0.56c-0.17,0.12-0.39,0.19-0.66,0.19c-0.24,0-0.49-0.07-0.77-0.22
				c-0.27-0.15-0.58-0.32-0.93-0.5c-0.35-0.19-0.74-0.35-1.19-0.5c-0.44-0.15-0.95-0.23-1.52-0.23c-0.98,0-1.71,0.21-2.19,0.63
				c-0.48,0.42-0.72,0.98-0.72,1.7c0,0.45,0.14,0.83,0.43,1.13c0.29,0.3,0.67,0.56,1.14,0.77c0.47,0.22,1.01,0.42,1.61,0.6
				c0.61,0.18,1.22,0.38,1.85,0.6c0.63,0.22,1.25,0.48,1.85,0.78c0.6,0.3,1.14,0.68,1.61,1.15c0.47,0.47,0.85,1.03,1.14,1.7
				c0.29,0.67,0.43,1.47,0.43,2.41c0,1.04-0.18,2.02-0.54,2.93c-0.36,0.91-0.89,1.7-1.57,2.38c-0.69,0.68-1.54,1.21-2.54,1.6
				c-1.01,0.39-2.15,0.58-3.43,0.58c-0.7,0-1.42-0.07-2.15-0.22c-0.73-0.14-1.43-0.35-2.12-0.61c-0.68-0.26-1.32-0.57-1.92-0.94
				c-0.6-0.36-1.12-0.76-1.57-1.21l1.55-2.45c0.11-0.19,0.27-0.34,0.48-0.45c0.21-0.11,0.43-0.17,0.67-0.17
				c0.31,0,0.62,0.1,0.94,0.3c0.32,0.2,0.67,0.41,1.07,0.65c0.4,0.24,0.85,0.45,1.37,0.65c0.52,0.2,1.13,0.29,1.83,0.29
				c0.95,0,1.69-0.21,2.22-0.63s0.79-1.08,0.79-1.99c0-0.53-0.14-0.96-0.43-1.29c-0.29-0.33-0.67-0.6-1.14-0.82
				c-0.47-0.22-1.01-0.41-1.6-0.57c-0.6-0.17-1.21-0.35-1.84-0.55c-0.63-0.2-1.25-0.45-1.84-0.74c-0.6-0.3-1.13-0.68-1.6-1.16
				c-0.47-0.48-0.85-1.08-1.14-1.8c-0.29-0.72-0.43-1.6-0.43-2.66c0-0.85,0.17-1.67,0.51-2.48c0.34-0.81,0.84-1.52,1.5-2.15
				c0.66-0.63,1.47-1.13,2.43-1.51c0.96-0.38,2.06-0.56,3.3-0.56c0.69,0,1.37,0.05,2.02,0.16s1.28,0.27,1.87,0.48
				c0.59,0.21,1.14,0.46,1.65,0.76c0.51,0.29,0.97,0.63,1.37,1L288.56,29.74z"/>
			<path d="M307.58,47.72h-5.27V25.15h5.27V47.72z"/>
			<path d="M316.5,25.18c0.16,0.02,0.3,0.06,0.42,0.12c0.12,0.06,0.24,0.14,0.36,0.24s0.24,0.24,0.39,0.42l10.72,13.56
				c-0.04-0.43-0.07-0.85-0.09-1.26s-0.03-0.79-0.03-1.15V25.15h4.61v22.57h-2.73c-0.4,0-0.74-0.06-1.02-0.19
				c-0.28-0.12-0.55-0.35-0.81-0.68l-10.64-13.45c0.03,0.39,0.06,0.78,0.08,1.15c0.02,0.38,0.03,0.73,0.03,1.06v12.1h-4.62V25.15
				h2.76C316.15,25.15,316.35,25.16,316.5,25.18z"/>
			<path d="M358.74,36.43c0,1.63-0.28,3.14-0.84,4.52c-0.56,1.38-1.36,2.57-2.38,3.58c-1.02,1.01-2.25,1.79-3.7,2.35
				c-1.44,0.56-3.04,0.84-4.79,0.84h-8.77V25.15h8.77c1.76,0,3.35,0.28,4.79,0.85c1.44,0.57,2.67,1.35,3.7,2.36
				c1.02,1,1.82,2.19,2.38,3.57C358.45,33.31,358.74,34.81,358.74,36.43z M353.37,36.43c0-1.12-0.15-2.12-0.43-3.02
				c-0.29-0.9-0.71-1.66-1.25-2.29c-0.54-0.62-1.21-1.1-1.99-1.44c-0.79-0.34-1.68-0.5-2.68-0.5h-3.5v14.52h3.5
				c1,0,1.89-0.17,2.68-0.5c0.78-0.34,1.45-0.82,1.99-1.44c0.54-0.63,0.96-1.39,1.25-2.29C353.23,38.57,353.37,37.55,353.37,36.43z"
				/>
			<path d="M372.25,19.87l-4.57,3.32c-0.27,0.21-0.52,0.34-0.75,0.41c-0.23,0.07-0.52,0.1-0.87,0.1h-3.81l2.8-3.05
				c0.13-0.16,0.26-0.28,0.4-0.38c0.13-0.1,0.26-0.18,0.41-0.24c0.15-0.06,0.31-0.1,0.48-0.12c0.17-0.02,0.38-0.03,0.62-0.03H372.25
				z M368.24,47.72h-5.27V25.15h5.27V47.72z"/>
			<path d="M384.38,43.94c0.72,0,1.36-0.06,1.92-0.19c0.56-0.12,1.08-0.29,1.58-0.5v-3.42h-2.23c-0.33,0-0.59-0.09-0.77-0.26
				c-0.19-0.18-0.28-0.4-0.28-0.67v-2.88h8.03v9.53c-0.58,0.42-1.18,0.79-1.81,1.09c-0.63,0.31-1.29,0.55-2,0.75
				c-0.71,0.2-1.46,0.34-2.26,0.43c-0.8,0.09-1.66,0.14-2.58,0.14c-1.65,0-3.18-0.29-4.58-0.88c-1.4-0.58-2.62-1.39-3.65-2.42
				c-1.03-1.03-1.83-2.25-2.42-3.66c-0.58-1.41-0.88-2.94-0.88-4.59c0-1.68,0.28-3.23,0.84-4.64c0.56-1.41,1.36-2.63,2.39-3.65
				c1.04-1.02,2.29-1.82,3.76-2.39c1.47-0.57,3.12-0.85,4.93-0.85c0.94,0,1.82,0.08,2.65,0.23c0.82,0.16,1.59,0.37,2.28,0.64
				c0.7,0.27,1.33,0.59,1.91,0.96c0.58,0.37,1.09,0.77,1.55,1.21l-1.52,2.31c-0.14,0.22-0.32,0.39-0.52,0.51
				c-0.2,0.12-0.42,0.19-0.66,0.19c-0.31,0-0.63-0.1-0.96-0.31c-0.41-0.25-0.8-0.46-1.17-0.64c-0.37-0.18-0.74-0.33-1.12-0.44
				c-0.38-0.11-0.79-0.2-1.21-0.25c-0.42-0.05-0.9-0.08-1.43-0.08c-0.98,0-1.86,0.17-2.65,0.52c-0.79,0.35-1.45,0.83-2.01,1.46
				c-0.55,0.63-0.98,1.39-1.28,2.27c-0.3,0.88-0.45,1.87-0.45,2.95c0,1.2,0.16,2.26,0.5,3.19c0.33,0.93,0.79,1.71,1.37,2.36
				c0.59,0.64,1.28,1.13,2.08,1.46C382.56,43.77,383.43,43.94,384.38,43.94z"/>
			<path d="M412.03,25.15v4.03h-9.26v5.27h7.1v3.87h-7.1v5.38h9.26v4.03H397.5V25.15H412.03z"/>
			<path d="M419.92,25.18c0.16,0.02,0.3,0.06,0.42,0.12c0.12,0.06,0.24,0.14,0.36,0.24s0.24,0.24,0.39,0.42l10.72,13.56
				c-0.04-0.43-0.07-0.85-0.09-1.26s-0.03-0.79-0.03-1.15V25.15h4.61v22.57h-2.73c-0.4,0-0.74-0.06-1.02-0.19
				c-0.28-0.12-0.55-0.35-0.81-0.68L421.1,33.41c0.03,0.39,0.06,0.78,0.08,1.15c0.02,0.38,0.03,0.73,0.03,1.06v12.1h-4.62V25.15
				h2.76C419.57,25.15,419.76,25.16,419.92,25.18z"/>
			<path d="M462.29,47.72h-4.06c-0.45,0-0.83-0.11-1.12-0.32c-0.29-0.21-0.5-0.48-0.61-0.81l-1.33-3.93h-8.58l-1.33,3.93
				c-0.1,0.29-0.31,0.55-0.6,0.78c-0.3,0.23-0.67,0.35-1.1,0.35h-4.09l8.74-22.57h5.36L462.29,47.72z M447.79,39.09h6.17l-2.08-6.18
				c-0.14-0.39-0.29-0.85-0.47-1.39c-0.18-0.53-0.36-1.11-0.53-1.73c-0.16,0.63-0.34,1.21-0.51,1.75c-0.18,0.54-0.34,1-0.5,1.39
				L447.79,39.09z"/>
			<path d="M478.39,29.74c-0.15,0.25-0.32,0.43-0.49,0.56c-0.17,0.12-0.39,0.19-0.66,0.19c-0.24,0-0.49-0.07-0.77-0.22
				c-0.27-0.15-0.58-0.32-0.93-0.5c-0.35-0.19-0.74-0.35-1.19-0.5c-0.44-0.15-0.95-0.23-1.52-0.23c-0.98,0-1.71,0.21-2.19,0.63
				c-0.48,0.42-0.72,0.98-0.72,1.7c0,0.45,0.14,0.83,0.43,1.13c0.29,0.3,0.67,0.56,1.14,0.77c0.47,0.22,1.01,0.42,1.61,0.6
				c0.61,0.18,1.22,0.38,1.85,0.6c0.63,0.22,1.25,0.48,1.85,0.78c0.6,0.3,1.14,0.68,1.61,1.15c0.47,0.47,0.85,1.03,1.14,1.7
				c0.29,0.67,0.43,1.47,0.43,2.41c0,1.04-0.18,2.02-0.54,2.93c-0.36,0.91-0.89,1.7-1.57,2.38c-0.69,0.68-1.54,1.21-2.54,1.6
				c-1.01,0.39-2.15,0.58-3.43,0.58c-0.7,0-1.42-0.07-2.15-0.22c-0.73-0.14-1.43-0.35-2.12-0.61c-0.68-0.26-1.32-0.57-1.92-0.94
				c-0.6-0.36-1.12-0.76-1.57-1.21l1.55-2.45c0.11-0.19,0.27-0.34,0.48-0.45c0.21-0.11,0.43-0.17,0.67-0.17
				c0.31,0,0.62,0.1,0.94,0.3c0.32,0.2,0.67,0.41,1.07,0.65c0.4,0.24,0.85,0.45,1.37,0.65c0.52,0.2,1.13,0.29,1.83,0.29
				c0.95,0,1.69-0.21,2.22-0.63s0.79-1.08,0.79-1.99c0-0.53-0.14-0.96-0.43-1.29c-0.29-0.33-0.67-0.6-1.14-0.82
				c-0.47-0.22-1.01-0.41-1.6-0.57c-0.6-0.17-1.21-0.35-1.84-0.55c-0.63-0.2-1.25-0.45-1.84-0.74c-0.6-0.3-1.13-0.68-1.6-1.16
				c-0.47-0.48-0.85-1.08-1.14-1.8c-0.29-0.72-0.43-1.6-0.43-2.66c0-0.85,0.17-1.67,0.51-2.48c0.34-0.81,0.84-1.52,1.5-2.15
				c0.66-0.63,1.47-1.13,2.43-1.51c0.96-0.38,2.06-0.56,3.3-0.56c0.69,0,1.37,0.05,2.02,0.16s1.28,0.27,1.87,0.48
				c0.59,0.21,1.14,0.46,1.65,0.76c0.51,0.29,0.97,0.63,1.37,1L478.39,29.74z"/>
		</g>
		<line class="st1" x1="117.12" y1="54.34" x2="480" y2="54.35"/>
	</g>
</g>
</svg>
