<?xml version="1.0" encoding="UTF-8" standalone="no"?>
<!-- Generator: Adobe Illustrator 22.1.0, SVG Export Plug-In . SVG Version: 6.00 Build 0)  -->

<svg
   xmlns:dc="http://purl.org/dc/elements/1.1/"
   xmlns:cc="http://creativecommons.org/ns#"
   xmlns:rdf="http://www.w3.org/1999/02/22-rdf-syntax-ns#"
   xmlns:svg="http://www.w3.org/2000/svg"
   xmlns="http://www.w3.org/2000/svg"
   xmlns:sodipodi="http://sodipodi.sourceforge.net/DTD/sodipodi-0.dtd"
   xmlns:inkscape="http://www.inkscape.org/namespaces/inkscape"
   version="1.1"
   id="Capa_1"
   x="0px"
   y="0px"
   viewBox="0 0 176.6 46.7"
   style="enable-background:new 0 0 176.6 46.7;"
   xml:space="preserve"
   sodipodi:docname="logo-bdcv.svg"
   inkscape:version="0.92.3 (2405546, 2018-03-11)"><metadata
   id="metadata77"><rdf:RDF><cc:Work
       rdf:about=""><dc:format>image/svg+xml</dc:format><dc:type
         rdf:resource="http://purl.org/dc/dcmitype/StillImage" /></cc:Work></rdf:RDF></metadata><defs
   id="defs75" /><sodipodi:namedview
   pagecolor="#ffffff"
   bordercolor="#666666"
   borderopacity="1"
   objecttolerance="10"
   gridtolerance="10"
   guidetolerance="10"
   inkscape:pageopacity="0"
   inkscape:pageshadow="2"
   inkscape:window-width="1920"
   inkscape:window-height="1025"
   id="namedview73"
   showgrid="false"
   inkscape:zoom="4.9377122"
   inkscape:cx="104.06108"
   inkscape:cy="37.455609"
   inkscape:window-x="0"
   inkscape:window-y="27"
   inkscape:window-maximized="1"
   inkscape:current-layer="layer4" />
<style
   type="text/css"
   id="style2">
	.st0{fill:#622222;}
	.st1{fill:#F2F2F2;}
</style>
<title
   id="title4">Logo-BDCV</title>
<g
   inkscape:groupmode="layer"
   id="layer4"
   inkscape:label="Layer 1"><rect
     style="fill:#ececec"
     id="rect116"
     width="23.299999"
     height="46.700001"
     x="0"
     y="0" /></g><g
   id="g70">
	<path
   class="st0"
   d="M0,46.7c0-0.1,0-0.3,0-0.4C0,31,0,15.7,0,0.4C0,0.3,0,0.2,0,0h23.3v1H1.5C1.1,1,1.1,1,1.1,1.4   c0,14.7,0,29.3,0,44c0,0.4,0,0.4,0.4,0.4h21.8v0.9L0,46.7z"
   id="path6" />
	<path
   class="st0"
   d="M23.3,22.2h-21V2.2h21V22.2z M5.8,11.6c0.1,0.8,0.2,1.6,0.3,2.3c0.4,2,1.8,3.7,3.7,4.6   c1.3,0.5,2.8,0.8,4.2,0.6c1.4-0.1,2.7-0.5,3.9-1.1c0.6-0.2,1-0.7,1-1.3c0,0,0,0,0-0.1c0.1-0.4,0.2-0.8,0.3-1.2c0-0.1,0-0.2-0.1-0.3   c-0.1,0-0.2,0-0.3,0.1c-0.1,0.2-0.3,0.4-0.4,0.6c-1.4,2-3.9,3-6.3,2.4c-1.2-0.4-2.3-1.1-3-2.2c-0.9-1.3-1.4-2.9-1.5-4.5   c-0.1-1.3,0.1-2.6,0.5-3.8c0.9-2.5,3.6-3.9,6.2-3.3c1.8,0.4,3.3,1.6,4,3.3c0.1,0.2,0.2,0.5,0.4,0.7c0.1,0.1,0.2,0.1,0.3,0.1   c0.1,0,0.2-0.2,0.2-0.3c0-0.3,0-0.5,0-0.8c-0.1-0.6-0.1-1.3-0.2-1.9c0-0.4-0.1-0.4-0.5-0.3c-0.2,0-0.3,0-0.5-0.1   c-0.4-0.2-0.8-0.5-1.2-0.7c-1.4-0.7-3-0.9-4.6-0.7c-1.5,0.1-2.9,0.8-3.9,1.8C6.7,7.2,5.8,9.3,5.8,11.6z"
   id="path8" />
	<path
   class="st0"
   d="M23.3,23.4v21.1H23c-6.8,0-13.6,0-20.4,0c-0.3,0-0.4-0.1-0.4-0.4c0-6.8,0-13.6,0-20.4c0-0.3,0.1-0.4,0.4-0.4   c6.8,0,13.6,0,20.4,0C23.1,23.3,23.2,23.3,23.3,23.4z M7.6,30l0.1,0c0.1,0.1,0.2,0.3,0.3,0.4c1.4,3.1,2.9,6.2,4.3,9.2   c0.1,0.2,0.2,0.5,0.5,0.5s0.4-0.3,0.5-0.5c0.8-1.6,1.5-3.1,2.3-4.7s1.5-3.1,2.3-4.7c0.1-0.2,0.3-0.3,0.4-0.4   c0.1,0.2,0.2,0.4,0.2,0.6c0,1.4,0.1,2.8,0.1,4.2c0,1.4,0,2.9,0.1,4.3c0,0.5-0.3,1-0.8,1.1c-0.1,0-0.2,0-0.2,0.1   c-0.1,0.1-0.2,0.2-0.2,0.4c0.1,0.1,0.2,0.2,0.4,0.2c0.3,0,0.5-0.1,0.8-0.1c0.9,0,1.8,0,2.7,0c0.2,0,0.3,0,0.5-0.1   c0.1,0,0.2-0.1,0.2-0.2c0-0.1-0.1-0.2-0.1-0.2c-0.1-0.1-0.3-0.1-0.4-0.2c-0.4-0.1-0.8-0.4-0.9-0.9c-0.1-0.4-0.2-0.8-0.2-1.2   c-0.1-2.8-0.1-5.7-0.2-8.5c0-0.6,0-1.2,0-1.8c0-0.6,0.4-1.1,1-1.2c0.2-0.1,0.5-0.1,0.5-0.4s-0.4-0.2-0.6-0.2   c-0.4,0-0.8,0.1-1.2,0.1c-0.4,0-0.8,0.2-0.9,0.6c-1.8,3.6-3.5,7.2-5.3,10.8c-0.1,0.2-0.2,0.3-0.4,0.5c-0.1-0.1-0.3-0.3-0.4-0.5   c-1.7-3.6-3.4-7.1-5.1-10.7c-0.1-0.4-0.5-0.7-0.9-0.7c-0.6,0-1.2,0-1.7-0.1c-0.2,0-0.4,0-0.5,0.3s0.2,0.3,0.3,0.4c0,0,0.1,0,0.1,0   c0.5,0.1,1,0.5,1.1,1c0.2,0.6,0.3,1.1,0.4,1.7c0,1.8,0,3.6-0.1,5.3c-0.1,1.5-0.3,2.9-0.4,4.4c0,0.6-0.5,1.1-1.1,1.2   c-0.2,0-0.3,0.2-0.3,0.4c0,0.2,0.2,0.3,0.4,0.3c0.2,0,0.4-0.1,0.6-0.1c0.9,0,1.9,0.1,2.8,0.1c0.2,0,0.5,0.1,0.6-0.2   c0.1-0.3-0.3-0.3-0.5-0.4c-0.8-0.1-1.4-0.8-1.3-1.7c0.1-2.6,0.1-5.3,0.2-7.9C7.6,30.3,7.6,30.2,7.6,30z"
   id="path10" />
	<path
   class="st1"
   d="M37.2,25.8C37.2,25.8,37.2,25.8,37.2,25.8c-0.1-0.7-0.1-0.7,0.6-0.7h138.9v0.7H37.2z"
   id="path12" />
	<path
   class="st1"
   d="M44.1,20.6c-0.1-0.4-0.1-0.4,0.3-0.5c0.1,0,0.3,0,0.4,0c0.6-0.1,0.8-0.2,0.8-0.9c0-0.5,0-1,0-1.5   c0-3.1,0-6.2,0-9.2c0-0.1,0-0.1,0-0.2c0-0.5-0.2-0.7-0.8-0.8c-0.2,0-0.4,0-0.6-0.1S44,7.3,44,7.2c0-0.1,0.1-0.2,0.2-0.2   C46.5,7,48.7,7,51,7c0.5,0,1,0.1,1.5,0.3c1.4,0.4,2.2,1.9,1.8,3.3c-0.1,0.3-0.2,0.6-0.4,0.8c-0.6,0.9-1.4,1.5-2.4,1.8   c0.1,0,0.2,0.1,0.3,0.1c1.1,0.1,2.2,0.7,2.9,1.6c1.1,1.6,0.6,3.7-0.9,4.7c0,0-0.1,0-0.1,0.1c-1,0.6-2.2,0.9-3.4,0.9c-2,0-4,0-6.1,0   C44.1,20.6,44.1,20.6,44.1,20.6z M47.8,16.7c0,0.9,0,1.9,0,2.8c0,0.1,0,0.3,0.2,0.3c0.7,0.1,1.4,0.2,2.1,0.2   c1.4,0.2,2.6-0.8,2.7-2.2c0.4-1.8-0.7-3.5-2.4-4c-0.7-0.2-1.5-0.3-2.3-0.2c-0.3,0-0.4,0.1-0.4,0.4C47.8,14.9,47.8,15.8,47.8,16.7   L47.8,16.7z M47.8,13c1,0.1,1.9,0,2.8-0.3c0.8-0.3,1.5-1,1.6-1.9c0.1-0.4,0.1-0.7,0-1.1c0-0.9-0.6-1.7-1.5-1.9   c-0.8-0.3-1.7-0.3-2.5-0.2c-0.5,0.1-0.4-0.1-0.4,0.5c0,1.5,0,3,0,4.6L47.8,13z"
   id="path14" />
	<path
   class="st1"
   d="M72.4,13.2c0.4,0.1,0.9,0.2,1.3,0.4c0.5,0.2,0.9,0.4,1.3,0.7c1.4,1.2,1.6,3.3,0.4,4.8c-0.3,0.3-0.6,0.6-1,0.8   c-1,0.5-2.1,0.8-3.2,0.8c-2,0-4,0-6,0c-0.1,0-0.1,0-0.2,0c-0.1-0.4-0.1-0.4,0.3-0.5c0.2,0,0.4,0,0.6-0.1c0.4-0.1,0.6-0.2,0.6-0.6   c0-0.5,0.1-1,0.1-1.5c0-3,0-6,0-9c0-0.2,0-0.4,0-0.6c0-0.5-0.2-0.7-0.7-0.7c-0.2,0-0.4,0-0.6,0s-0.3,0-0.3-0.3S65.2,7,65.4,7   c1.4,0,2.7,0,4.1,0C70.3,7,71.1,7,72,7c0.5,0,1,0.1,1.5,0.3c1.4,0.4,2.2,1.9,1.8,3.3c-0.1,0.3-0.2,0.6-0.4,0.8   c-0.5,0.8-1.4,1.4-2.3,1.7L72.4,13.2z M68.8,13.6c0,0.1,0,0.2,0,0.3c0,1.9,0,3.7,0,5.6c0,0.2,0,0.3,0.2,0.3   c0.9,0.2,1.8,0.3,2.7,0.2c0.8-0.1,1.5-0.5,1.9-1.2c0.7-1.4,0.4-3.1-0.7-4.2C71.6,13.6,70.2,13.6,68.8,13.6L68.8,13.6z M68.8,13.1   c0.7,0,1.4,0,2.1-0.1c1.4-0.1,2.5-1.3,2.4-2.7c0,0,0,0,0,0c0.1-1.2-0.7-2.3-1.9-2.5c-0.7-0.2-1.5-0.2-2.3-0.1   c-0.2,0-0.3,0.1-0.3,0.3c0,1.6,0,3.2,0,4.8C68.8,12.8,68.8,12.9,68.8,13.1L68.8,13.1z"
   id="path16" />
	<path
   class="st1"
   d="M106.2,6.6c1.5,0,3,0.4,4.3,1.3c1.4,1,2.4,2.5,2.6,4.2c0.4,1.7,0.1,3.4-0.6,5c-1.1,2.1-3.2,3.6-5.5,3.8   c-1.5,0.2-3,0-4.4-0.5c-2.1-0.9-3.5-2.8-3.8-5c-0.3-1.4-0.1-2.9,0.5-4.3c1-2.3,3-3.9,5.5-4.2C105.2,6.7,105.7,6.7,106.2,6.6z    M111.1,13.9c0-1.5-0.4-3-1.2-4.3c-1.1-1.8-3.2-2.7-5.2-2.2c-1.5,0.3-2.7,1.4-3.2,2.8c-0.8,2-0.9,4.2-0.2,6.3   c0.6,2.4,2.9,3.9,5.3,3.7c1.4-0.1,2.7-0.8,3.5-2.1C110.8,16.9,111.2,15.4,111.1,13.9L111.1,13.9z"
   id="path18" />
	<path
   class="st1"
   d="M128.5,20.6v-0.5c0.4,0,0.7-0.1,1.1-0.1c0.6-0.1,0.7-0.2,0.8-0.8c0-0.6,0.1-1.2,0.1-1.9c0-2.7,0-5.4,0-8.1   c0-0.4,0-0.8-0.1-1.2c0-0.3-0.2-0.6-0.5-0.6c-0.1,0-0.3,0-0.4-0.1c-0.3,0-0.5,0-0.8-0.1c0,0-0.1,0-0.1,0V7h10.9   c0.2,0.9,0.3,1.9,0.3,2.8c0,0.3-0.3,0.2-0.4,0.2c-0.1,0-0.2-0.1-0.2-0.2c-0.2-0.4-0.3-0.8-0.4-1.2c-0.2-0.5-0.7-0.9-1.2-1   c-0.7-0.1-1.3-0.1-2-0.2c-0.8,0-1.7,0-2.5,0c0,0.1,0,0.2,0,0.3c0,1.7,0,3.4,0,5.1c0,0.2,0.1,0.3,0.3,0.3c1.2,0,2.3,0,3.5-0.1   c0.7,0,1-0.3,1.1-1c0-0.2,0.1-0.3,0.1-0.5h0.6v3.7c-0.2,0-0.3,0-0.5,0c-0.1,0-0.2-0.1-0.2-0.2c0-0.2-0.1-0.3-0.1-0.5   c0-0.5-0.4-0.9-0.9-0.8c0,0,0,0,0,0c-1,0-2-0.1-2.9-0.1c-0.3,0-0.6,0-1,0c0,0.1,0,0.2,0,0.3c0,1.8,0,3.6,0,5.4   c0,0.2,0.1,0.3,0.3,0.4c1.2,0.2,2.4,0.3,3.7,0.2c0.6-0.1,1.1-0.2,1.6-0.3c0.7-0.2,1.2-0.6,1.4-1.3c0.1-0.4,0.3-0.7,0.4-1.1   s0.4-0.1,0.5-0.2c0.2,0,0.2,0.2,0.2,0.3c-0.1,1-0.4,2-0.8,3c-0.1,0.1-0.2,0.2-0.3,0.2c-0.6,0-1.2,0-1.8,0L128.5,20.6L128.5,20.6z"
   id="path20" />
	<path
   class="st1"
   d="M150.3,6.6c1.1,0,2.3,0.2,3.4,0.5c0.5,0.1,0.9,0.5,0.9,1.1c0,0.7,0.1,1.4,0.2,2.1c0,0.3-0.2,0.2-0.4,0.3   c-0.2,0.1-0.2,0-0.3-0.2c-0.1-0.3-0.1-0.5-0.2-0.8c-0.3-1.2-1.3-2-2.5-2.2c-1.2-0.3-2.4-0.2-3.6,0.3c-1.5,0.6-2.6,1.9-2.9,3.4   c-0.6,2-0.4,4.2,0.5,6.1c1.2,2.6,4.3,3.8,6.9,2.6c0.1,0,0.1,0,0.1-0.1c0.6-0.3,1-0.7,1.3-1.3c0.3-0.6,0.6-1.2,0.8-1.8   c0.1-0.3,0.3-0.2,0.5-0.2c0.2,0,0.2,0.2,0.2,0.3c-0.1,1-0.4,2.1-0.8,3c-0.1,0.1-0.2,0.2-0.3,0.3c-1,0.4-2.1,0.6-3.1,0.7   c-1.5,0.1-3,0-4.4-0.5c-2.4-0.8-4.1-3-4.2-5.6c-0.2-1.3,0-2.7,0.5-4c0.8-1.8,2.3-3.2,4.2-3.7c0.4-0.1,0.9-0.2,1.3-0.3   C149.1,6.7,149.7,6.7,150.3,6.6z"
   id="path22" />
	<path
   class="st1"
   d="M156.1,20.2C156.1,20.2,156.1,20.2,156.1,20.2c0.9,0,1.3-0.6,1.7-1.4c1.6-3.9,3.2-7.7,4.8-11.6   c0.1-0.3,0.4-0.6,0.8-0.6l0.8,2.1l4,10.2c0,0.1,0.1,0.2,0.1,0.3c0.1,0.5,0.6,0.9,1.2,0.9c0.2,0,0.3,0,0.5,0.1v0.4h-5.1v-0.4   c0.3-0.1,0.6-0.1,0.9-0.2c0.1,0,0.2-0.1,0.3-0.1c0.3-0.1,0.4-0.2,0.2-0.5c-0.3-0.9-0.7-1.8-1-2.7c-0.1-0.4-0.3-0.7-0.4-1.1   c0-0.2-0.2-0.3-0.3-0.3c-1.3-0.2-2.7-0.2-4,0c-0.1,0-0.2,0.1-0.3,0.2c-0.5,1.2-0.9,2.5-1.3,3.7c-0.2,0.6-0.1,0.8,0.5,0.9   c0.2,0,0.4,0,0.6,0.1s0.4,0.1,0.6,0.1v0.5h-4C156,20.6,156,20.6,156.1,20.2z M160.4,14.4h3.8l-1.9-4.9L160.4,14.4z"
   id="path24" />
	<path
   class="st1"
   d="M127.2,10.2c-0.5,0.1-0.5,0.1-0.6-0.4s-0.2-0.8-0.3-1.2c-0.1-0.5-0.6-0.9-1.1-0.9c-1-0.1-2-0.2-3-0.2   c0,0.1,0,0.2,0,0.3c0,3.4,0,6.8,0,10.2c0,0.4,0.1,0.9,0.1,1.3c0,0.3,0.2,0.5,0.5,0.6c0.3,0.1,0.7,0.1,1,0.1c0.1,0,0.2,0,0.3,0v0.4   h-5.7v-0.4c0.3,0,0.7-0.1,1-0.1c0.6-0.1,0.8-0.2,0.9-0.9c0.1-0.7,0.1-1.3,0.1-2c0-3.1,0-6.2,0-9.3c0-0.3-0.1-0.4-0.4-0.4   c-0.9,0.1-1.8,0.1-2.7,0.2c-0.5,0-0.9,0.4-1.1,0.9c-0.1,0.4-0.3,0.8-0.4,1.3s-0.1,0.4-0.5,0.3c0-0.7,0-1.5,0-2.2   c0-0.3,0.1-0.6,0.1-0.8c0-0.1,0.1-0.1,0.2-0.2c0,0,0.1,0,0.2,0c3.6,0,7.2,0,10.9,0c0.3,0,0.4,0.1,0.4,0.4   C127.2,8.3,127.2,9.3,127.2,10.2z"
   id="path26" />
	<path
   class="st1"
   d="M83.6,7.4c-0.3,0-0.5,0.1-0.8,0.1c-0.6,0-0.8,0.2-0.8,0.8c0,0.6-0.1,1.3-0.1,1.9c0,3.1,0,6.1,0,9.2   c0,0.3,0.1,0.4,0.4,0.4c1.2,0.2,2.4,0.2,3.5,0.1c1.1-0.1,2-0.8,2.2-1.9c0.1-0.2,0.2-0.5,0.2-0.7c0.1-0.3,0.2-0.2,0.4-0.2   c0.2,0,0.2,0.2,0.2,0.3c-0.1,1-0.3,2-0.7,3c-0.1,0.2-0.2,0.2-0.3,0.2h-9.7v-0.5c0.3,0,0.6,0,0.9-0.1c0.5-0.1,0.7-0.2,0.7-0.7   c0-0.5,0.1-0.9,0.1-1.4c0-3,0-6,0-8.9c0-0.3,0-0.6-0.1-0.9c0-0.3-0.2-0.5-0.5-0.6c-0.3,0-0.5-0.1-0.8-0.1c-0.2,0-0.4,0-0.4-0.3   S78.4,7,78.5,7c1.6,0,3.2,0,4.7,0C83.6,7,83.6,7,83.6,7.4z"
   id="path28" />
	<path
   class="st1"
   d="M95.8,7.4L95,7.5c-0.5,0-0.7,0.2-0.7,0.7c0,0.5-0.1,1.1-0.1,1.6c0,3,0,6,0,9c0,0.3,0,0.5,0,0.8   c0,0.3,0.2,0.5,0.5,0.5c0.3,0,0.6,0.1,0.9,0.1v0.4h-5c-0.1-0.4-0.1-0.4,0.3-0.5c1.1-0.1,1.1-0.1,1.2-1.2c0-0.5,0-1,0-1.5   c0-2.6,0-5.3,0-7.9c0-0.4,0-0.9-0.1-1.3c0-0.5-0.2-0.7-0.7-0.7c-0.3,0-0.5,0-0.7-0.1C90.7,7,90.7,7,91.1,7h4.3   C95.9,7,95.9,7,95.8,7.4z"
   id="path30" />
	<path
   class="st1"
   d="M62.4,20.6h-5v-0.4c0.2,0,0.5,0,0.7-0.1c0.6-0.1,0.8-0.2,0.8-0.8c0-0.5,0-1,0-1.5c0-3,0-6,0-8.9   c0-0.2,0-0.5,0-0.7c0-0.3-0.3-0.6-0.6-0.6c0,0,0,0,0,0c-0.2,0-0.4,0-0.6-0.1c-0.2,0-0.2-0.1-0.2-0.3C57.3,7,57.4,7,57.6,7   c1.5,0,3.1,0,4.6,0c0.1,0,0.2,0,0.2,0.2s0,0.3-0.2,0.3s-0.4,0-0.6,0c-0.5,0-0.7,0.2-0.7,0.7c0,0.6-0.1,1.3-0.1,1.9   c0,2.6,0,5.3,0,7.9c0,0.5,0,0.9,0.1,1.4c0,0.3,0.2,0.6,0.5,0.6c0,0,0,0,0,0c0.2,0,0.4,0,0.6,0.1C62.4,20.2,62.4,20.2,62.4,20.6z"
   id="path32" />
	<path
   class="st1"
   d="M55.4,33.1l1,2.3c0.5,1.2,1,2.4,1.5,3.6c0.1,0.4,0.5,0.7,0.9,0.6c0.4,0,0.6-0.2,0.7-0.6c0-0.4,0-0.7,0-1.1   c0-1.5,0-3,0-4.4c0-0.1,0.1-0.2,0.1-0.3c0.1,0,0.2,0.1,0.3,0.1c1.7,1.6,3.3,3.3,5,4.9c0,0,0.1,0.1,0.1,0.1c0,0,0-0.1,0-0.1   c0-1.2,0-2.4,0-3.7c0-0.1,0-0.2,0-0.3c0-0.6-0.1-0.7-0.7-0.8c-0.1,0-0.2-0.1-0.2-0.1c0.1,0,0.2-0.1,0.2-0.1c0.6,0,1.3,0,1.9,0   c0.1,0,0.2,0.1,0.2,0.1c-0.1,0-0.1,0.1-0.2,0.1c-0.4,0.1-0.6,0.2-0.6,0.6c0,0.3,0,0.5,0,0.8c0,1.6,0,3.1,0,4.7   c0,0.1-0.1,0.2-0.1,0.4c-0.1,0-0.2-0.1-0.3-0.2c-1.6-1.6-3.3-3.2-4.9-4.8c0,0-0.1-0.1-0.2-0.2c0,0.1,0,0.1,0,0.2c0,1.3,0,2.6,0,3.9   c0,0.6,0.1,0.7,0.7,0.7c0.1,0,0.1,0,0.2,0c0,0,0.1,0.1,0.1,0.1c0,0-0.1,0.1-0.1,0.1c-0.1,0-0.1,0-0.2,0c-1.4,0-2.8,0-4.3,0   c-0.1,0-0.2-0.1-0.3-0.1c0.1-0.1,0.2-0.1,0.3-0.2c0,0,0.1,0,0.1,0c0.4-0.1,0.4-0.1,0.3-0.5c-0.2-0.5-0.4-1.1-0.6-1.6   c0-0.2-0.2-0.3-0.3-0.3c-0.6,0-1.3,0-1.9,0c-0.1,0-0.2,0.1-0.3,0.2c-0.2,0.6-0.5,1.1-0.7,1.7c-0.1,0.3,0,0.4,0.3,0.5   c0.1,0,0.3,0,0.4,0.1c0,0,0.1,0.1,0.1,0.1c0,0-0.1,0.1-0.1,0.1c-0.7,0-1.4,0-2,0c0,0-0.1-0.1-0.1-0.1c0-0.1,0.1-0.1,0.1-0.1   c0.5,0,0.7-0.4,0.8-0.8c0.8-1.8,1.6-3.6,2.4-5.4C55,33.2,55.2,33.1,55.4,33.1z M54,36.9h2l-1-2.4L54,36.9z"
   id="path34" />
	<path
   class="st1"
   d="M165.5,39.6c-0.1-0.5-0.2-1-0.2-1.5c0-0.3,0.1-0.4,0.3-0.3c0.1,0.3,0.2,0.6,0.3,0.8c0.4,0.8,1.4,1.3,2.2,1   c0.6-0.2,1-0.8,0.8-1.4c0-0.1-0.1-0.2-0.2-0.4c-0.2-0.3-0.5-0.5-0.8-0.7c-0.4-0.3-0.9-0.5-1.3-0.7c-0.5-0.3-0.9-0.7-1.1-1.3   c-0.2-0.8,0.2-1.6,1-1.9c0.8-0.3,1.7-0.3,2.5,0c0.2,0,0.3,0.2,0.3,0.4c0,0.4,0,0.7,0.1,1c-0.2,0.1-0.3,0-0.4-0.2   c-0.1-0.7-0.8-1.3-1.5-1.2c0,0-0.1,0-0.1,0c-0.4,0-0.8,0.3-1,0.7c-0.2,0.4,0,0.9,0.3,1.1c0.3,0.3,0.7,0.5,1.1,0.7   c0.4,0.2,0.8,0.4,1.2,0.7c0.8,0.5,1,1.6,0.5,2.4c-0.2,0.3-0.4,0.5-0.7,0.6c-0.9,0.4-1.9,0.5-2.8,0.2c-0.1,0-0.2-0.1-0.4,0   c0,0-0.1,0-0.2,0c-0.7,0-1.5,0-2.2,0c-0.1,0-0.2,0-0.2-0.1c0.1-0.1,0.1-0.2,0.2-0.2c0.8-0.1,0.6-0.2,0.4-0.7   c-0.2-0.5-0.4-0.9-0.6-1.4c0-0.2-0.2-0.3-0.3-0.3c-0.6,0-1.3,0-1.9,0c-0.1,0-0.2,0.1-0.3,0.2c-0.2,0.5-0.4,1.1-0.7,1.7   c-0.1,0.3,0,0.4,0.3,0.5c0.1,0,0.3,0,0.4,0c0.1,0,0.1,0.1,0.2,0.1c-0.1,0-0.1,0.1-0.2,0.1c-0.2,0-0.5,0-0.7,0c-0.4,0-0.8,0-1.2,0   c-0.1,0-0.1-0.1-0.2-0.1c0.1,0,0.1-0.1,0.2-0.1c0.4,0,0.6-0.3,0.7-0.6c0.8-1.9,1.7-3.7,2.5-5.6c0,0,0-0.1,0.1-0.1   c0.1-0.1,0.2-0.2,0.3-0.2c0,0,0.1,0.1,0.2,0.2c0.8,1.9,1.6,3.7,2.3,5.6c0.1,0.1,0.1,0.3,0.2,0.4C165,39.5,165.2,39.6,165.5,39.6z    M160.8,36.9h2l-1-2.4L160.8,36.9z"
   id="path36" />
	<path
   class="st1"
   d="M44.8,36.6c0-0.8,0-1.6,0-2.5c0-0.6,0-0.6-0.6-0.6c-0.1,0-0.1-0.1-0.2-0.1c0.1,0,0.1-0.1,0.2-0.1   c1.4,0,2.8,0,4.3,0.1c0.9,0,1.8,0.5,2.3,1.2c1,1.6,0.6,3.7-1,4.7c-0.1,0.1-0.2,0.1-0.3,0.2c-0.8,0.4-1.6,0.5-2.5,0.5   c-0.9,0-1.8,0-2.7,0c-0.1,0-0.2-0.1-0.3-0.1c0.1-0.1,0.2-0.1,0.2-0.1c0.5-0.1,0.5-0.1,0.5-0.6C44.8,38.2,44.8,37.4,44.8,36.6   L44.8,36.6z M45.9,36.5c0,0.9,0,1.7,0,2.6c0,0.1,0,0.3,0.2,0.3c0.5,0.1,1.1,0.1,1.6,0.1c1.1,0,2.1-0.8,2.4-1.8c0.2-0.7,0.2-1.4,0-2   c-0.2-0.9-0.9-1.7-1.8-1.9c-0.7-0.2-1.5-0.2-2.2-0.1c-0.2,0-0.3,0.1-0.3,0.3C45.9,34.8,45.9,35.7,45.9,36.5L45.9,36.5z"
   id="path38" />
	<path
   class="st1"
   d="M113.8,40c-0.9,0-1.9-0.3-2.6-0.9c-1.4-1.3-1.5-3.5-0.2-4.9c0.1-0.2,0.3-0.3,0.5-0.4c1.3-0.9,3-1.1,4.5-0.3   c1.3,0.6,2,2,1.8,3.4c-0.2,1.7-1.6,3-3.3,3.1C114.2,40,114,40,113.8,40z M116.6,36.7c0-0.9-0.3-1.7-0.8-2.5   c-0.9-1.1-2.5-1.2-3.6-0.3c-0.2,0.2-0.3,0.3-0.5,0.5c-0.7,1.3-0.7,2.9,0.2,4.2c0.6,0.8,1.6,1.2,2.6,1c0.9-0.1,1.6-0.7,1.8-1.6   C116.5,37.7,116.5,37.2,116.6,36.7L116.6,36.7z"
   id="path40" />
	<path
   class="st1"
   d="M96.8,40.1c-0.6-0.1-1.1-0.2-1.7-0.4c-1.4-0.5-2.2-1.9-2-3.4c0.1-1.7,1.5-3.1,3.1-3.3c0.8-0.1,1.6-0.1,2.3,0.2   c1.6,0.5,2.5,2.2,2.1,3.8c-0.3,1.6-1.6,2.8-3.2,2.9C97.3,40,97.1,40,96.8,40.1L96.8,40.1z M99.7,36.8c0-0.8-0.3-1.6-0.7-2.2   c-0.8-1.2-2.4-1.5-3.6-0.6c-0.3,0.2-0.5,0.4-0.7,0.7c-0.7,1.3-0.6,2.9,0.2,4.2c0.6,0.8,1.6,1.2,2.6,1c0.9-0.1,1.6-0.7,1.9-1.5   C99.5,37.7,99.6,37.2,99.7,36.8L99.7,36.8z"
   id="path42" />
	<path
   class="st1"
   d="M156.8,37.6c0.4,0,0.8,0,1.2,0c0.1,0,0.1,0.1,0.2,0.1c-0.1,0-0.1,0.1-0.2,0.1c-0.3,0-0.4,0.2-0.4,0.5   c0,0.2,0,0.4,0,0.6c0,0.2,0,0.3,0.2,0.4c0,0,0.1,0.1,0.1,0.1c0,0.1-0.1,0.1-0.2,0.1c-1,0.3-2,0.5-3,0.4c-0.5,0-1-0.1-1.5-0.3   c-1.5-0.5-2.4-1.9-2.2-3.5c0.1-1.7,1.5-3,3.2-3.1c0.9-0.2,1.9-0.1,2.8,0.2c0.2,0,0.4,0.2,0.4,0.5c0,0.3,0.1,0.7,0.1,1   c0,0.1-0.1,0.2-0.2,0.2c-0.1-0.1-0.2-0.1-0.2-0.2c-0.2-0.9-1-1.5-2-1.4c-1-0.1-2,0.3-2.6,1.2c-0.8,1.4-0.6,3.1,0.5,4.3   c0.4,0.4,1,0.7,1.7,0.7c0.5,0,1,0,1.5-0.1c0.2,0,0.2-0.1,0.2-0.3c0-0.3,0-0.6,0-1c0-0.2-0.2-0.4-0.4-0.5c0,0,0,0,0,0   c-0.2,0-0.3,0-0.5-0.1c-0.1,0-0.2-0.1-0.2-0.1c0.1,0,0.2-0.1,0.3-0.1C156.1,37.6,156.4,37.6,156.8,37.6z"
   id="path44" />
	<path
   class="st1"
   d="M72.8,36.6c0,0.1,0,0.2,0,0.2c0,0.8,0,1.6,0,2.4c0,0.1,0.1,0.3,0.2,0.3c0.7,0.2,1.4,0.2,2,0   c0.4-0.1,0.8-0.4,0.9-0.8c0-0.1,0.1-0.2,0.1-0.4c0-0.1,0.1-0.1,0.2-0.1c0,0,0.1,0.1,0.1,0.2c-0.1,0.5-0.2,0.9-0.3,1.4   c0,0.1-0.1,0.1-0.2,0.1c-1.5,0-3.1,0-4.6,0c-0.1,0-0.1-0.1-0.2-0.1c0.1,0,0.1-0.1,0.2-0.1c0.1,0,0.2,0,0.2,0c0.3,0,0.4-0.2,0.4-0.4   c0-0.3,0-0.7,0-1c0-1.4,0-2.8,0-4.2c0-0.5-0.1-0.5-0.6-0.6c-0.1,0-0.2-0.1-0.2-0.1c0.1,0,0.2-0.1,0.3-0.1c1.4,0,2.8,0,4.2,0   c0.2,0,0.3,0.1,0.3,0.3c0,0.3,0.1,0.7,0.1,1c0,0.1-0.1,0.2-0.1,0.2c-0.1-0.1-0.2-0.1-0.2-0.2c-0.3-0.9-0.4-1-1.4-1   c-0.4,0-0.9,0-1.3,0v2.8c0.6,0,1.2,0,1.8-0.1c0.1,0,0.2-0.3,0.3-0.4c0.1-0.1,0.1-0.2,0.2-0.2c0,0.1,0.1,0.2,0.1,0.3   c0,0.5,0,1,0,1.5c-0.2,0.1-0.3,0-0.3-0.2c-0.1-0.4-0.2-0.5-0.6-0.5C73.8,36.6,73.3,36.6,72.8,36.6z"
   id="path46" />
	<path
   class="st1"
   d="M146.3,33.5c0,0.9,0,1.7,0,2.6c0,0.1,0.1,0.2,0.2,0.2c0.4,0,0.9,0,1.3,0c0.4,0,0.5-0.1,0.6-0.5   c0-0.1,0.1-0.2,0.2-0.2c0,0.1,0.1,0.2,0.1,0.3c0,0.5,0,1,0,1.5c-0.2,0.1-0.3,0-0.3-0.2c-0.1-0.4-0.2-0.5-0.6-0.5s-0.9,0-1.3,0   c-0.2,0-0.2,0.1-0.2,0.2c0,0.8,0,1.6,0,2.4c0,0.1,0.1,0.2,0.2,0.2c0.7,0.1,1.3,0.1,2,0c0.4-0.1,0.8-0.4,0.9-0.8   c0-0.1,0.1-0.3,0.1-0.4c0-0.1,0.1-0.1,0.2-0.1c0.1,0,0.1,0.1,0.1,0.1c-0.1,0.5-0.2,1-0.3,1.5c0,0-0.1,0.1-0.2,0.1   c-1.5,0-3.1,0-4.6,0c-0.1,0-0.1-0.1-0.2-0.1c0.1,0,0.1-0.1,0.2-0.1c0.1,0,0.1,0,0.2,0c0.3,0,0.4-0.2,0.4-0.4c0-0.9,0-1.8,0-2.6   c0-0.8,0-1.7,0-2.5c0-0.4-0.1-0.5-0.5-0.5c-0.1,0-0.2,0-0.2,0c0,0-0.1-0.1-0.1-0.1c0,0,0-0.1,0.1-0.1c0,0,0.1,0,0.1,0   c1.4,0,2.8,0,4.2,0c0.2,0,0.3,0.1,0.3,0.3c0,0.4,0.1,0.7,0.1,1.1c0,0.1-0.1,0.1-0.1,0.2c-0.1-0.1-0.2-0.1-0.2-0.2   c-0.2-0.8-0.2-1-1.4-1C147.1,33.5,146.7,33.5,146.3,33.5z"
   id="path48" />
	<path
   class="st1"
   d="M90.1,40.1c-0.6-0.1-1.2-0.2-1.8-0.3c-1.5-0.4-2.5-1.8-2.4-3.3c-0.1-1.5,1-2.9,2.4-3.2c1.1-0.3,2.3-0.3,3.4,0   c0.4,0.1,0.6,0.3,0.6,0.7c0,0.3,0.1,0.5,0.1,0.8c0,0.1-0.1,0.2-0.1,0.3c-0.1-0.1-0.2-0.1-0.2-0.2c-0.2-0.9-1-1.5-1.9-1.4   c-0.4,0-0.8,0-1.2,0.1c-0.9,0.2-1.5,0.9-1.7,1.8c-0.4,1.2-0.1,2.6,0.7,3.5c0.9,0.9,2.3,1.1,3.4,0.5c0.2-0.2,0.5-0.4,0.6-0.6   c0.1-0.2,0.2-0.4,0.3-0.7c0-0.1,0.1-0.1,0.2-0.1c0.1,0,0.1,0.1,0.1,0.2c-0.1,0.5-0.2,0.9-0.4,1.4c-0.1,0.1-0.2,0.2-0.3,0.2   C91.3,39.9,90.7,40,90.1,40.1z"
   id="path50" />
	<path
   class="st1"
   d="M127.9,33.3c-0.1,0.1-0.1,0.2-0.2,0.2c-0.3,0.1-0.6,0.3-0.7,0.6c-0.7,1.4-1.3,2.9-2,4.3   c-0.2,0.4-0.4,0.9-0.6,1.3c-0.1,0.1-0.2,0.2-0.4,0.3c-0.1-0.1-0.2-0.2-0.2-0.3c-0.8-1.9-1.7-3.8-2.5-5.7c-0.1-0.3-0.3-0.6-0.7-0.6   c-0.1,0-0.1-0.1-0.1-0.1c0.1,0,0.1-0.1,0.2-0.1c0.8,0,1.6,0,2.4,0c0.1,0,0.1,0.1,0.2,0.1c-0.1,0-0.1,0.1-0.2,0.1   c-0.7,0.2-0.7,0.2-0.5,0.9c0.6,1.4,1.2,2.8,1.8,4.3c0-0.1,0.1-0.1,0.1-0.1c0.6-1.4,1.2-2.9,1.8-4.3c0.2-0.5,0.1-0.5-0.4-0.6   c-0.1,0-0.4,0.1-0.4-0.2c0.1-0.1,0.3-0.1,0.4-0.1C126.6,33.2,127.2,33.2,127.9,33.3L127.9,33.3z"
   id="path52" />
	<path
   class="st1"
   d="M105.7,34.7c-0.3,0.1-0.3,0-0.4-0.2c-0.1-0.5-0.4-0.9-0.9-1.1c-0.4-0.1-0.8-0.1-1.2,0.1   c-0.5,0.2-0.7,0.8-0.4,1.3c0.1,0.1,0.1,0.2,0.2,0.3c0.3,0.2,0.6,0.5,0.9,0.6c0.4,0.2,0.8,0.5,1.3,0.7c0.7,0.3,1.1,1.1,1,1.9   c-0.1,0.7-0.7,1.3-1.4,1.5c-0.8,0.3-1.8,0.2-2.6-0.1c-0.2-0.1-0.3-0.2-0.4-0.4c-0.1-0.4-0.2-0.9-0.2-1.3c0-0.1,0-0.2,0.1-0.2   c0,0,0.1,0,0.1,0c0.1,0,0.2,0.1,0.2,0.2c0.1,0.8,0.7,1.4,1.4,1.6c0.3,0.1,0.6,0.1,0.8,0c0.6-0.1,1.1-0.7,1-1.3   c0-0.2-0.1-0.4-0.3-0.6c-0.3-0.3-0.6-0.5-1-0.7c-0.3-0.2-0.7-0.3-1-0.5c-0.5-0.3-0.9-0.7-1.1-1.3c-0.2-0.7,0.1-1.4,0.7-1.7   c0.9-0.5,2-0.6,2.9-0.1c0.1,0,0.2,0.1,0.2,0.2C105.6,33.9,105.6,34.3,105.7,34.7z"
   id="path54" />
	<path
   class="st1"
   d="M79.8,39.9c-0.7,0-1.5,0-2.2,0c-0.1,0-0.2-0.1-0.3-0.1c0.1-0.1,0.2-0.1,0.3-0.1c0.5-0.1,0.5-0.1,0.6-0.6   c0-1.7,0-3.3,0-5c0-0.5,0-0.5-0.6-0.6c-0.1,0-0.2-0.1-0.2-0.1c0.1,0,0.2-0.1,0.2-0.1c0.7,0,1.5,0,2.2,0c0.1,0,0.1,0.1,0.2,0.1   c-0.1,0-0.1,0.1-0.2,0.1c-0.6,0.1-0.6,0.1-0.6,0.7c0,1.7,0,3.4,0,5.1c0,0.2,0,0.3,0.2,0.3c0.5,0,1.1,0,1.6,0c0.6,0,1-0.4,1.1-1   c0-0.1,0-0.2,0.1-0.3c0-0.1,0.1-0.1,0.2-0.1c0.1,0,0.1,0.1,0.1,0.1c-0.1,0.5-0.2,1-0.3,1.4c0,0.1-0.2,0.1-0.3,0.1   C81.3,39.9,80.6,39.9,79.8,39.9z"
   id="path56" />
	<path
   class="st1"
   d="M132.8,36.6c0-0.8,0-1.6,0-2.4c0-0.6,0-0.6-0.6-0.7c-0.1,0-0.1-0.1-0.2-0.1c0.1,0,0.2-0.1,0.2-0.1   c0.7,0,1.5,0,2.2,0c0.1,0,0.2,0.1,0.2,0.1c-0.1,0-0.1,0.1-0.2,0.1c-0.6,0.1-0.6,0.1-0.6,0.7c0,1.7,0,3.4,0,5.1c0,0.2,0,0.3,0.2,0.3   c0.6,0,1.1,0.1,1.7,0c0.6,0,1-0.4,1.1-0.9c0-0.1,0.1-0.2,0.1-0.3c0-0.1,0.1-0.1,0.2-0.1c0.1,0,0.1,0.1,0.1,0.2   c-0.1,0.5-0.2,1-0.3,1.4c0,0.1-0.1,0.1-0.2,0.1c-1.5,0-3,0-4.5,0c-0.1,0-0.1-0.1-0.2-0.1c0.1,0,0.1-0.1,0.2-0.1   c0.5,0,0.6-0.1,0.6-0.7C132.8,38.2,132.8,37.4,132.8,36.6z"
   id="path58" />
	<path
   class="st1"
   d="M138.8,36.6c0-0.9,0-1.7,0-2.6c0-0.4-0.1-0.5-0.5-0.5c0,0-0.1,0-0.1,0c-0.1,0-0.1-0.1-0.2-0.1   c0.1,0,0.1-0.1,0.2-0.1c0.6,0,1.2,0,1.8,0c0.2,0,0.3,0,0.5,0c0.1,0,0.1,0.1,0.2,0.1c-0.1,0-0.1,0.1-0.2,0.1c-0.6,0-0.6,0-0.6,0.8   c0,1.7,0,3.4,0,5c0,0.1,0.1,0.2,0.2,0.3c0.6,0.1,1.3,0.1,2,0c0.4-0.1,0.8-0.4,0.9-0.9c0-0.1,0.1-0.2,0.1-0.3c0-0.1,0.1-0.1,0.2-0.1   c0,0.1,0.1,0.1,0.1,0.2c-0.1,0.5-0.2,0.9-0.3,1.4c0,0.1-0.1,0.1-0.2,0.1c-1.5,0-3,0-4.5,0c-0.1,0-0.1-0.1-0.2-0.1   c0,0,0.1-0.1,0.2-0.1c0.1,0,0.1,0,0.2,0c0.3,0,0.4-0.2,0.4-0.5C138.8,38.3,138.8,37.4,138.8,36.6L138.8,36.6z"
   id="path60" />
	<path
   class="st1"
   d="M129.3,33.2c0.4,0,0.7,0,1.1,0c0.1,0,0.1,0.1,0.2,0.1c-0.1,0-0.1,0.1-0.2,0.1c-0.6,0.1-0.6,0.1-0.6,0.7   c0,1.6,0,3.3,0,4.9c0,0.6,0,0.6,0.6,0.7c0.1,0,0.2,0.1,0.2,0.1c-0.1,0-0.2,0.1-0.3,0.1c-0.7,0-1.4,0-2.1,0c-0.1,0-0.2-0.1-0.2-0.1   c0.1,0,0.1-0.1,0.2-0.1c0.6-0.1,0.6-0.1,0.6-0.7c0-1.6,0-3.2,0-4.9c0-0.6,0-0.6-0.6-0.7c-0.1,0-0.1-0.1-0.2-0.1   c0.1,0,0.1-0.1,0.2-0.1C128.6,33.2,128.9,33.2,129.3,33.2z"
   id="path62" />
	<path
   class="st1"
   d="M108,39.9c-0.4,0-0.7,0-1.1,0c-0.1,0-0.1-0.1-0.2-0.1c0.1,0,0.1-0.1,0.2-0.1c0.1,0,0.2,0,0.2,0   c0.3,0,0.4-0.2,0.4-0.4c0-1,0-1.9,0-2.9c0-0.8,0-1.5,0-2.3c0-0.4-0.1-0.5-0.5-0.5c0,0-0.1,0-0.1,0c-0.1,0-0.1-0.1-0.2-0.1   c0.1,0,0.1-0.1,0.2-0.1c0.4,0,0.9,0,1.3,0c0.3,0,0.6,0,1,0c0.1,0,0.1,0.1,0.2,0.1c-0.1,0-0.1,0.1-0.2,0.1c-0.7,0.1-0.6,0.1-0.6,0.7   c0,1.7,0,3.3,0,5c0,0.4,0,0.5,0.5,0.5c0,0,0.1,0,0.1,0c0.1,0,0.1,0.1,0.2,0.1c-0.1,0-0.1,0.1-0.2,0.1   C108.7,39.9,108.3,39.9,108,39.9z"
   id="path64" />
	<path
   class="st1"
   d="M69.1,36.6c0,0.8,0,1.6,0,2.4c0,0.5,0,0.6,0.6,0.6c0.1,0,0.2,0.1,0.2,0.1c-0.1,0-0.2,0.1-0.3,0.1   c-0.7,0-1.4,0-2.1,0c-0.1,0-0.2-0.1-0.3-0.1c0.1-0.1,0.1-0.1,0.2-0.1c0.5-0.1,0.6-0.1,0.6-0.7c0-1.6,0-3.3,0-4.9   c0-0.6,0-0.6-0.6-0.7c-0.1,0-0.1-0.1-0.2-0.1c0.1,0,0.1-0.1,0.2-0.1c0.7,0,1.5,0,2.2,0c0.1,0,0.1,0.1,0.2,0.1   c-0.1,0-0.1,0.1-0.2,0.1c-0.6,0.1-0.6,0.1-0.6,0.7C69.1,35,69.1,35.8,69.1,36.6L69.1,36.6z"
   id="path66" />
	<path
   class="st1"
   d="M109.4,30.9c0.5,0.5,0.5,0.6-0.1,0.8s-1.1,0.6-1.6,0.9c-0.1-0.1-0.2-0.2-0.1-0.3   C108.2,31.9,108.8,31.4,109.4,30.9z"
   id="path68" />
</g>
</svg>