<svg id="Capa_1" data-name="Capa 1" xmlns="http://www.w3.org/2000/svg" viewBox="0 0 564.83 76.11"><defs><style>.cls-1,.cls-2{fill:#5e002b;}.cls-1{fill-rule:evenodd;}</style></defs><path class="cls-1" d="M282.05,66.28V65.09c.08,0,.17,0,.26,0a9.13,9.13,0,0,0,7.1-2.91c1.74-1.92,2.59-4.54,2.59-7.85a13.71,13.71,0,0,0-.67-4.22,15.56,15.56,0,0,0-1.95-4A8.91,8.91,0,0,0,282.05,42V40.8a13.89,13.89,0,0,1,5.15.93,11.43,11.43,0,0,1,4,2.73,12.29,12.29,0,0,1,2.53,4,13.44,13.44,0,0,1,.88,4.83,14.71,14.71,0,0,1-.82,4.77,12.29,12.29,0,0,1-2.33,4,12,12,0,0,1-9.39,4.27Zm0-25.48V42h-.35a9,9,0,0,0-7,2.88,10.78,10.78,0,0,0-2.62,7.59,14.43,14.43,0,0,0,.55,4,16.23,16.23,0,0,0,1.69,3.85,9.75,9.75,0,0,0,3.43,3.52,8.67,8.67,0,0,0,4.28,1.19v1.19A12.29,12.29,0,0,1,273,62.76a12.53,12.53,0,0,1-3.46-9.19,12.71,12.71,0,0,1,3.67-9.08,11.72,11.72,0,0,1,4-2.73,12.92,12.92,0,0,1,4.86-1M179.71,66.28V65.09c.08,0,.17,0,.26,0A9.12,9.12,0,0,0,187,62.21a11.26,11.26,0,0,0,2.61-7.85,14.65,14.65,0,0,0-.66-4.22,15.56,15.56,0,0,0-2-4,9.78,9.78,0,0,0-3.32-3.08,9.36,9.36,0,0,0-4-1V40.8a13.56,13.56,0,0,1,5.11.93,11.49,11.49,0,0,1,4.08,2.73,11.89,11.89,0,0,1,2.5,4,13.43,13.43,0,0,1,.87,4.83,13.94,13.94,0,0,1-.81,4.77,12.78,12.78,0,0,1-2.3,4,12.65,12.65,0,0,1-4.22,3.19,12.36,12.36,0,0,1-5.18,1.08ZM197.42,61V45.92a6.07,6.07,0,0,0-.23-2.13,2.62,2.62,0,0,0-.79-1,2.73,2.73,0,0,0-.55-.32,2.2,2.2,0,0,0-.67-.15.1.1,0,0,0-.08,0c-.35-.09-.53-.26-.53-.46a.48.48,0,0,1,.15-.41.93.93,0,0,1,.52-.12c.12,0,.52,0,1.28.12s1.39.09,2,.09a29.27,29.27,0,0,0,3.23-.18,2.32,2.32,0,0,1,.35,0,.46.46,0,0,1,.37.12.45.45,0,0,1,.12.35c0,.23-.23.43-.73.61h0a.77.77,0,0,1-.23.09,2.79,2.79,0,0,0-.73.4,2.11,2.11,0,0,0-.61,1,8.8,8.8,0,0,0-.17,2.07V62.09a2.09,2.09,0,0,0,.55,1.72,3.52,3.52,0,0,0,2.15.46,17.34,17.34,0,0,0,4.14-.46,10,10,0,0,0,3.14-1.17,6.47,6.47,0,0,0,1.31-1.22c.4-.52.66-.75.81-.75a.18.18,0,0,1,.2.14,1,1,0,0,1,.09.44,3.54,3.54,0,0,1-.32,1.31,5.43,5.43,0,0,1-.84,1.51,4.15,4.15,0,0,1-1.6,1.28,5.12,5.12,0,0,1-2.27.41c-.29,0-1.14,0-2.56-.09s-2.74-.11-3.87-.11c-1.86,0-3.64,0-5.3.2h-.4a.25.25,0,0,1-.23-.12.35.35,0,0,1-.12-.29.61.61,0,0,1,.12-.35,1.57,1.57,0,0,1,.55-.35.1.1,0,0,1,.08,0,3.08,3.08,0,0,0,.85-.58,2.92,2.92,0,0,0,.64-1.1,6.85,6.85,0,0,0,.2-1.95m18.94,0V45.92a7.1,7.1,0,0,0-.23-2.1,2.32,2.32,0,0,0-.79-1,1.57,1.57,0,0,0-.49-.27,4.41,4.41,0,0,0-.73-.2,2.31,2.31,0,0,1-.58-.17.42.42,0,0,1-.15-.32c0-.21.06-.35.15-.41a.93.93,0,0,1,.52-.12,3.86,3.86,0,0,1,.47,0q2.83.18,5.93.18c2.53,0,5-.09,7.57-.27l.84,0a.81.81,0,0,1,.55.14.91.91,0,0,1,.12.56v.23a.06.06,0,0,1,0,0v.18l-.23,2.85a3.25,3.25,0,0,1-.12.58.35.35,0,0,1-.29.15.47.47,0,0,1-.35-.15.72.72,0,0,1-.12-.46V45.1a.59.59,0,0,0,0-.2,1.87,1.87,0,0,0-.9-1.78,7.48,7.48,0,0,0-3.34-.52h-2.42a5.58,5.58,0,0,0-2.21.29,1.23,1.23,0,0,0-.49,1.11v7.15c0,.64.08,1,.23,1.14a1.47,1.47,0,0,0,1,.2h2.85a7.52,7.52,0,0,0,2.33-.26,2.2,2.2,0,0,0,1.16-.84,4.31,4.31,0,0,0,.38-1c.14-.44.32-.64.52-.64a.3.3,0,0,1,.29.2,1,1,0,0,1,.12.55c0,.06,0,.44-.06,1.14s-.09,1.39-.09,2.06a16.77,16.77,0,0,0,.15,2,2,2,0,0,1,0,.35.76.76,0,0,1-.15.52.36.36,0,0,1-.32.21c-.29,0-.46-.26-.55-.82-.06-.38-.12-.67-.17-.87a1.89,1.89,0,0,0-1-1,6.76,6.76,0,0,0-2.33-.29h-3.29a1.21,1.21,0,0,0-.84.2,1.49,1.49,0,0,0-.2.94v7.09a2.16,2.16,0,0,0,.58,1.75,4.05,4.05,0,0,0,2.27.43,16.57,16.57,0,0,0,4-.46,10.63,10.63,0,0,0,3.14-1.19,5,5,0,0,0,1.25-1.23c.41-.49.67-.72.79-.72a.24.24,0,0,1,.23.14,1,1,0,0,1,.09.44,3.94,3.94,0,0,1-.32,1.28,6,6,0,0,1-.79,1.39,4.6,4.6,0,0,1-1.63,1.4,5.18,5.18,0,0,1-2.15.41l-2.38-.09c-1.37-.08-2.59-.11-3.73-.11-2,0-3.9,0-5.67.2a4.21,4.21,0,0,1-.49,0,.36.36,0,0,1-.24-.12.37.37,0,0,1-.14-.29.47.47,0,0,1,.14-.35c.06-.11.24-.2.52-.35a.13.13,0,0,0,.07,0,2.5,2.5,0,0,0,.9-.58,2.45,2.45,0,0,0,.64-1.08,8.11,8.11,0,0,0,.17-2m35.72-.93V55.93a2,2,0,0,0-.28-1.17,2.08,2.08,0,0,0-.91-.76,3.12,3.12,0,0,0-.64-.14h0a1.8,1.8,0,0,1-.64-.2.39.39,0,0,1-.14-.32.56.56,0,0,1,.11-.41,1.33,1.33,0,0,1,.59-.09l1.3.09a19.91,19.91,0,0,0,2.27.11,15.23,15.23,0,0,0,1.92-.11c.12,0,.24,0,.3,0a.22.22,0,0,0,.11,0,.79.79,0,0,1,.21,0,.36.36,0,0,1,.26.09.55.55,0,0,1,.08.29.72.72,0,0,1-.08.35,2.51,2.51,0,0,1-.41.29.32.32,0,0,0-.23.09.86.86,0,0,0-.24.11,1.4,1.4,0,0,0-.49.7,2.78,2.78,0,0,0-.17,1.11v5.38a2.53,2.53,0,0,0,0,.32V62c0,.41-.26.72-.84,1a6,6,0,0,0-.7.38l-.35.2a17.56,17.56,0,0,1-8.44,2.65,11,11,0,0,1-8.43-3.35,12.49,12.49,0,0,1-3.14-8.9,14.82,14.82,0,0,1,.9-5.3,12.53,12.53,0,0,1,2.71-4.33,10.14,10.14,0,0,1,3.72-2.53,12.58,12.58,0,0,1,4.77-.82,14.46,14.46,0,0,1,3.17.35,13.85,13.85,0,0,1,3,1c.3.12.67.32,1.17.58a2.26,2.26,0,0,0,1,.41,1.15,1.15,0,0,0,.41-.15.81.81,0,0,1,.37-.14.24.24,0,0,1,.24.14,2.29,2.29,0,0,1,.11.53l.35,3.63a1.19,1.19,0,0,1,0,.32,1.55,1.55,0,0,1,0,.41.83.83,0,0,1-.09.44c-.05.09-.17.11-.32.11s-.49-.37-.81-1.1a8.77,8.77,0,0,0-4.48-4.6,10.09,10.09,0,0,0-4.37-1,8.3,8.3,0,0,0-6.57,3,11.25,11.25,0,0,0-2.56,7.65,14.17,14.17,0,0,0,2.73,9A8.41,8.41,0,0,0,245.57,65a9,9,0,0,0,5.18-1.65,3,3,0,0,0,1-1.26,5.29,5.29,0,0,0,.32-2m9.31.93V45.92a6.2,6.2,0,0,0-.23-2.1,2.29,2.29,0,0,0-.78-1,2.63,2.63,0,0,0-1.23-.5h0a1.44,1.44,0,0,1-.61-.2.53.53,0,0,1-.14-.35.45.45,0,0,1,.17-.38,1,1,0,0,1,.53-.09c.08,0,.52,0,1.28.12s1.51.09,2.21.09a33.27,33.27,0,0,0,3.49-.18,2.32,2.32,0,0,1,.35,0,.62.62,0,0,1,.41.12.55.55,0,0,1,.14.35.38.38,0,0,1-.14.32,1.4,1.4,0,0,1-.67.29,3.91,3.91,0,0,0-.73.26,2.59,2.59,0,0,0-.47.32,1.93,1.93,0,0,0-.61.9,7.81,7.81,0,0,0-.17,2.07V61a7.29,7.29,0,0,0,.23,2.15,2.3,2.3,0,0,0,.84,1.1,2.62,2.62,0,0,0,1.23.47s.05,0,.05,0a1.69,1.69,0,0,1,.61.17.49.49,0,0,1,.15.35.41.41,0,0,1-.15.38,1.19,1.19,0,0,1-.58.09c-.35,0-.93,0-1.77-.09a17.92,17.92,0,0,0-2-.11,29.51,29.51,0,0,0-3.23.17,3.18,3.18,0,0,1-.41,0,.61.61,0,0,1-.43-.12.39.39,0,0,1-.15-.32c0-.23.23-.46.67-.64l.09,0a2,2,0,0,0,.61-.26,2.25,2.25,0,0,0,.52-.35,2.78,2.78,0,0,0,.73-1.05,6.79,6.79,0,0,0,.2-2M98.77,61V45.92a7.1,7.1,0,0,0-.23-2.1,2.25,2.25,0,0,0-.79-1,1.57,1.57,0,0,0-.49-.27,4.41,4.41,0,0,0-.73-.2,2.05,2.05,0,0,1-.58-.17.42.42,0,0,1-.14-.32c0-.21,0-.35.14-.41a1,1,0,0,1,.52-.12,4.18,4.18,0,0,1,.47,0q2.79.18,5.93.18c2.54,0,5-.09,7.57-.27l.81,0a.8.8,0,0,1,.56.14,1,1,0,0,1,.14.56v.23s0,0,0,0a1.06,1.06,0,0,0,0,.18l-.23,2.85a1.23,1.23,0,0,1-.12.58.3.3,0,0,1-.29.15.38.38,0,0,1-.32-.15.78.78,0,0,1-.11-.46V45.1a.59.59,0,0,0,0-.2,1.91,1.91,0,0,0-.91-1.78,7.48,7.48,0,0,0-3.34-.52h-2.45a5.5,5.5,0,0,0-2.18.29,1.23,1.23,0,0,0-.49,1.11v7.15a2.07,2.07,0,0,0,.2,1.14,1.56,1.56,0,0,0,1,.2h2.85a7.65,7.65,0,0,0,2.33-.26,2,2,0,0,0,1.13-.84,3.74,3.74,0,0,0,.41-1c.12-.44.29-.64.53-.64a.35.35,0,0,1,.29.2,1.47,1.47,0,0,1,.11.55c0,.06,0,.44-.08,1.14s-.06,1.39-.06,2.06a18.91,18.91,0,0,0,.14,2c0,.18,0,.29,0,.35a1.06,1.06,0,0,1-.14.52.38.38,0,0,1-.32.21c-.29,0-.47-.26-.56-.82a3.3,3.3,0,0,0-.2-.87,1.66,1.66,0,0,0-1-1,6.46,6.46,0,0,0-2.3-.29h-3.28c-.44,0-.73.06-.85.2s-.2.44-.2.94v7.09a2.16,2.16,0,0,0,.58,1.75,4.05,4.05,0,0,0,2.27.43,16.68,16.68,0,0,0,4-.46,10.81,10.81,0,0,0,3.15-1.19,5.17,5.17,0,0,0,1.25-1.23c.37-.49.64-.72.78-.72a.23.23,0,0,1,.23.14,1,1,0,0,1,.09.44,3.43,3.43,0,0,1-.35,1.28,5.07,5.07,0,0,1-.75,1.39,5.13,5.13,0,0,1-1.66,1.4,5,5,0,0,1-2.13.41l-2.38-.09c-1.37-.08-2.59-.11-3.73-.11-2,0-3.89,0-5.67.2a4.11,4.11,0,0,1-.49,0,.31.31,0,0,1-.24-.12.4.4,0,0,1-.14-.29.69.69,0,0,1,.11-.35,2.16,2.16,0,0,1,.53-.35.11.11,0,0,0,.09,0A2.33,2.33,0,0,0,98,64,2.77,2.77,0,0,0,98.6,63a7.62,7.62,0,0,0,.17-2M179.71,40.8V42h-.38a9,9,0,0,0-7,2.88,10.83,10.83,0,0,0-2.64,7.59,14.45,14.45,0,0,0,.58,4A15.1,15.1,0,0,0,172,60.38a9.68,9.68,0,0,0,3.4,3.52,8.7,8.7,0,0,0,4.31,1.19v1.19a12.24,12.24,0,0,1-9.08-3.52,12.43,12.43,0,0,1-3.49-9.19,13.44,13.44,0,0,1,.93-4.92,12.71,12.71,0,0,1,2.76-4.16,11.76,11.76,0,0,1,4-2.73,12.8,12.8,0,0,1,4.86-1M118.53,61V45.92a6.53,6.53,0,0,0-.24-2.13,2.49,2.49,0,0,0-.78-1,2.8,2.8,0,0,0-.56-.32,2.36,2.36,0,0,0-.66-.15.11.11,0,0,0-.09,0c-.35-.09-.53-.26-.53-.46s0-.35.12-.41a1,1,0,0,1,.56-.12c.11,0,.52,0,1.25.12s1.42.09,2,.09a29.14,29.14,0,0,0,3.23-.18,2.32,2.32,0,0,1,.35,0,.54.54,0,0,1,.38.12.49.49,0,0,1,.11.35c0,.23-.23.43-.72.61h0l-.23.09a2.25,2.25,0,0,0-.73.4,2,2,0,0,0-.61,1,8.15,8.15,0,0,0-.18,2.07V62.09a2.09,2.09,0,0,0,.56,1.72,3.43,3.43,0,0,0,2.15.46,17.06,17.06,0,0,0,4.1-.46,10.27,10.27,0,0,0,3.17-1.17,6.21,6.21,0,0,0,1.31-1.22c.41-.52.67-.75.81-.75a.21.21,0,0,1,.21.14,1,1,0,0,1,.09.44,4.27,4.27,0,0,1-.32,1.31,6.71,6.71,0,0,1-.85,1.51,4.08,4.08,0,0,1-1.6,1.28,5.3,5.3,0,0,1-2.27.41c-.29,0-1.13,0-2.56-.09s-2.73-.11-3.87-.11c-1.89,0-3.66,0-5.29.2h-.41a.27.27,0,0,1-.23-.12.35.35,0,0,1-.12-.29.45.45,0,0,1,.12-.35,1.39,1.39,0,0,1,.55-.35.11.11,0,0,1,.09,0,3.33,3.33,0,0,0,.84-.58,2.79,2.79,0,0,0,.64-1.1,6.45,6.45,0,0,0,.21-1.95m45.64,2.38a13.16,13.16,0,0,1-4.1,2.1,17,17,0,0,1-5,.7,11.56,11.56,0,0,1-8.67-3.29,12.57,12.57,0,0,1-3.17-9,14.82,14.82,0,0,1,.93-5.3,12.65,12.65,0,0,1,2.65-4.3,10.61,10.61,0,0,1,3.67-2.5,12.72,12.72,0,0,1,4.77-.85,14.67,14.67,0,0,1,3,.32,16.62,16.62,0,0,1,2.85.93,10.1,10.1,0,0,1,1.39.82,2.67,2.67,0,0,0,1,.55,1,1,0,0,0,.44-.17,1,1,0,0,1,.38-.15.28.28,0,0,1,.23.18,1.3,1.3,0,0,1,.11.52l.32,3.61a.92.92,0,0,1,0,.29,1.55,1.55,0,0,1,0,.4,1,1,0,0,1-.08.47.32.32,0,0,1-.3.12c-.26,0-.55-.35-.84-1a11.39,11.39,0,0,0-.52-1.14,11,11,0,0,0-3.55-3.55,8.8,8.8,0,0,0-11.06,1.69,11.33,11.33,0,0,0-2.53,7.65,14.21,14.21,0,0,0,2.68,9,8.14,8.14,0,0,0,6.81,3.52,10.11,10.11,0,0,0,3.66-.72,10.57,10.57,0,0,0,3.23-2.07,7.36,7.36,0,0,0,1.22-1.63c.41-.7.7-1.05.9-1.05a.23.23,0,0,1,.21.15A.61.61,0,0,1,165,60a.59.59,0,0,1,0,.2,1.35,1.35,0,0,1-.06.35Z" transform="translate(-46.93 -34.48)"/><path class="cls-1" d="M281.2,102.85v-1.19h.3a10.05,10.05,0,0,0,7.56-2.88,10.93,10.93,0,0,0,2.76-7.86,12.67,12.67,0,0,0-.73-4.22,14,14,0,0,0-2.06-4,9.52,9.52,0,0,0-7.83-4.13V77.37a16.43,16.43,0,0,1,5.5.9A12.72,12.72,0,0,1,291,81a11.81,11.81,0,0,1,2.7,4,13.25,13.25,0,0,1,.06,9.6,11.81,11.81,0,0,1-2.47,4,12.94,12.94,0,0,1-4.51,3.17,13.82,13.82,0,0,1-5.5,1.11Zm-171.87-2a9.43,9.43,0,0,0,5.44-2.44c1.81-1.75,2.71-4.25,2.71-7.48a11.69,11.69,0,0,0-3.43-8.84,11.12,11.12,0,0,0-4.72-2.68V78.09a14.22,14.22,0,0,1,7.1,2.94,10.62,10.62,0,0,1,3.78,8.67,11.51,11.51,0,0,1-3.87,9.13,13.68,13.68,0,0,1-7,3.18ZM281.2,77.37v1.22l-.37,0a9.85,9.85,0,0,0-7.42,2.88A10.34,10.34,0,0,0,270.59,89a13.65,13.65,0,0,0,.61,4.07,15.53,15.53,0,0,0,1.8,3.84,10.1,10.1,0,0,0,3.64,3.52,9.56,9.56,0,0,0,4.56,1.2v1.19a13.61,13.61,0,0,1-9.65-3.52,13,13,0,0,1-2.74-14.11,12.48,12.48,0,0,1,2.94-4.16A12.89,12.89,0,0,1,276,78.3a14.54,14.54,0,0,1,5.17-.93M125.54,97.53v-15a6.67,6.67,0,0,0-.24-2.09,2.34,2.34,0,0,0-.84-1,4.07,4.07,0,0,0-.55-.29c-.21,0-.47-.14-.79-.2a1.15,1.15,0,0,1-.61-.18.35.35,0,0,1-.14-.32c0-.17,0-.32.17-.37a.91.91,0,0,1,.52-.15l.53.06c2,.12,4.1.17,6.31.17,2.71,0,5.38-.08,8.06-.26a7.25,7.25,0,0,1,.9-.06.84.84,0,0,1,.58.15.82.82,0,0,1,.15.55v.21a.1.1,0,0,1,0,.08v.18l-.26,2.85a1.55,1.55,0,0,1-.12.55c-.06.12-.17.15-.32.17a.47.47,0,0,1-.38-.17.9.9,0,0,1-.11-.47.66.66,0,0,1,0-.2v-.17a1.82,1.82,0,0,0-1-1.78,8.3,8.3,0,0,0-3.56-.52H131.3a5.79,5.79,0,0,0-2.36.29,1.15,1.15,0,0,0-.52,1.11v7.15a1.81,1.81,0,0,0,.23,1.14,2,2,0,0,0,1,.2h3.05a8.72,8.72,0,0,0,2.48-.26,2.45,2.45,0,0,0,1.22-.87,3.79,3.79,0,0,0,.4-.94c.15-.43.32-.66.56-.66a.39.39,0,0,1,.32.2,1.1,1.1,0,0,1,.11.55c0,.06,0,.44-.06,1.17s-.08,1.39-.08,2.06a17.89,17.89,0,0,0,.14,2,2.37,2.37,0,0,1,0,.38.82.82,0,0,1-.14.52.41.41,0,0,1-.35.2c-.29,0-.5-.29-.58-.81a3,3,0,0,0-.21-.87,1.79,1.79,0,0,0-1.07-1A8.26,8.26,0,0,0,133,90.4h-3.52a1.56,1.56,0,0,0-.9.2,1.61,1.61,0,0,0-.2.93v7.1a2,2,0,0,0,.61,1.75,4.62,4.62,0,0,0,2.44.43,20.93,20.93,0,0,0,4.31-.43,10.71,10.71,0,0,0,3.34-1.23A5.27,5.27,0,0,0,140.46,98c.41-.49.7-.75.84-.75a.27.27,0,0,1,.24.17.82.82,0,0,1,.08.44,3.43,3.43,0,0,1-.35,1.28,6.26,6.26,0,0,1-.81,1.39,6.12,6.12,0,0,1-1.74,1.4,5.88,5.88,0,0,1-2.3.41c-.24,0-1.08-.06-2.54-.12s-2.76-.09-4-.09c-2.12,0-4.16.06-6.05.21-.29,0-.47,0-.52,0a.4.4,0,0,1-.27-.14.37.37,0,0,1-.11-.26.63.63,0,0,1,.11-.38,1.82,1.82,0,0,1,.56-.32s0,0,.08,0a2.53,2.53,0,0,0,1-.61,2.17,2.17,0,0,0,.66-1,7.47,7.47,0,0,0,.21-2m32.67-12.11a1.49,1.49,0,0,0-.24-.32.29.29,0,0,0-.2-.11c-.15,0-.23.32-.32,1s-.15,1.92-.2,3.81L157,94.41c0,.38,0,.82,0,1.22v1.78a7.63,7.63,0,0,0,.29,2.41,2.91,2.91,0,0,0,2.1,1.49h.09c.55.11.81.32.81.58a.37.37,0,0,1-.2.32,1.31,1.31,0,0,1-.56.11l-.66,0c-1.2-.09-2.33-.15-3.38-.15a13.13,13.13,0,0,0-1.51.09,7.92,7.92,0,0,1-.82.11.5.5,0,0,1-.4-.17.41.41,0,0,1-.21-.35.48.48,0,0,1,.09-.29.4.4,0,0,1,.2-.17.23.23,0,0,0,.12,0,.78.78,0,0,0,.14,0,3.81,3.81,0,0,0,1.31-.61,2,2,0,0,0,.47-.85,28.94,28.94,0,0,0,.76-5.44c.26-2.88.38-6,.38-9.36a11.43,11.43,0,0,0-.47-3.7,3.67,3.67,0,0,0-1.43-2,2.1,2.1,0,0,0-.84-.35h-.06a.09.09,0,0,1-.06,0c-.43-.12-.64-.29-.64-.56a.36.36,0,0,1,.18-.34,1,1,0,0,1,.55-.12,6.35,6.35,0,0,1,.87.06c.47,0,.91.06,1.26.06h.29a.32.32,0,0,1,.17,0h.35a1.67,1.67,0,0,1,1.69.84l0,0,9,18c.09.11.18.23.24.32a.54.54,0,0,0,.26.11.45.45,0,0,0,.26-.14c.06-.06.14-.21.26-.38l9.6-18.18a.41.41,0,0,0,.09-.12.85.85,0,0,1,.84-.47h.79a8.79,8.79,0,0,0,1.19-.08,6.48,6.48,0,0,1,.84-.06,1.09,1.09,0,0,1,.58.12.3.3,0,0,1,.21.32c0,.26-.23.43-.7.58a2.1,2.1,0,0,0-.55.09,1.25,1.25,0,0,0-.38.2,1.87,1.87,0,0,0-.81.87,3.31,3.31,0,0,0-.24,1.51V82l.38,15.56v.24c0,1.71.47,2.79,1.31,3.17a4.68,4.68,0,0,0,.76.26c.06,0,.08,0,.11,0h0c.44.11.67.26.67.46a.4.4,0,0,1-.23.38,1.18,1.18,0,0,1-.61.12c-.29,0-.88,0-1.72-.06s-1.6-.06-2.15-.06-1.14,0-1.75.09a9.45,9.45,0,0,1-1,.11.73.73,0,0,1-.4-.08.33.33,0,0,1-.15-.29.41.41,0,0,1,.15-.38,1.66,1.66,0,0,1,.64-.29.48.48,0,0,0,.14-.06,1.08,1.08,0,0,0,.29-.11,1.58,1.58,0,0,0,.82-.79,3.75,3.75,0,0,0,.26-1.63c0-.12,0-.32,0-.67v-.76l-.23-11a5.32,5.32,0,0,0-.15-1.28c-.06-.26-.17-.38-.29-.38s-.26.09-.44.29a3.66,3.66,0,0,0-.55.87l-7.88,15a2.52,2.52,0,0,1-.41.61.6.6,0,0,1-.41.17.61.61,0,0,1-.43-.2,2.07,2.07,0,0,1-.38-.58Zm29.9,12.11v-15a7.07,7.07,0,0,0-.23-2.09,2.49,2.49,0,0,0-.84-1,2.92,2.92,0,0,0-.56-.29c-.2,0-.43-.14-.75-.2a1,1,0,0,1-.61-.18c-.12,0-.15-.17-.15-.32a.43.43,0,0,1,.15-.37c.08-.09.26-.12.55-.15l.49.06c2,.12,4.1.17,6.34.17,2.68,0,5.39-.08,8.06-.26a7.12,7.12,0,0,1,.88-.06,1,1,0,0,1,.61.15.85.85,0,0,1,.11.55v.29a.39.39,0,0,0,0,.18l-.27,2.85a1.61,1.61,0,0,1-.11.55c-.06.12-.18.15-.32.17a.39.39,0,0,1-.35-.17.68.68,0,0,1-.12-.47v-.2a.48.48,0,0,0,0-.17,1.82,1.82,0,0,0-1-1.78,8.41,8.41,0,0,0-3.58-.52h-2.59a5.46,5.46,0,0,0-2.32.29,1.16,1.16,0,0,0-.53,1.11v7.15c0,.61.06,1,.23,1.14a1.93,1.93,0,0,0,1,.2h3.06a8.6,8.6,0,0,0,2.47-.26,2.45,2.45,0,0,0,1.22-.87,3.62,3.62,0,0,0,.44-.94c.12-.43.32-.66.55-.66a.42.42,0,0,1,.32.2,1.36,1.36,0,0,1,.12.55c0,.06,0,.44-.09,1.17s-.06,1.39-.06,2.06a11.77,11.77,0,0,0,.15,2c0,.2,0,.32,0,.38a1,1,0,0,1-.15.52.44.44,0,0,1-.38.2c-.29,0-.49-.29-.58-.81a7,7,0,0,0-.17-.87,1.89,1.89,0,0,0-1.11-1,8,8,0,0,0-2.47-.29h-3.49a1.51,1.51,0,0,0-.91.2,1.46,1.46,0,0,0-.2.93v7.1a2,2,0,0,0,.61,1.75,4.53,4.53,0,0,0,2.42.43,20.56,20.56,0,0,0,4.3-.43,10.49,10.49,0,0,0,3.35-1.23A5.55,5.55,0,0,0,203.07,98c.4-.49.69-.75.81-.75a.21.21,0,0,1,.23.17.6.6,0,0,1,.12.44,3.63,3.63,0,0,1-.35,1.28,6,6,0,0,1-.85,1.39,5.4,5.4,0,0,1-1.74,1.4,5.69,5.69,0,0,1-2.27.41c-.23,0-1.07-.06-2.56-.12s-2.76-.09-4-.09c-2.15,0-4.16.06-6.07.21-.27,0-.44,0-.5,0a.38.38,0,0,1-.26-.14.3.3,0,0,1-.15-.26.58.58,0,0,1,.12-.38,2,2,0,0,1,.58-.32.1.1,0,0,1,.06,0,2.55,2.55,0,0,0,1-.61,2.2,2.2,0,0,0,.64-1,6.79,6.79,0,0,0,.2-2m3.14-22.06,5.24-5a5.52,5.52,0,0,1,1-.81,1.77,1.77,0,0,1,.73-.21,1.56,1.56,0,0,1,1,.32,1.18,1.18,0,0,1,.09,1.6,3.24,3.24,0,0,1-.84.7l-6,3.43Zm19,22.32,5.18-7.1a1,1,0,0,0,.14-.29,1.76,1.76,0,0,0,0-.41,1.16,1.16,0,0,0,0-.32,1.1,1.1,0,0,0-.17-.29l-4.6-6.69a20.1,20.1,0,0,0-1.77-2.33,6.22,6.22,0,0,0-1.4-1.1,3.36,3.36,0,0,0-.58-.24,4.09,4.09,0,0,0-.76-.2.22.22,0,0,0-.08,0c-.5-.14-.73-.32-.73-.52a.4.4,0,0,1,.17-.32,1,1,0,0,1,.47-.12s.44,0,1.31.12,1.68.08,2.53.08c.55,0,1.22,0,1.95-.08s1.22-.12,1.39-.12a1.36,1.36,0,0,1,.53.12c.12.06.14.17.14.32a.39.39,0,0,1-.37.4,2.83,2.83,0,0,0-.27.09,1.56,1.56,0,0,0-.61.35,1,1,0,0,0-.23.58,2,2,0,0,0,.2.79,4.5,4.5,0,0,0,.56.93L217.17,87l0,0c.21.33.35.47.44.47a.51.51,0,0,0,.26-.12,1.32,1.32,0,0,0,.29-.35l4.13-5.38a10.23,10.23,0,0,0,.64-1,1.81,1.81,0,0,0,.18-.72,1,1,0,0,0-.21-.64.73.73,0,0,0-.49-.35c-.12-.06-.29-.09-.46-.15-.53-.09-.79-.29-.79-.52a.37.37,0,0,1,.15-.32c0-.06.2-.09.43-.12s.64.06,1.31.15a15,15,0,0,0,1.69.14c.29,0,.7,0,1.25-.08s.93-.09,1.16-.09a1.86,1.86,0,0,1,.73.09.27.27,0,0,1,.17.29c0,.23-.2.4-.64.52l-.29.09c-.11,0-.23.09-.32.11a7.12,7.12,0,0,0-1.28.85,12,12,0,0,0-1.31,1.45l-5.29,7a.64.64,0,0,0-.18.29,2.55,2.55,0,0,0-.05.32,1.77,1.77,0,0,0,.05.29,1.12,1.12,0,0,0,.18.3l6.57,9.83a4.7,4.7,0,0,0,2.21,1.86l.44.09h0c.41.08.61.26.61.49a.41.41,0,0,1-.14.35,1,1,0,0,1-.53.12l-1.16-.09c-.73,0-1.4-.06-2.07-.06-1.1,0-2.18.06-3.26.15a1.9,1.9,0,0,1-.35,0,.52.52,0,0,1-.37-.12.33.33,0,0,1-.12-.29c0-.23.29-.44.84-.67s.85-.52.85-.87a1.55,1.55,0,0,0-.18-.59,7.65,7.65,0,0,0-.52-.93l-4.45-6.63c-.18-.23-.29-.41-.35-.49a.41.41,0,0,0-.2-.09.43.43,0,0,0-.32.15,1.23,1.23,0,0,0-.35.43l-4.86,6.61a3.09,3.09,0,0,0-.41.75,2.14,2.14,0,0,0-.14.73.88.88,0,0,0,.32.64,1.75,1.75,0,0,0,.78.44l.53.08c.34,0,.52.18.52.44a.32.32,0,0,1-.18.29.83.83,0,0,1-.52.12l-1.37-.09c-.81-.06-1.54-.09-2.24-.09q-.78,0-1.74.09a9.91,9.91,0,0,1-1.08.11c-.17,0-.26,0-.32-.11a.59.59,0,0,1,0-.67,2.13,2.13,0,0,1,.61-.23,1,1,0,0,0,.32-.06c.12,0,.26-.09.41-.14a4.86,4.86,0,0,0,1.6-1.08,15.83,15.83,0,0,0,1.89-2.24m23.56-.26v-15a5.77,5.77,0,0,0-.26-2.09,2.16,2.16,0,0,0-.84-1,3.49,3.49,0,0,0-1.31-.49h0a1.46,1.46,0,0,1-.64-.2.4.4,0,0,1-.14-.35.39.39,0,0,1,.14-.35,1.33,1.33,0,0,1,.58-.12c.09,0,.55.06,1.37.12s1.6.11,2.36.11c1.28,0,2.5,0,3.72-.17l.38-.06a.68.68,0,0,1,.43.15.44.44,0,0,1,.15.32.4.4,0,0,1-.15.35,2.62,2.62,0,0,1-.72.29,3.66,3.66,0,0,0-.76.26,1.92,1.92,0,0,0-.49.29,1.87,1.87,0,0,0-.67.93,7.65,7.65,0,0,0-.18,2.06V97.55a8,8,0,0,0,.23,2.19,2.33,2.33,0,0,0,.91,1.07,3,3,0,0,0,1.31.5h.06a1.77,1.77,0,0,1,.66.2.37.37,0,0,1,.15.32.41.41,0,0,1-.15.38,1.1,1.1,0,0,1-.64.11,18.26,18.26,0,0,1-1.86-.11c-.9-.06-1.6-.09-2.12-.09a33.7,33.7,0,0,0-3.46.18c-.24,0-.38,0-.44,0a.81.81,0,0,1-.44-.11.41.41,0,0,1-.17-.32c0-.26.23-.47.73-.64,0,0,0,0,0,0,.27-.09.5-.18.7-.26a3.39,3.39,0,0,0,.53-.38,2.27,2.27,0,0,0,.78-1,6,6,0,0,0,.23-2m30.81,2.41a15,15,0,0,1-4.39,2.07,19.41,19.41,0,0,1-5.32.69c-3.9,0-7-1.07-9.23-3.28s-3.4-5.18-3.4-9a14.42,14.42,0,0,1,1-5.3,12.8,12.8,0,0,1,2.85-4.27,10.67,10.67,0,0,1,3.93-2.53,14.25,14.25,0,0,1,5.06-.82,16.63,16.63,0,0,1,3.2.29,15.43,15.43,0,0,1,3,1,9.37,9.37,0,0,1,1.51.82,3.13,3.13,0,0,0,1.07.52.89.89,0,0,0,.47-.15,1.05,1.05,0,0,1,.41-.17c.11,0,.17.06.23.17a1.12,1.12,0,0,1,.15.53l.34,3.61a1,1,0,0,1,0,.29,1.67,1.67,0,0,1,0,.4,1.05,1.05,0,0,1-.11.5.33.33,0,0,1-.29.11c-.3,0-.59-.34-.91-1a9.73,9.73,0,0,0-.58-1.11,11,11,0,0,0-3.78-3.55,9.47,9.47,0,0,0-4.77-1.25,9.19,9.19,0,0,0-7,2.91A10.81,10.81,0,0,0,245.39,89a13.81,13.81,0,0,0,2.85,9,9,9,0,0,0,7.28,3.49,10.68,10.68,0,0,0,3.92-.73,10.94,10.94,0,0,0,3.44-2,9.48,9.48,0,0,0,1.34-1.66c.43-.67.75-1,1-1a.31.31,0,0,1,.23.15.55.55,0,0,1,.09.32.75.75,0,0,1,0,.23.86.86,0,0,1-.09.35ZM101.19,98.46a4.43,4.43,0,0,0,.08,1,.69.69,0,0,0,.3.43,6.63,6.63,0,0,0,2.23.85,15.43,15.43,0,0,0,3.29.34,13.32,13.32,0,0,0,2.24-.17V102a21.33,21.33,0,0,1-3.37.26c-1.19,0-2.5-.06-3.93-.12l-2.44-.09a11,11,0,0,0-2.21.21c-.73.11-1.11.2-1.14.2a.75.75,0,0,1-.43-.15c-.15-.11-.24-.2-.24-.31a.45.45,0,0,1,.18-.38,2.21,2.21,0,0,1,.73-.32.82.82,0,0,0,.2-.06,3,3,0,0,0,.73-.38,2.4,2.4,0,0,0,.66-1,6.08,6.08,0,0,0,.21-1.77V81.84A4.51,4.51,0,0,0,98,80a2.37,2.37,0,0,0-.93-.9,3.61,3.61,0,0,0-1-.32l-.09,0a2.36,2.36,0,0,1-.64-.17.34.34,0,0,1-.15-.32A.32.32,0,0,1,95.4,78a1.11,1.11,0,0,1,.58-.12s.41,0,1.22.06,1.63.08,2.42.08c.61,0,1.63,0,3-.08s2.5-.06,3.29-.06a25.88,25.88,0,0,1,3.37.2v1.34a16.07,16.07,0,0,0-4.56-.61,6.11,6.11,0,0,0-2.91.44,2,2,0,0,0-.67,1.8Z" transform="translate(-46.93 -34.48)"/><path class="cls-1" d="M50.69,38.09V70.62H85V34.48H46.93v76.11H85V109H48.68V36.08H84.9v2Zm27.6,10.13a.32.32,0,0,1-.29.11c-.26,0-.55-.35-.84-1-.21-.49-.41-.87-.55-1.13a10.94,10.94,0,0,0-3.55-3.55A8.76,8.76,0,0,0,62,44.32,11.28,11.28,0,0,0,59.47,52a14.17,14.17,0,0,0,2.68,9A8.16,8.16,0,0,0,69,64.45a10,10,0,0,0,3.67-.73,10.36,10.36,0,0,0,3.23-2.06A7.72,7.72,0,0,0,77.1,60c.41-.7.7-1,.9-1s.18,0,.2.11a.63.63,0,0,1,.09.35.68.68,0,0,1,0,.21,1.43,1.43,0,0,1-.06.35l-.69,2.85A13.41,13.41,0,0,1,73.38,65a16.79,16.79,0,0,1-5,.7,11.51,11.51,0,0,1-8.67-3.29,12.56,12.56,0,0,1-3.17-9,14.77,14.77,0,0,1,.93-5.29,12.53,12.53,0,0,1,2.65-4.31,10.66,10.66,0,0,1,3.67-2.5,12.92,12.92,0,0,1,4.77-.84,13.91,13.91,0,0,1,3,.32,15,15,0,0,1,2.85.93,10.4,10.4,0,0,1,1.4.81,2.64,2.64,0,0,0,1,.56.93.93,0,0,0,.43-.18,1.2,1.2,0,0,1,.38-.14.26.26,0,0,1,.23.17,1.74,1.74,0,0,1,.12.53l.32,3.6a1,1,0,0,1,0,.29,1.67,1.67,0,0,1,0,.41.88.88,0,0,1-.09.47" transform="translate(-46.93 -34.48)"/><path class="cls-1" d="M50.57,72.51v34.41H84.9L85,109V72.51Zm32.09,27.95a1.14,1.14,0,0,1-.59.15l-1.62-.06q-1.19-.09-2-.09a10.35,10.35,0,0,0-1.63.12l-.9.09a.64.64,0,0,1-.38-.09.33.33,0,0,1-.15-.29.47.47,0,0,1,.15-.35,1.05,1.05,0,0,1,.58-.29c.06,0,.12,0,.17-.06l.24-.11a1.47,1.47,0,0,0,.78-.79,3.77,3.77,0,0,0,.24-1.63v-.67c0-.32,0-.58,0-.75l-.21-11a9.37,9.37,0,0,0-.11-1.31C77.1,83.07,77,83,76.9,83s-.26.09-.44.29a7.36,7.36,0,0,0-.5.87l-7.38,15a3.44,3.44,0,0,1-.38.64.59.59,0,0,1-.38.17.52.52,0,0,1-.41-.2,1.6,1.6,0,0,1-.35-.61L59.88,83.79a1.68,1.68,0,0,0-.21-.34c-.08-.09-.14-.12-.2-.12s-.23.32-.29,1-.15,2-.2,3.81l-.18,4.62c0,.41,0,.82,0,1.25v1.78A7.7,7.7,0,0,0,59,98.17a2.46,2.46,0,0,0,1,1.13,2.77,2.77,0,0,0,1,.35,0,0,0,0,0,0,0h.06c.49.11.76.32.76.55a.34.34,0,0,1-.21.32.83.83,0,0,1-.52.12,3.34,3.34,0,0,1-.64-.06c-1.11-.09-2.16-.15-3.14-.15a7.89,7.89,0,0,0-1.43.12l-.78.09a.65.65,0,0,1-.38-.15.49.49,0,0,1-.18-.38.45.45,0,0,1,.09-.26.54.54,0,0,1,.17-.17c.06,0,.09,0,.12,0a.33.33,0,0,1,.15,0A3.85,3.85,0,0,0,56.33,99a1.64,1.64,0,0,0,.43-.84,27.87,27.87,0,0,0,.73-5.42c.23-2.88.35-6,.35-9.39a12.75,12.75,0,0,0-.44-3.7,3.81,3.81,0,0,0-1.36-2,2,2,0,0,0-.76-.32.09.09,0,0,0-.06,0h-.06c-.4-.12-.61-.32-.61-.55a.43.43,0,0,1,.18-.38.83.83,0,0,1,.52-.12l.82.06c.43,0,.84.06,1.16.06h.29a1.09,1.09,0,0,1,.17,0H58a1.59,1.59,0,0,1,1.6.84v0l8.52,18a1.1,1.1,0,0,0,.23.32.3.3,0,0,0,.24.11.26.26,0,0,0,.23-.11,3.4,3.4,0,0,0,.26-.38l9-18.21a.41.41,0,0,0,.09-.12.81.81,0,0,1,.78-.46h.73c.35,0,.73,0,1.13-.06s.7-.09.79-.09a1,1,0,0,1,.55.12.41.41,0,0,1,.18.35c0,.23-.21.43-.64.55a2.31,2.31,0,0,0-.53.12.92.92,0,0,0-.35.2,1.86,1.86,0,0,0-.75.84,3.38,3.38,0,0,0-.23,1.52v.43L80.16,96v.24c0,1.71.46,2.76,1.25,3.17a6,6,0,0,0,.69.23s.09,0,.12.06c.44.12.64.26.64.46a.35.35,0,0,1-.2.35" transform="translate(-46.93 -34.48)"/><path class="cls-2" d="M434.76,71.58h-.23a3.65,3.65,0,0,0-2.9-1.64c-1.61,0-2.72,1.54-2.72,4.08,0,3.4,1.84,5.42,4.69,5.42a7.74,7.74,0,0,0,2.29-.43l.23.6a7.32,7.32,0,0,1-4.51,1.29,6.29,6.29,0,0,1-4.66-2,5.39,5.39,0,0,1-1.26-3.53,6.48,6.48,0,0,1,1.46-4.28,6.88,6.88,0,0,1,5.19-2.37,5.51,5.51,0,0,1,3.4.83A3.77,3.77,0,0,1,434.76,71.58Z" transform="translate(-46.93 -34.48)"/><path class="cls-2" d="M448.23,79a7.28,7.28,0,0,1-9,.7A5,5,0,0,1,438,78.4a6.22,6.22,0,0,1-.93-3.47,6.49,6.49,0,0,1,1-3.58,6.32,6.32,0,0,1,5.42-2.67c3.65,0,6.27,2.12,6.27,5.87A6.27,6.27,0,0,1,448.23,79Zm-2.29-.63a7.91,7.91,0,0,0,.61-3.25,8.38,8.38,0,0,0-.74-3.78,2.74,2.74,0,0,0-2.59-1.66,2.55,2.55,0,0,0-2.37,1.76,8.06,8.06,0,0,0-.53,3,9,9,0,0,0,.61,3.42,2.94,2.94,0,0,0,2.72,2.12A2.47,2.47,0,0,0,445.94,78.33Z" transform="translate(-46.93 -34.48)"/><path class="cls-2" d="M456.35,70.14a5.79,5.79,0,0,1,4-1.46c2.69,0,3.8,1.61,3.8,4.43v5.27c0,.68.1,1,.28,1.18s.45.26,1.28.3v.66h-6.14v-.66c.95,0,1.13-.15,1.31-.32a2.1,2.1,0,0,0,.25-1.29V74c0-2.15-.46-3.83-2.62-3.81a2.74,2.74,0,0,0-2.09,1v7.3c0,.68.1,1,.27,1.16s.51.26,1.29.3v.66h-6.1v-.66c.78,0,1.11-.12,1.26-.3a2.14,2.14,0,0,0,.25-1.31V72c0-1.31-.22-1.81-.75-1.81a2.7,2.7,0,0,0-.81.15v-.73a16.53,16.53,0,0,1,4.54-.91Z" transform="translate(-46.93 -34.48)"/><path class="cls-2" d="M478.57,79a7.29,7.29,0,0,1-9,.7,5,5,0,0,1-1.18-1.26,6.14,6.14,0,0,1-.94-3.47,6.49,6.49,0,0,1,1-3.58,6.29,6.29,0,0,1,5.41-2.67c3.65,0,6.27,2.12,6.27,5.87A6.31,6.31,0,0,1,478.57,79Zm-2.3-.63a7.91,7.91,0,0,0,.61-3.25,8.39,8.39,0,0,0-.73-3.78,2.75,2.75,0,0,0-2.6-1.66,2.54,2.54,0,0,0-2.36,1.76,7.86,7.86,0,0,0-.53,3,9,9,0,0,0,.6,3.42A3,3,0,0,0,474,79.94,2.45,2.45,0,0,0,476.27,78.33Z" transform="translate(-46.93 -34.48)"/><path class="cls-2" d="M491.22,71.58H491a3.65,3.65,0,0,0-2.9-1.64c-1.61,0-2.72,1.54-2.72,4.08,0,3.4,1.84,5.42,4.69,5.42a7.74,7.74,0,0,0,2.29-.43l.23.6a7.32,7.32,0,0,1-4.51,1.29,6.29,6.29,0,0,1-4.66-2,5.39,5.39,0,0,1-1.26-3.53,6.48,6.48,0,0,1,1.46-4.28,6.88,6.88,0,0,1,5.19-2.37,5.51,5.51,0,0,1,3.4.83A3.77,3.77,0,0,1,491.22,71.58Z" transform="translate(-46.93 -34.48)"/><path class="cls-2" d="M498,78.35c0,.68.1,1,.28,1.21s.53.26,1.28.3v.66h-6.14v-.66c.8,0,1.13-.15,1.31-.32a2.1,2.1,0,0,0,.25-1.29V72c0-1.31-.23-1.84-.76-1.84a2,2,0,0,0-.8.15v-.73a16.63,16.63,0,0,1,4.58-.91Zm-1.68-11.76a1.77,1.77,0,1,1,0-3.53,1.77,1.77,0,0,1,1.76,1.74A1.74,1.74,0,0,1,496.36,66.59Z" transform="translate(-46.93 -34.48)"/><path class="cls-2" d="M505.85,70.17a5.46,5.46,0,0,1,3.63-1.49,3.43,3.43,0,0,1,3.27,1.56,5.58,5.58,0,0,1,3.83-1.56,3.78,3.78,0,0,1,3,1.11c.68.73,1,2,1,4.28v4.44c0,1.35.53,1.23,1.57,1.35v.66H516v-.66c.86,0,1.13-.15,1.31-.32a2,2,0,0,0,.25-1.29V74.07c0-2.24-.43-3.9-2.39-3.93a2.6,2.6,0,0,0-2.09.93,7.31,7.31,0,0,1,.15,1.19v6.09c0,.68.1,1,.28,1.21s.53.26,1.28.3v.66h-6.15v-.66c.84,0,1.14-.15,1.31-.32a2,2,0,0,0,.26-1.29V73.19a4,4,0,0,0-.46-2.14,2.11,2.11,0,0,0-1.81-.91,2.74,2.74,0,0,0-2.07,1v7.17c0,.68.1,1,.28,1.21s.53.26,1.29.3v.66h-6.1v-.66c1.33-.1,1.51-.2,1.51-1.61V72c0-1.31-.23-1.84-.76-1.84a2.64,2.64,0,0,0-.8.15v-.73a16.53,16.53,0,0,1,4.53-.91Z" transform="translate(-46.93 -34.48)"/><path class="cls-2" d="M528.38,78.35c0,.68.1,1,.27,1.21s.53.26,1.29.3v.66h-6.15v-.66c.81,0,1.13-.15,1.31-.32a2,2,0,0,0,.25-1.29V72c0-1.31-.22-1.84-.75-1.84a2.06,2.06,0,0,0-.81.15v-.73a16.69,16.69,0,0,1,4.59-.91Zm-1.69-11.76a1.77,1.77,0,1,1,0-3.53,1.77,1.77,0,0,1,1.76,1.74A1.74,1.74,0,0,1,526.69,66.59Z" transform="translate(-46.93 -34.48)"/><path class="cls-2" d="M534.9,75.2c.48,2.85,2,4.24,4.49,4.24a5.9,5.9,0,0,0,2.77-.73l.25.58a7.51,7.51,0,0,1-4.79,1.61,6.06,6.06,0,0,1-4.23-1.61A5.83,5.83,0,0,1,531.73,75a6.4,6.4,0,0,1,1.68-4.51,5.64,5.64,0,0,1,4.11-1.76c2.82,0,4.51,1.31,5,4.11A41.29,41.29,0,0,1,534.9,75.2Zm4.56-2.26c-.23-2.17-1.13-3.3-2.52-3.3a2,2,0,0,0-1.74,1.46,8.78,8.78,0,0,0-.45,2.92A32.91,32.91,0,0,0,539.46,72.94Z" transform="translate(-46.93 -34.48)"/><path class="cls-2" d="M548.25,70.14a5.83,5.83,0,0,1,4-1.46c2.7,0,3.81,1.61,3.81,4.43v5.27c0,.68.1,1,.27,1.18s.46.26,1.29.3v.66h-6.15v-.66c1,0,1.14-.15,1.31-.32a2,2,0,0,0,.25-1.29V74c0-2.15-.45-3.83-2.62-3.81a2.74,2.74,0,0,0-2.09,1v7.3c0,.68.1,1,.28,1.16s.5.26,1.29.3v.66h-6.1v-.66c.78,0,1.11-.12,1.26-.3a2.14,2.14,0,0,0,.25-1.31V72c0-1.31-.23-1.81-.75-1.81a2.64,2.64,0,0,0-.81.15v-.73a16.53,16.53,0,0,1,4.53-.91Z" transform="translate(-46.93 -34.48)"/><path class="cls-2" d="M563.65,66c-.13.73-.3,2.64-.3,3.07l2.74.25V70c-.91.1-1.71.2-2.74.22v5.14a7.25,7.25,0,0,0,.42,3.2,1.8,1.8,0,0,0,1.74.91,3.63,3.63,0,0,0,1.29-.2l.17.65a7.76,7.76,0,0,1-3.73,1,2.57,2.57,0,0,1-2.41-1.21,5.61,5.61,0,0,1-.51-2.75V70.19c-.58-.07-1.41-.12-1.91-.22v-.66c.48-.1,1.31-.15,1.91-.25V68a16.1,16.1,0,0,1,3-2.17Z" transform="translate(-46.93 -34.48)"/><path class="cls-2" d="M578.86,79a7.28,7.28,0,0,1-9,.7,5,5,0,0,1-1.19-1.26,6.22,6.22,0,0,1-.93-3.47,6.49,6.49,0,0,1,1-3.58,6.32,6.32,0,0,1,5.42-2.67c3.65,0,6.27,2.12,6.27,5.87A6.27,6.27,0,0,1,578.86,79Zm-2.29-.63a7.91,7.91,0,0,0,.61-3.25,8.38,8.38,0,0,0-.74-3.78,2.74,2.74,0,0,0-2.59-1.66,2.55,2.55,0,0,0-2.37,1.76,8.06,8.06,0,0,0-.53,3,9,9,0,0,0,.61,3.42,2.94,2.94,0,0,0,2.72,2.12A2.47,2.47,0,0,0,576.57,78.33Z" transform="translate(-46.93 -34.48)"/><path class="cls-2" d="M434.76,42.24a11.88,11.88,0,0,1,.23,2.23c0,.5,0,.61,0,.84l-.51.09c-.27-1.46-.46-1.81-.71-2.07s-.89-.5-2.42-.5h-2.09v5.79h2.23c.95,0,1.35-.09,1.52-.26s.23-.25.38-1.34h.54V50.8h-.54c-.11-.77-.15-1.17-.38-1.34s-.36-.26-1.66-.26h-2.09v6.07a11.6,11.6,0,0,0,2.32.27,6.4,6.4,0,0,0,2.17-.3c1.34-.5,1.49-1.51,1.78-2.69l.53.08a13.58,13.58,0,0,1-.69,3.5h-9.64v-.47a3.73,3.73,0,0,0,1.26-.18c.29-.17.32-.89.32-1.79V45.08c0-1.54-.07-1.83-.17-2s-.25-.27-1.41-.36v-.46Z" transform="translate(-46.93 -34.48)"/><path class="cls-2" d="M440.42,54.26c0,.75.1,1.07.29,1.19a3.61,3.61,0,0,0,1.14.21v.47h-4.69v-.47a3.86,3.86,0,0,0,1.09-.18c.25-.13.34-.53.34-1.29v-10a11.2,11.2,0,0,0-.07-1.55c-.06-.53-.25-.89-.69-.89-.21,0-.4,0-.61.07l-.06-.47c.18,0,.65-.12,1.43-.21S440,41,440.42,41Z" transform="translate(-46.93 -34.48)"/><path class="cls-2" d="M461.63,45.9l-.57.13c-.34-1.9-1.29-3.41-4.08-3.41-3.41,0-5.62,2.23-5.62,6.21a8.62,8.62,0,0,0,1.11,4.46,5,5,0,0,0,4.44,2.46,5.07,5.07,0,0,0,2.55-.57c1.18-.71,1.51-1.62,2.12-3.24l.57.13a11.32,11.32,0,0,1-.86,3.57,11.55,11.55,0,0,1-4.34.8A8,8,0,0,1,450.7,54a7.16,7.16,0,0,1-1.55-4.81,7.15,7.15,0,0,1,1.43-4.57A8.12,8.12,0,0,1,457,41.92a9.17,9.17,0,0,1,4.27.87A15.59,15.59,0,0,1,461.63,45.9Z" transform="translate(-46.93 -34.48)"/><path class="cls-2" d="M472.76,54.3a5.44,5.44,0,0,1-8.46.23,5.13,5.13,0,0,1-.89-3,5.35,5.35,0,0,1,1.08-3.37,5.1,5.1,0,0,1,4.1-1.91,4.69,4.69,0,0,1,5.05,4.84A5.83,5.83,0,0,1,472.76,54.3Zm-1.06-2.65a6.12,6.12,0,0,0-.75-3.24A3,3,0,0,0,468.29,47,2.54,2.54,0,0,0,466,48.36a6,6,0,0,0-.65,3,5.26,5.26,0,0,0,.9,3.11,3,3,0,0,0,2.57,1.27C470.59,55.71,471.7,54.09,471.7,51.65Z" transform="translate(-46.93 -34.48)"/><path class="cls-2" d="M478.58,54.26c0,.75.11,1.07.3,1.19a3.59,3.59,0,0,0,1.13.21v.47h-4.69v-.47a3.71,3.71,0,0,0,1.09-.18c.26-.13.34-.53.34-1.29v-10a13,13,0,0,0-.06-1.55c-.06-.53-.25-.89-.7-.89-.21,0-.4,0-.61.07l-.06-.47c.19,0,.65-.12,1.43-.21s1.39-.12,1.83-.12Z" transform="translate(-46.93 -34.48)"/><path class="cls-2" d="M483.57,51.67a4.33,4.33,0,0,0,1.56,3,3.76,3.76,0,0,0,2.37.77,4.58,4.58,0,0,0,2.38-.67l.25.49a6.22,6.22,0,0,1-3.68,1.17,4.57,4.57,0,0,1-4.82-4.73,5.94,5.94,0,0,1,.87-3.24,4.73,4.73,0,0,1,4-2.23c2,0,3.22,1,3.71,3.18A31.38,31.38,0,0,1,483.57,51.67Zm4.75-2.13c-.4-1.85-1.17-2.57-2.44-2.57s-2.27,1.44-2.31,3.77A34,34,0,0,0,488.32,49.54Z" transform="translate(-46.93 -34.48)"/><path class="cls-2" d="M500.86,47.06v.36c-.5.1-1.47.19-2,.25a2.75,2.75,0,0,1,.57,1.72c0,2.17-1.69,3.39-4.13,3.39a3.62,3.62,0,0,1-.84-.1c-.86.33-1.1.61-1.1,1,0,.85,1.25.91,2.32.91H497c2,0,3.65.88,3.65,2.74,0,2.29-2.24,3.78-5.58,3.78-2.38,0-4-1.2-4-2.88,0-1,.78-1.83,2.38-2.36v0c-.95-.31-1.71-.88-1.71-1.62s1.45-1.37,1.9-1.7a2.67,2.67,0,0,1-2.21-2.74c0-2.25,1.74-3.49,4.29-3.49a16.33,16.33,0,0,1,2.63.33ZM499,57.85c0-1.26-1.18-1.91-3.38-1.91-1.39,0-2.74.31-2.74,1.77a2.55,2.55,0,0,0,.84,1.89,3.1,3.1,0,0,0,2.23.78A2.79,2.79,0,0,0,499,57.85Zm-1.41-8.18c0-1.69-.75-2.7-2.14-2.7s-2.11,1-2.11,2.57a2.27,2.27,0,0,0,2.17,2.55A2.17,2.17,0,0,0,497.62,49.67Z" transform="translate(-46.93 -34.48)"/><path class="cls-2" d="M504.8,54.19c0,1.1.13,1.31.74,1.39l.69.08v.47h-4.69v-.47c.4-.06.71-.06.92-.12.42-.13.51-.46.51-1.41V49.27c0-1.73-.17-1.94-.59-1.94a3.41,3.41,0,0,0-.76.15l-.08-.51a13.82,13.82,0,0,1,3.26-.73Zm-1.14-10.35a1.18,1.18,0,0,1-1.18-1.18,1.18,1.18,0,1,1,1.18,1.18Z" transform="translate(-46.93 -34.48)"/><path class="cls-2" d="M517.15,54.3a5.44,5.44,0,0,1-8.46.23,5.13,5.13,0,0,1-.88-3,5.41,5.41,0,0,1,1.07-3.37,5.11,5.11,0,0,1,4.1-1.91,4.69,4.69,0,0,1,5,4.84A5.75,5.75,0,0,1,517.15,54.3Zm-1-2.65a6,6,0,0,0-.76-3.24A2.94,2.94,0,0,0,512.69,47a2.55,2.55,0,0,0-2.3,1.39,6,6,0,0,0-.65,3,5.26,5.26,0,0,0,.91,3.11,3,3,0,0,0,2.56,1.27C515,55.71,516.1,54.09,516.1,51.65Z" transform="translate(-46.93 -34.48)"/><path class="cls-2" d="M527.18,51.67a4.4,4.4,0,0,0,1.56,3,3.77,3.77,0,0,0,2.38.77,4.61,4.61,0,0,0,2.38-.67l.25.49a6.24,6.24,0,0,1-3.68,1.17,4.57,4.57,0,0,1-4.82-4.73,5.93,5.93,0,0,1,.86-3.24,4.74,4.74,0,0,1,4-2.23c2,0,3.22,1,3.7,3.18A31.2,31.2,0,0,1,527.18,51.67Zm4.76-2.13c-.4-1.85-1.18-2.57-2.44-2.57s-2.27,1.44-2.32,3.77A34.18,34.18,0,0,0,531.94,49.54Z" transform="translate(-46.93 -34.48)"/><path class="cls-2" d="M540.63,49.39H540a2.31,2.31,0,0,0-2-2.46,1.34,1.34,0,0,0-1.35,1.5c0,1.13,1,1.55,2.42,2.21s2.25,1.53,2.25,2.86c0,1.83-1.41,2.94-3.66,2.94a5.59,5.59,0,0,1-2.65-.61,8.94,8.94,0,0,1-.4-2.82h.57c.56,1.86,1.45,2.74,2.82,2.74a1.53,1.53,0,0,0,1.49-1.56c0-1.07-.57-1.68-2.31-2.42a5.88,5.88,0,0,1-1.5-.86,2.5,2.5,0,0,1-.86-2c0-1.6,1.37-2.67,3.37-2.67a4,4,0,0,1,2.23.61A9,9,0,0,1,540.63,49.39Z" transform="translate(-46.93 -34.48)"/><path class="cls-2" d="M434.9,93.2h-.23a3.71,3.71,0,0,0-2.95-1.66c-1.63,0-2.76,1.56-2.76,4.14,0,3.45,1.87,5.5,4.76,5.5a7.69,7.69,0,0,0,2.33-.44l.23.62a7.44,7.44,0,0,1-4.58,1.3,6.36,6.36,0,0,1-4.73-2.07A5.43,5.43,0,0,1,425.69,97a6.56,6.56,0,0,1,1.48-4.35,7,7,0,0,1,5.27-2.4,5.56,5.56,0,0,1,3.45.84A3.74,3.74,0,0,1,434.9,93.2Z" transform="translate(-46.93 -34.48)"/><path class="cls-2" d="M441.83,100.08c0,.69.1,1,.28,1.23s.54.25,1.31.3v.67h-6.25v-.67c.82,0,1.15-.15,1.33-.33a2,2,0,0,0,.26-1.3V93.63c0-1.33-.23-1.86-.77-1.86a2.13,2.13,0,0,0-.82.15v-.74a16.52,16.52,0,0,1,4.66-.92Zm-1.71-12a1.79,1.79,0,1,1,0-3.58,1.8,1.8,0,0,1,1.79,1.77A1.77,1.77,0,0,1,440.12,88.13Z" transform="translate(-46.93 -34.48)"/><path class="cls-2" d="M448.46,96.88c.48,2.89,2.07,4.3,4.55,4.3a5.89,5.89,0,0,0,2.81-.74l.26.59a7.59,7.59,0,0,1-4.86,1.63,6.14,6.14,0,0,1-4.3-1.63,5.93,5.93,0,0,1-1.69-4.4A6.48,6.48,0,0,1,447,92.05a5.7,5.7,0,0,1,4.17-1.79c2.86,0,4.58,1.33,5,4.17A41.84,41.84,0,0,1,448.46,96.88Zm4.63-2.3c-.23-2.2-1.16-3.35-2.56-3.35a2,2,0,0,0-1.77,1.48,8.82,8.82,0,0,0-.46,3A32.7,32.7,0,0,0,453.09,94.58Z" transform="translate(-46.93 -34.48)"/><path class="cls-2" d="M462,91.74a5.91,5.91,0,0,1,4.05-1.48c2.73,0,3.86,1.63,3.86,4.5v5.35c0,.69.1,1,.28,1.2s.46.25,1.3.3v.67h-6.24v-.67c1,0,1.15-.15,1.33-.33a2,2,0,0,0,.26-1.3V95.6c0-2.17-.46-3.89-2.66-3.86a2.75,2.75,0,0,0-2.12,1v7.42c0,.69.1,1,.28,1.18s.51.25,1.3.3v.67h-6.19v-.67c.79,0,1.13-.12,1.28-.3A2.2,2.2,0,0,0,459,100V93.61c0-1.33-.23-1.84-.77-1.84a2.75,2.75,0,0,0-.82.15v-.74a16.35,16.35,0,0,1,4.6-.92Z" transform="translate(-46.93 -34.48)"/><path class="cls-2" d="M482.25,93.2H482a3.69,3.69,0,0,0-2.94-1.66c-1.64,0-2.76,1.56-2.76,4.14,0,3.45,1.86,5.5,4.76,5.5a7.69,7.69,0,0,0,2.32-.44l.23.62a7.44,7.44,0,0,1-4.58,1.3,6.4,6.4,0,0,1-4.73-2.07A5.48,5.48,0,0,1,473,97a6.56,6.56,0,0,1,1.49-4.35,7,7,0,0,1,5.27-2.4,5.58,5.58,0,0,1,3.45.84A3.82,3.82,0,0,1,482.25,93.2Z" transform="translate(-46.93 -34.48)"/><path class="cls-2" d="M489.19,100.08c0,.69.1,1,.28,1.23s.53.25,1.3.3v.67h-6.24v-.67c.82,0,1.15-.15,1.33-.33a2,2,0,0,0,.26-1.3V93.63c0-1.33-.23-1.86-.77-1.86a2.1,2.1,0,0,0-.82.15v-.74a16.45,16.45,0,0,1,4.66-.92Zm-1.72-12a1.79,1.79,0,1,1,0-3.58,1.79,1.79,0,0,1,1.79,1.77A1.76,1.76,0,0,1,487.47,88.13Z" transform="translate(-46.93 -34.48)"/><path class="cls-2" d="M502.28,98.75c0,2.12.54,2.94,1.59,3a.72.72,0,0,0,.25,0l.08.33a4.2,4.2,0,0,1-2.2.64,2.51,2.51,0,0,1-2.5-1.3,5.53,5.53,0,0,1-3.56,1.3c-2,0-3.35-1.15-3.35-2.79,0-1.79,1.33-3.14,4.6-4.11.59-.18,1.31-.36,2-.54v-.56c0-2.15-.81-2.92-2.22-2.92s-2.33.77-3.05,2.53h-.25A3.61,3.61,0,0,1,493,93a7.23,7.23,0,0,1,5.5-2.71c2.68,0,3.78,1,3.78,4.4Zm-3,1.82c-.11-1-.11-1.23-.11-1.28V96.4l-.33,0a2.73,2.73,0,0,0-3,2.66,1.94,1.94,0,0,0,1.9,2.15A2.33,2.33,0,0,0,499.32,100.57Z" transform="translate(-46.93 -34.48)"/><path class="cls-2" d="M517.69,90.64v.67c-1.31.23-1.85.33-1.85.63a3.44,3.44,0,0,0,.34,1.16l2.4,6.11,2.28-6.32a4.21,4.21,0,0,0,.25-1c0-.12-.1-.23-.33-.3a10.27,10.27,0,0,0-1.51-.33v-.67h5v.67c-.85.18-1,.35-1.28.69a11,11,0,0,0-1.21,2.3l-3.68,8.64c-.28.67-.56,1.34-.87,2-1,2.07-2.28,3.5-4.32,3.5a2.48,2.48,0,0,1-.69-.1,4.45,4.45,0,0,1,.41-1.58,7.5,7.5,0,0,1,2.43-1.56c1.17-.64,1.76-1.36,1.76-2.2a4.81,4.81,0,0,0-.1-.85,9,9,0,0,0-.59-1.56l-3.68-8.31c-.26-.59-.8-.72-1.61-1v-.67Z" transform="translate(-46.93 -34.48)"/><path class="cls-2" d="M541,93.2h-.23a3.69,3.69,0,0,0-2.94-1.66c-1.64,0-2.76,1.56-2.76,4.14,0,3.45,1.87,5.5,4.76,5.5a7.57,7.57,0,0,0,2.32-.44l.23.62a7.43,7.43,0,0,1-4.57,1.3,6.4,6.4,0,0,1-4.74-2.07A5.48,5.48,0,0,1,531.78,97a6.56,6.56,0,0,1,1.49-4.35,7,7,0,0,1,5.27-2.4,5.58,5.58,0,0,1,3.45.84A3.82,3.82,0,0,1,541,93.2Z" transform="translate(-46.93 -34.48)"/><path class="cls-2" d="M547.24,97.57c0,2.56.87,3.61,2.89,3.61a3.48,3.48,0,0,0,1.91-.64V93.61c0-1.33-.22-1.84-.76-1.84a2.1,2.1,0,0,0-.82.15v-.74a16.46,16.46,0,0,1,4.65-.92v8.39a4.8,4.8,0,0,0,.23,2,.68.68,0,0,0,.67.38c.1,0,.59,0,.69,0l0,.66a31.48,31.48,0,0,1-3.86,1l-.69-1.3a6.85,6.85,0,0,1-3.89,1.3,4.32,4.32,0,0,1-3.12-.94c-.69-.67-1-1.77-1-3.82V93.38c0-1.08-.26-1.61-.77-1.61a2.75,2.75,0,0,0-.82.15v-.74a16.45,16.45,0,0,1,4.66-.92Z" transform="translate(-46.93 -34.48)"/><path class="cls-2" d="M563,100.08c0,.69.1,1,.28,1.23s.53.25,1.3.3v.67h-6.24v-.67c.84,0,1.15-.15,1.33-.33a2,2,0,0,0,.26-1.3V87.8a8.61,8.61,0,0,0-.16-2.12.7.7,0,0,0-.74-.62c-.28,0-.61.06-.69.06v-.67c1.2-.23,1.84-.36,2.66-.46a14.81,14.81,0,0,1,2-.13Z" transform="translate(-46.93 -34.48)"/><path class="cls-2" d="M571,87.52c-.13.74-.31,2.69-.31,3.12l2.79.26v.66c-.92.1-1.74.21-2.79.23V97a7.08,7.08,0,0,0,.44,3.25,1.8,1.8,0,0,0,1.76.92,3.77,3.77,0,0,0,1.31-.2l.17.66a7.87,7.87,0,0,1-3.78,1,2.64,2.64,0,0,1-2.46-1.22,5.79,5.79,0,0,1-.51-2.79V91.79c-.59-.08-1.43-.13-1.94-.23V90.9c.48-.11,1.33-.16,1.94-.26v-1.1a17.9,17.9,0,0,1,3.07-2.2Z" transform="translate(-46.93 -34.48)"/><path class="cls-2" d="M579,97.57c0,2.56.87,3.61,2.89,3.61a3.55,3.55,0,0,0,1.92-.64V93.61c0-1.33-.23-1.84-.77-1.84a2.1,2.1,0,0,0-.82.15v-.74a16.46,16.46,0,0,1,4.65-.92v8.39a4.8,4.8,0,0,0,.23,2,.68.68,0,0,0,.67.38c.1,0,.59,0,.69,0l0,.66a31.48,31.48,0,0,1-3.86,1l-.69-1.3a6.85,6.85,0,0,1-3.89,1.3,4.32,4.32,0,0,1-3.12-.94c-.69-.67-1-1.77-1-3.82V93.38c0-1.08-.26-1.61-.77-1.61a2.75,2.75,0,0,0-.82.15v-.74a16.45,16.45,0,0,1,4.66-.92Z" transform="translate(-46.93 -34.48)"/><path class="cls-2" d="M594.54,92a4.26,4.26,0,0,1,2.89-1.76,2.67,2.67,0,0,1,2.07,1.12A3.78,3.78,0,0,1,598,93.2c-.1,0-.28-.08-.9-.31a6.55,6.55,0,0,0-1.35-.41,1.17,1.17,0,0,0-1,.51v6.88c0,1,.17,1.28.35,1.41a4.23,4.23,0,0,0,1.74.33v.67H590v-.67c.79,0,1.15-.12,1.33-.3a2.14,2.14,0,0,0,.26-1.33V93.76c0-1.33-.21-1.89-.8-1.89A2.21,2.21,0,0,0,590,92v-.66c1.05-.36,1.87-.62,2.4-.75s1.16-.23,1.9-.35A8.55,8.55,0,0,1,594.54,92Z" transform="translate(-46.93 -34.48)"/><path class="cls-2" d="M609.84,98.75c0,2.12.54,2.94,1.59,3a.72.72,0,0,0,.25,0l.08.33a4.23,4.23,0,0,1-2.2.64,2.52,2.52,0,0,1-2.51-1.3,5.49,5.49,0,0,1-3.55,1.3c-2,0-3.35-1.15-3.35-2.79,0-1.79,1.33-3.14,4.6-4.11.59-.18,1.3-.36,2-.54v-.56c0-2.15-.82-2.92-2.23-2.92s-2.32.77-3,2.53h-.25a3.79,3.79,0,0,1-.7-1.3,7.26,7.26,0,0,1,5.5-2.71c2.69,0,3.79,1,3.79,4.4Zm-3,1.82c-.1-1-.1-1.23-.1-1.28V96.4l-.33,0a2.73,2.73,0,0,0-3,2.66,1.94,1.94,0,0,0,1.89,2.15A2.29,2.29,0,0,0,606.87,100.57Z" transform="translate(-46.93 -34.48)"/><path class="cls-2" d="M376.3,40.91h10.61a19.51,19.51,0,0,0-4.57,4.9,9.47,9.47,0,0,0-1.28,5,9.83,9.83,0,0,0,3.16,7.49,11,11,0,0,0,7.91,3,11.34,11.34,0,0,0,8-2.87A9.7,9.7,0,0,0,403.24,51,10.21,10.21,0,0,0,402,45.92a20.31,20.31,0,0,0-4.69-5h10.54a21,21,0,0,1,2.52,9.73,18.57,18.57,0,0,1-5.18,13.41,17.28,17.28,0,0,1-12.95,5.4A17.54,17.54,0,0,1,379.18,64a18.47,18.47,0,0,1-5.33-13.41A20.1,20.1,0,0,1,376.3,40.91Z" transform="translate(-46.93 -34.48)"/><path class="cls-2" d="M348.62,88V77.39a19.42,19.42,0,0,0,4.9,4.58,9.56,9.56,0,0,0,5,1.28A9.85,9.85,0,0,0,366,80.09a11.06,11.06,0,0,0,3-7.91,11.37,11.37,0,0,0-2.87-8,9.7,9.7,0,0,0-7.42-3.12,10.1,10.1,0,0,0-5.07,1.24,20.31,20.31,0,0,0-5,4.69V56.46a21,21,0,0,1,9.73-2.52,18.59,18.59,0,0,1,13.41,5.18,17.28,17.28,0,0,1,5.4,12.95,17.54,17.54,0,0,1-5.47,13.06,18.47,18.47,0,0,1-13.41,5.32A20.09,20.09,0,0,1,348.62,88Z" transform="translate(-46.93 -34.48)"/><path class="cls-2" d="M407.92,102.6H397.31a19.59,19.59,0,0,0,4.58-4.9,9.56,9.56,0,0,0,1.28-5A9.87,9.87,0,0,0,400,85.21a11.08,11.08,0,0,0-7.91-3,11.31,11.31,0,0,0-8,2.87A9.7,9.7,0,0,0,381,92.52a10.1,10.1,0,0,0,1.24,5.07,20,20,0,0,0,4.68,5H376.37a21,21,0,0,1-2.52-9.73A18.56,18.56,0,0,1,379,79.46,17.26,17.26,0,0,1,392,74.06a17.5,17.5,0,0,1,13.06,5.47,18.47,18.47,0,0,1,5.32,13.41A20,20,0,0,1,407.92,102.6Z" transform="translate(-46.93 -34.48)"/></svg>